<?xml version="1.0" standalone="no"?>
<!DOCTYPE svg PUBLIC "-//W3C//DTD SVG 1.1//EN" "http://www.w3.org/Graphics/SVG/1.1/DTD/svg11.dtd" >
<svg>
<metadata>
Created by FontForge 20100429 at Wed Jan 28 21:01:07 2015
 By fontface
Copyright (c) 2012 by James T. Edmondson. All rights reserved.
</metadata>
<defs>
<font id="Mission-Script" horiz-adv-x="0" >
  <font-face 
    font-family="Mission Script"
    font-weight="400"
    font-stretch="normal"
    units-per-em="1000"
    panose-1="2 0 0 0 0 0 0 0 0 0"
    ascent="721"
    descent="-279"
    x-height="505"
    cap-height="707"
    bbox="-254 -368 949 944"
    underline-thickness="0"
    underline-position="0"
    unicode-range="U+0020-FB06"
  />
<missing-glyph horiz-adv-x="264" 
 />
    <glyph glyph-name="r_s" unicode="rs" horiz-adv-x="609" 
d="M52 24c-4 -22 -20 -33 -37 -33c-19 0 -38 14 -38 44c0 24 28 262 79 421c5 17 21 25 38 25c23 0 49 -16 49 -44c0 -17 -12 -42 -17 -60c36 77 80 133 129 133c37 0 51 -22 51 -65c0 -56 -43 -149 -43 -184c0 -14 8 -22 23 -22c63 0 129 141 148 186c-9 26 -12 52 -12 76
c0 63 26 113 62 113c24 0 37 -16 37 -43c0 -36 -22 -92 -64 -160c21 -73 78 -174 78 -255c0 -35 -7 -69 -24 -98c40 30 54 68 98 145c6 11 12 16 17 16c4 0 6 -4 6 -11c0 -4 -1 -9 -3 -15c-51 -126 -106 -197 -230 -200h-7c-112 0 -151 57 -151 105c0 35 20 65 48 65
c35 0 43 -27 43 -62v-35c0 -32 12 -50 35 -50c62 0 73 64 73 285v72c-31 -69 -95 -173 -181 -173c-40 0 -78 17 -78 77c0 55 39 122 39 153c0 7 -3 12 -10 12c-34 0 -116 -143 -142 -312z" />
    <glyph glyph-name="arrowright" unicode="&#x2d;&#x3e;" horiz-adv-x="539" 
d="M466 260c-241 -116 -240 -136 -254 -136c-12 0 -21 18 -21 35c0 34 70 59 147 93c-86 -4 -173 1 -267 5c-18 1 -25 9 -25 19c0 18 21 41 48 43c40 3 162 6 250 7c-44 18 -110 43 -110 68c0 22 22 58 42 58c19 0 37 -40 214 -100c13 -4 19 -15 19 -26
c0 -20 -21 -55 -43 -66z" />
    <glyph glyph-name="arrowleft" unicode="&#x2d;&#x3c;" horiz-adv-x="539" 
d="M81 333c240 119 247 145 264 145c11 0 20 -16 20 -32c0 -33 -80 -65 -160 -102c91 0 183 -5 280 0c11 0 16 -6 16 -16c0 -74 -153 -53 -281 -57c42 -22 104 -52 104 -72c0 -21 -23 -54 -43 -54c-23 0 -20 33 -214 102c-14 5 -20 16 -20 30c0 23 16 51 34 56z" />
    <glyph glyph-name="arrowup" unicode="&#x2d;^" horiz-adv-x="340" 
d="M222 508c92 -227 116 -234 116 -246c0 -14 -29 -29 -51 -29c-30 0 -51 63 -82 130c-3 -46 16 -306 -25 -306c-18 0 -41 21 -43 48c-3 44 -1 186 -1 274c-29 -54 -74 -126 -102 -126c-11 0 -22 6 -22 14c0 10 40 35 128 231c6 13 27 25 51 25c15 0 27 -5 31 -15z" />
    <glyph glyph-name="arrowdown" unicode="&#x2d;&#x2c;" horiz-adv-x="365" 
d="M135 73c-83 199 -119 221 -119 235c0 13 24 27 45 27c28 0 56 -61 87 -127c0 87 8 222 11 286c1 20 11 28 23 28c35 0 40 -33 40 -92c0 -67 -3 -172 -6 -240c32 64 76 145 93 145c9 0 21 -11 21 -23c0 -10 -14 -19 -37 -58c-19 -32 -43 -85 -81 -172
c-5 -12 -21 -27 -45 -27c-14 0 -27 7 -32 18z" />
    <glyph glyph-name="v_s" unicode="vs" horiz-adv-x="613" 
d="M396 -7c-112 0 -151 57 -151 105c0 35 20 65 48 65c40 0 43 -32 43 -97c0 -32 12 -50 35 -50c33 0 73 34 73 160v179c-31 -71 -105 -192 -202 -163c-46 -107 -108 -198 -173 -198c-55 0 -74 60 -74 142c0 113 36 266 60 353c5 17 21 26 40 26c25 0 52 -17 52 -51
c0 -53 -80 -282 -80 -376c0 -29 7 -49 26 -49c31 0 69 90 103 190c-13 22 -19 52 -19 84c0 95 51 211 103 211c18 0 40 -11 40 -57c0 -52 -28 -148 -61 -234c84 -37 157 119 183 180c-12 30 -17 60 -17 87c0 64 27 114 63 114c24 0 37 -16 37 -43c0 -36 -22 -92 -64 -160
c21 -73 78 -174 78 -255c0 -35 -7 -69 -24 -98c40 30 54 68 98 145c6 11 12 16 17 16c4 0 6 -4 6 -11c0 -4 -1 -9 -3 -15c-52 -128 -108 -200 -237 -200z" />
    <glyph glyph-name="w_s" unicode="ws" horiz-adv-x="832" 
d="M337 464c0 -53 -80 -285 -80 -376c0 -29 7 -49 26 -49c31 0 69 90 103 190c-13 22 -19 52 -19 84c0 95 51 211 103 211c18 0 40 -11 40 -57c0 -52 -28 -148 -61 -234c95 -37 178 111 211 184c-11 28 -15 57 -15 84c0 63 26 113 62 113c24 0 37 -16 37 -43
c0 -36 -22 -92 -64 -160c21 -73 78 -174 78 -255c0 -35 -7 -69 -24 -98c40 30 54 68 98 145c6 11 12 16 17 16c4 0 6 -4 6 -11c0 -4 -1 -9 -3 -15c-51 -126 -106 -197 -230 -200h-7c-112 0 -151 57 -151 105c0 35 20 65 48 65c42 0 43 -32 43 -97c0 -32 12 -50 35 -50
c33 0 73 34 73 160v187c-37 -79 -125 -203 -231 -171c-46 -107 -108 -198 -173 -198c-50 0 -70 49 -73 119c-30 -72 -67 -119 -117 -119c-55 0 -74 60 -74 142c0 113 36 266 60 353c5 17 21 26 40 26c25 0 52 -17 52 -51c0 -52 -80 -268 -80 -376c0 -29 8 -50 26 -50
c67 0 109 294 152 451c5 17 21 26 40 26c25 0 52 -17 52 -51z" />
    <glyph glyph-name="r_x" unicode="rx" horiz-adv-x="697" 
d="M52 24c-4 -22 -20 -33 -37 -33c-19 0 -38 14 -38 44c0 60 36 260 79 421c5 17 21 25 38 25c23 0 49 -16 49 -44c0 -17 -12 -42 -17 -60c36 77 80 133 129 133c37 0 51 -22 51 -65c0 -56 -48 -146 -48 -181c0 -14 8 -22 23 -22c59 0 115 175 134 220c0 28 24 45 50 45
c18 0 35 -9 38 -30c7 -48 14 -107 23 -165c15 93 65 196 131 196c27 0 49 -17 49 -41c0 -96 -139 6 -170 -220c17 -102 39 -187 71 -187c25 0 51 64 90 143c6 12 13 17 18 17c3 0 6 -3 6 -9c0 -5 -1 -11 -4 -18c-31 -74 -69 -202 -142 -202c-47 0 -81 62 -107 146
c-19 -70 -60 -147 -133 -147c-27 0 -49 17 -49 40c0 41 25 53 81 58c28 2 72 34 91 85c-18 71 -30 152 -37 223c-28 -80 -80 -196 -167 -196c-40 0 -78 17 -78 77c0 55 44 122 44 153c0 7 -3 12 -10 12c-34 0 -116 -143 -142 -312z" />
    <glyph glyph-name="v_x" unicode="vx" horiz-adv-x="741" 
d="M146 459c0 -62 -79 -272 -79 -371c0 -28 7 -49 26 -49c31 0 69 90 103 190c-13 22 -19 52 -19 84c0 95 51 211 103 211c18 0 40 -11 40 -57c0 -52 -28 -148 -60 -233c7 -3 17 -6 26 -6c88 0 135 173 159 233c0 29 25 46 50 46c18 0 35 -9 38 -30c7 -48 14 -107 23 -165
c15 93 65 196 131 196c27 0 49 -17 49 -41c0 -96 -139 6 -170 -220c17 -102 39 -187 71 -187c25 0 51 64 90 143c6 12 13 17 18 17c3 0 6 -3 6 -9c0 -5 -1 -11 -4 -18c-31 -74 -69 -202 -142 -202c-47 0 -81 62 -107 146c-19 -70 -60 -147 -133 -147c-27 0 -49 17 -49 40
c0 41 25 53 81 58c28 2 72 34 91 85c-18 71 -30 152 -37 223c-29 -86 -83 -208 -180 -208c-11 0 -20 1 -29 4c-46 -107 -108 -198 -173 -198c-55 0 -74 60 -74 141c0 112 35 262 59 349c5 17 21 26 40 26c25 0 52 -17 52 -51z" />
    <glyph glyph-name="w_x" unicode="wx" horiz-adv-x="925" 
d="M643 460c0 26 18 48 50 48c18 0 35 -10 38 -31c7 -48 14 -107 23 -165c15 93 65 196 131 196c27 0 49 -17 49 -41c0 -96 -139 6 -170 -220c17 -102 39 -187 71 -187c25 0 51 64 90 143c6 12 13 17 18 17c3 0 6 -3 6 -9c0 -5 -1 -11 -4 -18c-31 -74 -69 -202 -142 -202
c-47 0 -81 62 -107 146c-19 -70 -60 -147 -133 -147c-27 0 -49 17 -49 40c0 41 25 53 81 58c28 2 72 34 91 85c-18 72 -30 153 -38 224c-30 -80 -102 -239 -216 -205c-46 -107 -108 -198 -173 -198c-50 0 -70 49 -73 119c-30 -72 -67 -119 -117 -119c-55 0 -74 60 -74 142
c0 113 36 266 60 353c5 17 21 26 40 26c25 0 52 -17 52 -51c0 -56 -80 -284 -80 -376c0 -29 8 -50 26 -50c67 0 109 294 152 451c5 17 21 26 40 26c25 0 52 -17 52 -51c0 -60 -80 -271 -80 -376c0 -29 7 -49 26 -49c31 0 69 90 103 190c-13 22 -19 52 -19 84
c0 95 51 211 103 211c18 0 40 -11 40 -57c0 -52 -28 -148 -61 -234c97 -42 169 161 194 226v1z" />
    <glyph glyph-name="r_z" unicode="r&#x7a;" horiz-adv-x="691" 
d="M68 130l-16 -106c-4 -22 -20 -33 -37 -33c-19 0 -38 14 -38 44c0 46 34 267 79 421c5 17 21 25 38 25c23 0 49 -16 49 -44c0 -17 -12 -42 -17 -60c36 77 80 133 129 133c37 0 51 -22 51 -65c0 -56 -48 -149 -48 -184c0 -14 8 -22 23 -22c53 0 102 109 122 167
c-19 11 -27 28 -27 46c0 28 22 56 43 56c14 0 26 -14 26 -43c70 1 181 47 201 47c22 0 35 -19 35 -41c0 -18 -8 -46 -60 -63c7 -19 10 -39 10 -60c0 -99 -75 -209 -158 -270c25 -11 43 -29 56 -51c64 44 125 97 162 176c5 11 13 18 19 18c4 0 6 -3 6 -8s-1 -11 -5 -20
c-41 -94 -104 -156 -168 -205c16 -97 -51 -319 -179 -319c-51 0 -103 43 -103 99c0 100 97 154 195 213c-4 27 -14 52 -33 67c-22 -10 -43 -17 -63 -17c-24 0 -37 10 -37 25c0 18 21 39 64 39c11 0 22 -1 32 -2c60 65 124 222 169 305c-51 -12 -105 -16 -160 -2
c-24 -68 -78 -196 -174 -196c-40 0 -78 17 -78 77c0 55 44 122 44 153c0 7 -3 12 -10 12c-34 0 -116 -143 -142 -312zM339 -299c73 0 111 169 117 225c-70 -49 -153 -106 -153 -180c0 -22 10 -45 36 -45z" />
    <glyph glyph-name="v_z" unicode="v&#x7a;" horiz-adv-x="706" 
d="M147 464c0 -52 -80 -274 -80 -376c0 -29 7 -49 26 -49c31 0 69 90 103 190c-13 22 -19 52 -19 84c0 95 51 211 103 211c18 0 40 -11 40 -57c0 -52 -28 -148 -61 -234c83 -36 141 105 165 170c-23 11 -33 30 -33 49c0 29 22 56 43 56c14 0 26 -14 26 -43
c70 1 181 47 201 47c22 0 35 -19 35 -41c0 -18 -11 -48 -60 -63c7 -19 10 -39 10 -60c0 -99 -75 -209 -158 -270c25 -11 43 -29 56 -51c64 44 125 97 162 176c5 11 13 18 19 18c4 0 6 -3 6 -8s-1 -11 -5 -20c-41 -94 -104 -156 -168 -205c16 -97 -51 -319 -179 -319
c-51 0 -103 44 -103 99c0 100 97 154 195 213c-4 27 -14 52 -33 67c-22 -10 -43 -17 -63 -17c-24 0 -37 10 -37 25c0 18 21 39 64 39c11 0 22 -1 32 -2c60 65 124 222 169 305c-51 -12 -104 -16 -156 -3c-26 -81 -90 -237 -205 -203c-46 -107 -108 -198 -173 -198
c-55 0 -74 60 -74 142c0 113 36 266 60 353c5 17 21 26 40 26c25 0 52 -17 52 -51zM354 -299c73 0 116 166 117 225c-70 -49 -153 -106 -153 -180c0 -22 10 -45 36 -45z" />
    <glyph glyph-name="w_z" unicode="w&#x7a;" horiz-adv-x="906" 
d="M337 464c0 -66 -80 -261 -80 -376c0 -29 7 -49 26 -49c31 0 69 90 103 190c-13 22 -19 52 -19 84c0 95 51 211 103 211c18 0 40 -11 40 -57c0 -52 -28 -148 -61 -234c82 -36 146 106 172 171c-21 11 -29 29 -29 48c0 30 21 56 42 56c14 0 26 -14 26 -43
c70 1 181 47 201 47c22 0 35 -19 35 -41c0 -18 -12 -50 -60 -63c7 -19 10 -39 10 -60c0 -99 -75 -209 -158 -270c25 -11 43 -29 56 -51c64 44 125 97 162 176c5 11 13 18 19 18c4 0 6 -3 6 -8s-1 -11 -5 -20c-41 -94 -104 -156 -168 -205c14 -172 -84 -319 -179 -319
c-51 0 -103 44 -103 99c0 100 97 154 195 213c-4 27 -14 52 -33 67c-22 -10 -43 -17 -63 -17c-24 0 -37 10 -37 25c0 18 21 39 64 39c11 0 22 -1 32 -2c60 65 124 222 169 305c-30 -7 -61 -11 -91 -11c-24 0 -47 3 -66 8c-28 -81 -100 -237 -214 -203
c-46 -107 -108 -198 -173 -198c-50 0 -70 49 -73 119c-30 -72 -67 -119 -117 -119c-55 0 -74 60 -74 142c0 113 36 266 60 353c5 17 21 26 40 26c25 0 52 -17 52 -51c0 -75 -80 -262 -80 -376c0 -29 8 -50 26 -50c67 0 109 294 152 451c5 17 21 26 40 26c25 0 52 -17 52 -51
zM554 -299c73 0 116 169 117 225c-70 -49 -153 -106 -153 -180c0 -25 13 -45 36 -45z" />
    <glyph glyph-name="t_t" unicode="tt" horiz-adv-x="416" 
d="M16 508h49c12 44 24 87 37 128c5 17 22 25 41 25c25 0 52 -16 52 -50c0 -24 -15 -67 -25 -105l102 -3c14 52 28 102 43 148c5 17 22 25 41 25c25 0 52 -16 52 -50c0 -28 -18 -80 -31 -127c77 -2 95 -6 95 -18c0 -13 -10 -20 -108 -27c-39 -135 -87 -292 -87 -365
c0 -26 6 -41 21 -41c49 0 119 173 135 173c4 0 7 -4 7 -11c0 -4 -1 -10 -4 -17c-14 -35 -83 -199 -167 -199c-68 0 -76 76 -71 133c-30 -59 -81 -133 -137 -133c-39 0 -72 28 -72 103c0 66 25 207 60 350l-34 3c-12 1 -17 14 -17 27c0 15 7 31 18 31zM69 90
c0 -18 1 -42 21 -42c36 0 94 104 117 154c11 70 30 159 52 247l-106 -3c-38 -132 -84 -284 -84 -356z" />
    <glyph glyph-name="s_t" unicode="st" horiz-adv-x="494" 
d="M69 -7c-112 0 -151 57 -151 105c0 31 20 72 56 64c50 76 104 189 133 251c-10 27 -15 54 -15 80c0 67 31 121 69 121c24 0 37 -17 37 -45c0 -37 -21 -95 -63 -162c22 -72 77 -171 77 -251c0 -35 -7 -69 -24 -98c39 30 53 67 97 143c10 70 28 159 51 248
c-29 0 -58 1 -86 4c-12 1 -17 14 -17 27c0 15 7 31 18 31c27 0 63 -1 100 -3c11 44 24 88 37 128c5 17 22 25 41 25c25 0 52 -16 52 -50c0 -25 -15 -70 -26 -110c59 -4 95 -6 95 -20c0 -13 -23 -22 -109 -29c-38 -133 -86 -289 -86 -362c0 -26 6 -42 21 -42
c39 0 90 110 118 155c7 12 12 18 17 18c4 0 7 -4 7 -11c0 -4 -1 -10 -4 -17c-14 -35 -83 -199 -167 -199c-39 0 -72 28 -72 103c0 9 0 19 1 30c-46 -86 -102 -134 -207 -134zM110 339c-32 -74 -81 -147 -111 -191c26 -29 -14 -132 45 -132c33 0 73 34 73 160
c0 34 -4 102 -7 163z" />
    <glyph glyph-name="l_l" unicode="ll" horiz-adv-x="539" 
d="M483 777c18 0 33 -10 40 -20c25 -15 43 -32 43 -99c0 -143 -81 -414 -196 -414c-3 0 -5 1 -8 1c-8 -52 -13 -97 -13 -127c0 -43 12 -63 40 -63c53 0 115 78 150 148c5 11 11 15 16 15c4 0 7 -4 7 -11c0 -4 -1 -8 -3 -14c-31 -77 -117 -202 -203 -202
c-68 0 -91 61 -91 151c-41 -72 -110 -151 -178 -151s-91 61 -91 151c0 57 9 126 23 198c37 200 91 395 181 403c15 0 29 -5 39 -13c15 -4 40 -14 40 -77c0 -125 -80 -394 -188 -420c-7 -46 -11 -87 -11 -115c0 -43 12 -63 40 -63c51 0 111 73 147 142
c14 203 110 580 216 580zM507 736c-36 -14 -108 -277 -141 -467c93 84 159 341 141 467zM226 704c-38 -25 -101 -266 -131 -443c78 91 146 323 131 443z" />
    <glyph glyph-name="e_e" unicode="ee" horiz-adv-x="654" 
d="M245 491c44 -5 64 -42 64 -89c0 -97 -71 -256 -211 -236h-8c0 -65 16 -116 66 -116c87 0 146 101 169 147c10 146 92 317 191 317c22 0 45 -7 57 -17c42 -5 60 -46 60 -99c0 -102 -70 -246 -173 -246c-14 0 -29 3 -44 9c1 -61 19 -107 66 -107c117 0 170 163 188 163
c4 0 7 -4 7 -10c0 -4 -1 -9 -3 -14c-45 -112 -115 -200 -230 -200c-78 0 -114 65 -119 149c-45 -88 -110 -153 -207 -153c-86 0 -121 78 -121 174c0 151 86 345 191 345c22 0 45 -7 57 -17zM418 190c74 -10 156 161 156 246c0 20 -3 39 -19 39c-59 0 -128 -162 -137 -285z
M91 190c82 11 156 157 156 237c0 20 -3 42 -20 42c-58 0 -126 -158 -136 -279z" />
    <glyph glyph-name="f_f" unicode="ff" horiz-adv-x="618" 
d="M337 625c0 -232 -144 -475 -256 -465c-7 -33 -13 -69 -21 -110c110 15 222 59 261 214c57 264 115 495 245 495c24 0 42 -14 46 -29c15 -8 39 -31 39 -86c0 -239 -161 -458 -257 -462c-8 -41 -17 -83 -26 -132c110 14 198 45 250 153c5 10 11 15 16 15c4 0 7 -4 7 -11
c0 -4 -1 -9 -3 -14c-49 -119 -144 -169 -266 -192c36 -17 65 -94 65 -166c0 -67 -26 -129 -98 -129c-61 0 -82 57 -82 146c0 77 16 179 38 290c-55 -79 -144 -122 -232 -141c37 -16 68 -91 68 -158c0 -60 -25 -114 -95 -114c-62 0 -85 55 -85 143c-1 90 23 213 52 350
c59 280 112 518 248 518c25 0 43 -13 47 -29c15 -8 39 -31 39 -86zM292 664c0 23 -1 38 -20 38c-20 1 -33 -22 -47 -53c-68 -143 -110 -316 -138 -457c97 68 205 380 205 472zM606 683c0 23 -1 38 -20 38c-20 1 -32 -22 -47 -53c-67 -141 -112 -320 -139 -452
c92 83 206 373 206 467zM333 -263c25 0 48 48 48 114c0 37 -8 80 -27 123c-37 -186 -38 -195 -38 -203c0 -21 7 -34 17 -34zM30 -240c24 0 43 36 43 90c0 35 -8 77 -28 122c-31 -161 -32 -170 -32 -178c0 -21 7 -34 17 -34z" />
    <glyph glyph-name="s_s" unicode="ss" horiz-adv-x="572" 
d="M375 -12c-81 0 -120 34 -133 71c-39 -44 -94 -64 -166 -66h-7c-112 0 -151 57 -151 105c0 32 19 68 56 64c48 72 99 175 128 238c-9 25 -14 51 -14 75c0 68 32 123 70 123c24 0 37 -16 37 -42c0 -35 -20 -88 -60 -153c22 -71 77 -167 77 -247c0 -36 -8 -73 -26 -102
c22 13 38 26 52 46c3 24 17 45 36 50c53 80 112 212 142 283c-11 27 -15 55 -15 80c0 68 31 123 69 123c24 0 35 -16 35 -42c0 -37 -21 -93 -62 -161c19 -79 75 -200 75 -282c0 -34 -8 -68 -23 -96c39 31 53 71 97 148c6 11 12 16 17 16c4 0 6 -4 6 -11c0 -4 -1 -9 -3 -15
c-52 -128 -108 -205 -237 -205zM418 366c-32 -82 -84 -169 -115 -220c20 -11 24 -27 24 -81c0 -32 6 -54 26 -54c32 0 70 39 70 160c0 36 -3 124 -5 195zM107 330c-31 -72 -78 -140 -107 -182c9 -12 9 -30 9 -81c0 -33 11 -51 35 -51c33 0 73 34 73 160c0 35 -6 97 -10 154z
" />
    <glyph glyph-name="o_o" unicode="oo" horiz-adv-x="746" 
d="M43 361c8 18 23 38 50 38c14 61 57 111 123 111c80 0 113 -68 113 -155c0 -43 -8 -90 -22 -136c95 39 95 186 158 180c19 65 61 118 125 118c80 0 112 -69 112 -157c0 -70 -20 -151 -53 -220c36 1 75 18 97 63c5 10 10 14 14 14c5 0 8 -5 8 -12c0 -40 -56 -93 -133 -94
c-40 -72 -94 -124 -152 -124c-80 0 -113 81 -113 173c0 27 2 54 7 80c-21 -26 -48 -46 -81 -54c-39 -104 -109 -193 -185 -193c-80 0 -113 75 -113 167c0 74 19 146 45 201zM584 479c-35 -1 -71 -86 -71 -175c0 -61 18 -122 66 -149c22 75 37 167 37 234c0 51 -9 88 -32 90z
M210 472c-29 0 -59 -44 -69 -100c2 -3 3 -5 3 -7c0 -3 -6 -19 -6 -30c0 -52 22 -102 84 -119c13 57 21 118 21 166c0 52 -9 88 -33 90zM130 38c44 0 72 105 85 149c-55 12 -90 45 -110 87c-13 -46 -22 -97 -22 -140c0 -55 14 -96 47 -96zM501 27c37 0 54 59 67 93
c-54 17 -86 58 -102 108c-7 -35 -12 -71 -12 -103c0 -56 14 -98 47 -98z" />
    <glyph glyph-name="r_r" unicode="rr" horiz-adv-x="662" 
d="M68 130l-16 -106c-3 -22 -20 -33 -37 -33c-19 0 -38 14 -38 44c0 40 32 265 79 421c5 17 21 25 38 25c23 0 49 -16 49 -44c0 -17 -12 -42 -17 -60c36 77 80 133 129 133c37 0 51 -22 51 -65c0 -56 -41 -135 -41 -170c0 -14 8 -22 23 -22c57 0 76 134 103 225
c4 15 15 21 28 21c23 0 53 -22 53 -44c0 -3 -1 -5 -24 -91c39 95 89 168 142 168c38 0 50 -20 50 -51c0 -62 -53 -165 -53 -220c0 -14 8 -22 23 -22c45 0 95 136 110 136c4 0 7 -4 7 -11c0 -51 -76 -164 -144 -164c-40 0 -78 17 -78 77c0 55 50 144 50 175c0 7 -3 12 -10 12
c-31 0 -105 -137 -139 -291c-21 -97 -15 -182 -62 -182c-19 0 -38 14 -38 44c0 33 19 151 33 227c-20 -27 -45 -44 -78 -44c-40 0 -78 20 -78 80c0 55 37 101 37 132c0 7 -3 12 -10 12c-34 0 -116 -143 -142 -312z" />
    <glyph glyph-name="n_n" unicode="nn" horiz-adv-x="774" 
d="M57 19c-3 -17 -20 -26 -39 -26c-22 0 -46 14 -46 41c0 68 48 283 94 435c3 12 14 17 27 17c25 0 58 -20 58 -45c0 -9 -17 -65 -25 -97c42 99 97 178 149 178c59 0 74 -54 74 -91c0 -115 -105 -304 -105 -369c0 -17 9 -23 23 -23c46 0 101 94 119 169c15 77 34 152 63 248
c5 18 21 26 37 26c24 0 49 -17 49 -46c0 -26 -17 -67 -23 -93c41 94 92 167 144 167c59 0 74 -54 74 -91c0 -113 -97 -286 -97 -347c0 -13 5 -21 16 -21c44 0 113 132 125 152c6 10 14 17 19 17c3 0 5 -2 5 -7c0 -4 -1 -10 -4 -18c-12 -36 -85 -204 -172 -204
c-40 0 -78 28 -78 88c0 90 96 271 96 338c0 13 -5 24 -16 24c-37 0 -125 -155 -167 -343c-10 -55 -7 -107 -53 -107c-21 0 -44 15 -44 45c0 3 1 6 7 61c-30 -60 -78 -116 -135 -116c-40 0 -78 28 -78 88c0 90 103 295 103 366c0 14 -5 25 -15 25c-38 0 -137 -178 -170 -359z
" />
    <glyph glyph-name="p_p" unicode="pp" horiz-adv-x="754" 
d="M134 -15c-46 0 -73 12 -88 25c-26 -118 -47 -223 -50 -258c-2 -24 -19 -36 -37 -36c-21 0 -43 17 -43 49c0 33 101 538 140 679c7 25 27 36 46 36c22 0 43 -14 43 -38c0 -4 0 -7 -8 -40c29 63 65 107 108 107c61 0 86 -59 86 -131c0 -118 -63 -282 -146 -351
c91 20 145 77 193 176c0 1 0 1 1 2c23 112 46 213 60 261c6 22 22 31 39 31c24 0 49 -18 49 -39c0 -10 -5 -28 -9 -45c30 63 65 107 107 107c60 0 84 -58 84 -132c0 -124 -67 -300 -152 -374c93 25 151 90 199 189c5 11 11 16 16 16c4 0 7 -4 7 -11c0 -5 -1 -9 -3 -15
c-51 -126 -124 -217 -270 -217c-41 0 -67 8 -82 18c-30 -134 -55 -253 -58 -289c-2 -17 -18 -25 -34 -25c-22 0 -45 13 -45 41c0 26 35 212 73 393c-48 -80 -113 -129 -226 -129zM485 266l-49 -214c10 -2 22 -8 33 -22c70 14 144 251 144 362c0 35 -8 56 -24 56
c-34 0 -72 -78 -104 -182zM92 211c-10 -41 -19 -84 -29 -127c22 7 46 -12 51 -34c62 40 120 231 120 329c0 36 -8 58 -26 58c-39 0 -83 -98 -116 -226z" />
    <glyph glyph-name="c_c" unicode="cc" horiz-adv-x="696" 
d="M200 518c71 0 107 -59 107 -133c0 -56 -15 -108 -71 -108c-20 0 -36 8 -36 25c0 37 55 75 55 130c0 6 -6 57 -23 57c-58 0 -138 -207 -138 -340c0 -68 20 -109 71 -109c79 0 153 105 182 166c11 142 93 302 192 302c22 0 42 -9 54 -19c45 -8 62 -60 62 -114
c0 -75 -20 -145 -72 -145c-24 0 -45 13 -45 32c0 40 61 84 61 167c0 21 -14 39 -24 39c-56 0 -131 -189 -131 -313c0 -67 20 -108 73 -108c79 0 151 99 179 156c5 11 11 15 16 15c4 0 7 -3 7 -10c0 -4 -1 -9 -3 -15c-35 -86 -116 -203 -231 -203c-92 0 -134 69 -139 161
c-42 -80 -116 -168 -213 -168c-98 0 -138 83 -138 186c0 159 92 349 205 349z" />
    <glyph glyph-name="g_g" unicode="gg" horiz-adv-x="758" 
d="M408 -355c-49 0 -102 51 -102 104c0 106 120 165 232 237l27 135c-34 -82 -76 -136 -115 -136c-54 0 -77 59 -77 139c0 7 1 14 1 21c-31 -60 -74 -105 -120 -143c-54 -241 -113 -324 -191 -324c-17 0 -33 5 -53 19c-26 7 -51 41 -51 81c0 98 103 157 202 219
c9 44 19 89 27 134c-35 -84 -80 -137 -117 -137c-54 0 -77 58 -77 136c0 152 88 378 203 378c41 0 63 -43 65 -74c33 0 63 -22 63 -60c0 -49 -40 -208 -55 -301c51 43 94 94 114 163l3 8c30 137 103 278 192 278c43 0 71 -45 75 -74c25 -1 53 -23 53 -59
c0 -30 -36 -202 -61 -326c45 38 85 83 112 140c5 11 12 16 17 16c4 0 7 -3 7 -10c0 -4 -2 -10 -4 -16c-34 -86 -88 -144 -145 -190c-45 -233 -121 -358 -225 -358zM610 364c13 61 14 70 18 76c-6 9 -15 24 -33 24c-69 0 -131 -251 -131 -361c0 -30 5 -50 16 -50
c47 0 96 151 130 311zM228 351c14 69 10 57 12 64c-1 13 -3 35 -28 35c-67 0 -128 -234 -128 -339c0 -30 5 -49 17 -49c47 0 94 129 127 289zM383 -325c89 5 124 180 142 252c-78 -50 -175 -110 -175 -197c0 -27 17 -45 33 -55zM138 -109l7 33c-68 -46 -144 -99 -144 -168
c0 -22 10 -46 38 -46c29 0 65 36 99 181z" />
    <glyph glyph-name="g_y" unicode="gy" horiz-adv-x="746" 
d="M10 -303c-26 7 -51 41 -51 81c0 98 103 157 202 219c9 44 19 89 27 134c-35 -84 -80 -137 -117 -137c-54 0 -77 58 -77 136c0 152 88 378 203 378c41 0 63 -43 65 -74c33 0 63 -22 63 -60c0 -42 -35 -183 -55 -301c51 43 94 94 117 171c17 83 43 175 56 249
c3 20 18 28 36 28c26 0 56 -19 56 -44v-5c-31 -163 -72 -309 -72 -378c0 -26 6 -41 21 -41c53 0 74 126 117 294c0 1 1 3 1 4c17 82 31 142 31 142c4 17 20 25 37 25c25 0 53 -16 53 -39c0 -2 0 -5 -1 -7c-46 -184 -66 -316 -83 -419c40 40 77 88 107 150c5 11 13 18 18 18
c4 0 6 -3 6 -10c0 -4 -1 -10 -4 -18c-37 -93 -87 -158 -140 -209c-41 -232 -138 -352 -218 -352c-12 0 -23 3 -39 14c-26 7 -51 40 -51 81c0 109 108 163 214 238c5 36 11 76 18 118c-25 -59 -58 -98 -103 -98c-82 0 -81 102 -77 162c-29 -59 -71 -104 -115 -141l-28 -116
c-42 -155 -107 -212 -164 -212c-17 0 -33 5 -53 19zM228 351c14 69 10 62 12 64c-1 13 -3 35 -28 35c-67 0 -128 -234 -128 -339c0 -30 5 -49 17 -49c47 0 95 134 127 289zM386 -339c86 0 128 130 138 237c-75 -57 -164 -115 -164 -193c0 -22 12 -35 26 -44zM39 -290
c40 0 78 78 107 216c-69 -47 -145 -101 -145 -170c0 -29 19 -46 38 -46z" />
    <glyph glyph-name="y_g" unicode="yg" horiz-adv-x="746" 
d="M152 456c-30 -161 -69 -293 -69 -356c0 -24 6 -38 21 -38c54 0 74 116 118 285v2l28 128c4 17 20 25 37 25c25 0 53 -16 53 -39c0 -2 0 -5 -1 -7c-44 -178 -63 -300 -79 -397c40 36 77 81 107 144c0 1 1 1 1 2c23 148 102 317 199 317c43 0 71 -45 75 -74
c25 -1 53 -23 53 -59c0 -47 -42 -219 -61 -326c45 38 85 83 112 140c5 11 12 16 17 16c4 0 7 -3 7 -10c0 -4 -2 -10 -4 -16c-34 -86 -88 -144 -145 -190c-47 -220 -121 -358 -225 -358c-26 0 -102 30 -102 104c0 106 120 165 232 237l27 135c-34 -82 -76 -136 -115 -136
c-59 0 -77 66 -77 152c-33 -63 -72 -107 -112 -141c-37 -235 -116 -312 -185 -312c-18 0 -35 5 -56 19c-26 7 -51 41 -51 81c0 109 101 145 199 201l14 94c-26 -54 -60 -85 -102 -85c-60 0 -80 42 -80 105c0 101 50 255 72 378c3 20 18 28 36 28c26 0 56 -19 56 -44v-5z
M598 364c5 23 10 71 18 76c-6 9 -15 24 -33 24c-69 0 -131 -251 -131 -361c0 -30 5 -50 16 -50c47 0 99 155 130 311zM371 -325c89 5 124 180 142 252c-78 -50 -175 -110 -175 -197c0 -27 17 -45 33 -55zM-1 -238c0 -32 20 -46 41 -46c29 0 90 34 105 180l3 29
c-66 -40 -149 -84 -149 -163z" />
    <glyph glyph-name=".notdef" horiz-adv-x="264" 
 />
    <glyph glyph-name="i" unicode="i" horiz-adv-x="194" 
d="M120 561c-31 0 -45 22 -45 48c0 43 35 99 90 99c41 0 59 -24 59 -52c0 -42 -41 -95 -104 -95zM156 464c0 -53 -83 -294 -83 -371c0 -21 5 -33 18 -33c37 0 92 121 103 143c6 11 12 17 17 17c4 0 7 -4 7 -10c0 -5 -1 -10 -4 -17c-14 -35 -72 -199 -156 -199
c-39 0 -72 28 -72 103c0 60 38 245 78 392c5 17 21 26 40 26c25 0 52 -17 52 -51z" />
    <glyph glyph-name="n" unicode="n" horiz-adv-x="387" 
d="M58 24c-4 -22 -22 -33 -41 -33c-21 0 -44 15 -44 45c0 3 1 6 1 9c18 150 41 251 88 411c5 18 21 26 37 26c24 0 49 -17 49 -46c0 -26 -17 -67 -23 -93c41 94 92 167 144 167c59 0 74 -54 74 -91c0 -113 -97 -286 -97 -347c0 -13 5 -21 16 -21c44 0 113 132 125 152
c6 10 14 17 19 17c3 0 5 -2 5 -7c0 -4 -1 -10 -4 -18c-12 -36 -85 -204 -172 -204c-40 0 -78 28 -78 88c0 90 96 271 96 338c0 13 -5 24 -16 24c-37 0 -125 -155 -164 -336l-3 -7c-5 -28 -9 -52 -12 -74z" />
    <glyph glyph-name="a" unicode="a" horiz-adv-x="375" 
d="M324 361c-27 -127 -62 -235 -62 -283c0 -15 5 -25 14 -25c21 0 52 53 99 150c5 11 13 17 18 17c3 0 6 -3 6 -10c0 -4 -1 -10 -4 -17c-14 -35 -77 -199 -154 -199c-31 0 -68 17 -68 92c0 5 0 12 1 19c-33 -68 -71 -111 -103 -111c-54 0 -77 58 -77 136
c0 152 88 378 203 378c40 0 65 -43 67 -74h6c25 0 55 -21 55 -58c0 -5 0 -10 -1 -15zM101 62c37 0 81 95 106 206l32 144c0 17 -3 38 -27 38c-67 0 -128 -234 -128 -339c0 -30 5 -49 17 -49z" />
    <glyph glyph-name="c" unicode="c" horiz-adv-x="348" 
d="M251 429c0 21 -14 39 -24 39c-56 0 -131 -189 -131 -313c0 -67 20 -108 73 -108c79 0 151 99 179 156c5 11 11 15 16 15c4 0 7 -3 7 -10c0 -4 -1 -9 -3 -15c-35 -86 -116 -203 -231 -203c-100 0 -139 82 -139 184c0 149 86 334 193 334c22 0 42 -9 54 -19
c45 -8 62 -60 62 -114c0 -72 -20 -134 -74 -134c-23 0 -45 13 -45 31c0 40 63 74 63 157z" />
    <glyph glyph-name="e" unicode="e" horiz-adv-x="329" 
d="M246 491c42 -5 61 -43 61 -92c0 -96 -72 -231 -178 -231c-12 0 -25 2 -38 6c0 -44 4 -120 66 -120c95 0 146 108 172 149c6 10 11 14 16 14c4 0 7 -4 7 -10c0 -4 -1 -9 -3 -14c-45 -112 -115 -200 -230 -200c-86 0 -121 78 -121 173c0 149 86 342 191 342
c22 0 45 -7 57 -17zM93 201c3 -1 5 -1 8 -1c59 0 144 158 144 236c0 16 -2 33 -17 33c-57 0 -123 -148 -135 -268z" />
    <glyph glyph-name="S" unicode="S" horiz-adv-x="397" 
d="M171 432c0 -115 154 -153 154 -274c0 -49 -25 -90 -50 -105c-14 -32 -74 -63 -146 -63c-52 0 -99 16 -181 92c-7 7 -11 14 -11 23c0 22 28 45 61 45c68 0 78 -99 193 -99c62 0 78 29 78 52c0 81 -195 144 -195 305c0 124 117 302 207 302c28 0 61 -17 63 -30
c40 -19 52 -59 52 -89c0 -22 -6 -59 -28 -185c-6 -34 -22 -50 -51 -50c-26 0 -49 12 -49 48c0 64 71 156 71 220c0 15 -4 29 -12 42c-71 3 -156 -149 -156 -234z" />
    <glyph glyph-name="l" unicode="l" horiz-adv-x="271" 
d="M207 751c18 0 33 -10 40 -20c26 -15 44 -34 44 -101c0 -138 -76 -397 -197 -385c-8 -51 -13 -96 -13 -127c0 -43 12 -63 40 -63c53 0 115 78 150 148c5 11 11 15 16 15c4 0 7 -4 7 -11c0 -4 -1 -8 -3 -14c-31 -77 -117 -202 -203 -202c-68 0 -91 61 -91 151
c0 57 9 126 23 198c37 200 96 411 187 411zM232 711c-36 -11 -103 -259 -134 -442c81 66 137 282 137 399c0 16 -1 31 -3 43z" />
    <glyph glyph-name="p" unicode="p" horiz-adv-x="377" 
d="M133 -10c-46 0 -73 10 -88 22c-26 -119 -47 -224 -50 -260c-2 -24 -19 -30 -37 -30c-21 0 -43 11 -43 43c0 33 101 538 140 679c7 25 27 36 46 36c22 0 43 -14 43 -38c0 -4 0 -7 -8 -40c29 63 65 107 108 107c61 0 86 -59 86 -131c0 -118 -63 -282 -146 -351
c91 20 145 77 193 176c5 11 11 16 16 16c4 0 7 -4 7 -11c0 -5 -1 -9 -3 -15c-51 -126 -118 -203 -264 -203zM91 211l-33 -145c11 0 24 -6 38 -23c68 12 137 230 137 337c0 36 -8 57 -26 57c-39 0 -83 -98 -116 -226z" />
    <glyph glyph-name="o" unicode="o" horiz-adv-x="373" 
d="M209 472c-34 0 -70 -83 -70 -170c0 -59 18 -118 65 -146c22 71 38 161 38 226c0 52 -9 90 -33 90zM137 42c19 3 38 34 55 79c-53 18 -83 59 -99 107c-7 -32 -11 -65 -11 -94c0 -53 13 -93 46 -93c3 0 6 0 9 1zM393 195c-13 -37 -66 -84 -134 -84
c-39 -69 -92 -118 -149 -118c-80 0 -113 75 -113 167c0 74 19 146 45 201c8 18 25 42 50 38c19 63 60 111 123 111c80 0 113 -68 113 -154c0 -69 -20 -149 -53 -216c36 1 74 18 98 63c6 10 11 17 18 17c3 0 6 -2 6 -7c0 -4 -1 -10 -4 -18z" />
    <glyph glyph-name="b" unicode="b" horiz-adv-x="356" 
d="M98 680c7 27 30 39 52 39s42 -13 42 -37c0 -4 -1 -8 -46 -181c16 6 35 9 56 9c78 0 111 -73 111 -164c0 -69 -19 -149 -52 -215c35 4 71 21 95 72c5 11 12 16 17 16c4 0 7 -4 7 -10c0 -5 -1 -10 -4 -16c-26 -60 -75 -93 -135 -97c-38 -61 -88 -103 -146 -103
c-61 0 -98 50 -98 158c0 47 7 106 22 176c54 252 66 305 79 353zM182 468c-40 0 -74 -78 -74 -165c0 -69 22 -138 81 -162c19 63 31 145 31 211c0 64 -11 114 -38 116zM176 103c-40 11 -72 41 -95 79c-2 -18 -3 -34 -3 -49c0 -56 13 -91 46 -91c19 0 37 24 52 61z" />
    <glyph glyph-name="d" unicode="d" horiz-adv-x="384" 
d="M395 664c0 -65 -135 -452 -135 -568c0 -27 6 -42 20 -42c35 0 77 94 104 149c5 11 13 17 18 17c4 0 6 -4 6 -10c0 -4 -1 -10 -4 -17c-25 -61 -65 -199 -163 -199c-40 0 -63 43 -63 103c0 3 0 9 1 15c-34 -73 -74 -118 -108 -118c-54 0 -77 58 -77 136
c0 152 88 378 203 378c27 0 43 -24 52 -48c21 94 44 184 59 239c4 15 17 22 32 22c25 0 55 -20 55 -57zM210 282c9 43 19 90 30 137c-1 13 -6 31 -28 31c-67 0 -128 -234 -128 -339c0 -30 5 -49 17 -49c40 0 79 100 109 220z" />
    <glyph glyph-name="f" unicode="f" horiz-adv-x="309" 
d="M338 634c0 -239 -157 -448 -253 -452c-8 -41 -17 -83 -26 -132c110 14 198 45 250 153c5 10 11 15 16 15c4 0 7 -4 7 -11c0 -4 -1 -9 -3 -14c-49 -119 -144 -169 -266 -192c36 -17 65 -94 65 -166c0 -67 -26 -129 -98 -129c-60 0 -82 56 -82 145c0 96 25 229 55 371
c59 280 113 527 250 527c24 0 42 -13 46 -29c15 -8 39 -31 39 -86zM293 673c0 23 -1 38 -20 38c-45 0 -105 -175 -182 -496c92 82 202 364 202 458zM24 -263c25 0 48 48 48 114c0 37 -8 80 -27 123c-33 -155 -38 -182 -38 -203s7 -34 17 -34z" />
    <glyph glyph-name="g" unicode="g" horiz-adv-x="379" 
d="M50 -330c-57 0 -102 43 -102 98c0 106 108 159 212 222l28 141c-35 -84 -80 -137 -117 -137c-54 0 -77 58 -77 136c0 152 88 378 203 378c41 0 63 -43 65 -74h7c25 0 56 -21 56 -60c0 -38 -18 -104 -57 -310c44 36 83 81 111 139c5 11 12 16 17 16c4 0 7 -3 7 -10
c0 -4 -2 -10 -4 -16c-36 -89 -90 -150 -146 -196c-41 -196 -107 -327 -203 -327zM227 347l13 68c-1 13 -3 35 -28 35c-67 0 -128 -234 -128 -339c0 -30 5 -49 17 -49c47 0 96 129 126 285zM138 -109l6 30c-71 -47 -154 -100 -154 -175c0 -23 13 -45 36 -45
c32 0 77 41 112 190z" />
    <glyph glyph-name="h" unicode="h" horiz-adv-x="368" 
d="M325 419c0 -111 -83 -284 -83 -349c0 -16 5 -25 18 -25c33 0 66 77 108 158c5 10 13 17 18 17c4 0 6 -3 6 -9c0 -4 -1 -10 -4 -18c-14 -36 -64 -202 -151 -202c-40 0 -78 28 -78 88c0 87 79 272 79 338c0 15 -4 24 -14 24c-29 0 -108 -118 -151 -304
c-23 -108 -20 -146 -60 -146c-19 0 -38 14 -38 44c0 65 70 420 138 649c5 18 21 26 39 26c24 0 50 -16 50 -42c0 -32 -28 -88 -77 -302c36 79 80 137 126 137c59 0 74 -47 74 -84z" />
    <glyph glyph-name="space" unicode=" " horiz-adv-x="207" 
 />
    <glyph glyph-name="j" unicode="j" horiz-adv-x="181" 
d="M-152 -330c-14 0 -42 6 -50 20c-26 7 -52 38 -52 78c0 108 107 149 209 208c38 177 67 365 99 503c5 20 20 29 37 29c26 0 55 -20 55 -49c0 -26 -40 -179 -84 -410c45 38 86 87 119 154c6 11 14 18 20 18c3 0 5 -2 5 -8c0 -4 -1 -11 -5 -20c-41 -97 -96 -160 -153 -206
c-51 -231 -119 -317 -200 -317zM101 561c-31 5 -45 28 -45 55c0 42 35 92 90 92c41 0 58 -26 58 -56c0 -42 -34 -92 -87 -92c-5 0 -11 0 -16 1zM-187 -293c42 -4 87 29 123 184c2 8 4 15 5 23c-70 -43 -150 -88 -150 -164c0 -22 7 -34 22 -43z" />
    <glyph glyph-name="k" unicode="k" horiz-adv-x="355" 
d="M45 17c-2 -15 -12 -21 -24 -21c-21 0 -46 17 -46 41c0 48 67 422 134 647c5 17 19 23 35 23c25 0 54 -17 54 -40c0 -3 0 -5 -1 -8c-22 -70 -48 -164 -71 -258c32 63 70 108 113 108c52 0 74 -43 74 -99c0 -92 -61 -219 -151 -251c34 -89 40 -114 69 -114
c46 0 84 76 124 158c5 11 13 17 19 17c3 0 5 -2 5 -7c0 -4 -1 -10 -4 -18c-32 -82 -86 -204 -170 -204c-73 0 -91 53 -134 163l-1 -1c-13 -63 -22 -112 -25 -136zM230 386c0 29 -9 51 -29 51c-40 0 -87 -104 -120 -236c9 7 20 12 31 12c13 0 25 -6 35 -21
c47 35 83 133 83 194z" />
    <glyph glyph-name="m" unicode="m" horiz-adv-x="564" 
d="M55 24c-3 -19 -21 -29 -40 -29c-20 0 -41 13 -41 39c0 34 40 270 85 422c5 18 21 26 37 26c24 0 49 -17 49 -46c0 -5 0 -10 -11 -48c33 68 73 115 120 115c87 0 80 -81 66 -143c34 82 77 143 124 143c59 0 74 -47 74 -84c0 -111 -85 -291 -85 -357c0 -16 4 -25 17 -25
c43 0 103 145 114 166c5 11 12 17 17 17c4 0 7 -4 7 -11c0 -4 -1 -9 -4 -16c-14 -35 -67 -202 -154 -202c-40 0 -78 28 -78 88c0 87 79 272 79 338c0 15 -4 24 -14 24c-26 0 -90 -100 -133 -262l-34 -157c-4 -18 -22 -28 -41 -28c-23 0 -47 15 -47 47c0 43 69 277 69 363
c0 22 -5 36 -16 36c-46 0 -126 -199 -160 -416z" />
    <glyph glyph-name="E" unicode="E" horiz-adv-x="363" 
d="M306 666c-67 0 -169 -179 -169 -279c0 -33 11 -57 37 -64c8 1 15 2 22 2c21 0 36 -7 36 -20c0 -15 -17 -21 -35 -21c-13 0 -26 2 -37 6c-53 -16 -85 -81 -85 -139c0 -50 24 -93 79 -93c126 0 196 124 209 145c6 10 14 17 19 17c3 0 5 -2 5 -7c0 -4 -1 -10 -4 -18
c-12 -35 -94 -208 -259 -208c-99 0 -143 73 -143 148c0 96 56 157 122 177c-30 20 -53 53 -53 102c0 128 113 296 215 296c23 0 51 -13 59 -24c42 -20 55 -57 55 -99c0 -61 -26 -133 -28 -181c-1 -24 -30 -37 -56 -37c-23 0 -44 10 -44 31c0 72 71 158 71 225
c0 15 -3 28 -11 41h-5z" />
    <glyph glyph-name="C" unicode="C" horiz-adv-x="356" 
d="M278 707c20 0 39 -7 47 -17c35 -17 46 -52 46 -94c0 -77 -39 -177 -40 -229c-1 -25 -26 -37 -51 -37s-49 11 -49 31c0 75 87 197 87 276c0 12 -2 24 -7 34c-105 -2 -226 -285 -226 -466c0 -85 27 -148 96 -148c81 0 135 78 175 146c6 10 12 17 19 17c3 0 5 -2 5 -8
c0 -4 -1 -9 -4 -17c-27 -71 -103 -205 -227 -205c-109 0 -154 98 -154 222c0 210 129 495 283 495z" />
    <glyph glyph-name="r" unicode="r" horiz-adv-x="331" 
d="M68 130l-16 -106c-3 -22 -20 -33 -37 -33c-19 0 -38 14 -38 44c0 70 34 267 79 421c5 17 21 25 38 25c23 0 49 -16 49 -44c0 -17 -12 -42 -17 -60c36 77 80 133 129 133c37 0 51 -22 51 -65c0 -56 -48 -149 -48 -184c0 -14 8 -22 23 -22c33 0 74 73 91 112
c6 15 13 24 19 24c11 0 7 -21 5 -28c-15 -57 -73 -147 -142 -147c-40 0 -78 17 -78 77c0 55 44 122 44 153c0 7 -3 12 -10 12c-34 0 -116 -143 -142 -312z" />
    <glyph glyph-name="u" unicode="u" horiz-adv-x="376" 
d="M147 461c-32 -159 -69 -292 -69 -357c0 -27 7 -42 22 -42c58 0 96 193 141 400c7 33 31 48 55 48c22 0 43 -15 43 -41c0 -40 -84 -320 -84 -389c0 -18 4 -27 13 -27c36 0 97 128 108 150c6 12 12 17 17 17c4 0 7 -3 7 -10c0 -4 -1 -10 -4 -17c-14 -35 -79 -199 -163 -199
c-30 0 -66 16 -68 84c-27 -52 -60 -84 -101 -84c-56 0 -75 43 -75 107c0 97 42 242 62 362c5 31 31 45 54 45c22 0 43 -13 43 -37c0 -3 0 -7 -1 -10z" />
    <glyph glyph-name="y" unicode="y" horiz-adv-x="367" 
d="M50 -330c-49 0 -102 43 -102 98c0 110 106 151 207 213c4 30 9 63 15 98c-26 -54 -60 -85 -102 -85c-60 0 -80 42 -80 105c0 101 50 255 72 378c3 20 18 28 36 28c26 0 56 -19 56 -44c0 -35 -16 -86 -28 -140c-20 -88 -41 -182 -41 -221c0 -24 6 -38 21 -38
c54 0 74 116 118 287l28 128c4 17 20 25 37 25c25 0 53 -16 53 -39c0 -27 -16 -38 -80 -405c40 37 77 83 107 145c5 11 13 18 18 18c4 0 6 -3 6 -10c0 -4 -1 -10 -4 -18c-37 -93 -87 -154 -138 -199c-45 -237 -120 -324 -199 -324zM17 -298c3 -1 6 -1 10 -1
c94 0 112 152 120 218c-71 -45 -157 -93 -157 -173c0 -22 12 -35 27 -44z" />
    <glyph glyph-name="_0000" 
 />
    <glyph glyph-name="v" unicode="v" horiz-adv-x="352" 
d="M147 464c0 -53 -80 -282 -80 -376c0 -29 7 -49 26 -49c31 0 69 90 103 190c-13 22 -19 52 -19 84c0 95 51 211 103 211c18 0 40 -11 40 -57c0 -52 -28 -148 -61 -234c7 -3 17 -5 25 -5c55 0 105 75 128 132c4 11 9 15 13 15s6 -5 6 -12c0 -3 0 -7 -1 -10
c-21 -68 -81 -165 -159 -165c-11 0 -20 1 -29 4c-46 -107 -108 -198 -173 -198c-55 0 -74 60 -74 142c0 113 36 266 60 353c5 17 21 26 40 26c25 0 52 -17 52 -51z" />
    <glyph glyph-name="t" unicode="t" horiz-adv-x="208" 
d="M18 508c15 0 31 0 47 -1c12 45 24 88 37 129c5 17 22 25 41 25c25 0 52 -16 52 -50c0 -25 -15 -69 -26 -109c49 -4 95 -7 95 -21s-37 -24 -110 -32c-38 -132 -85 -287 -85 -359c0 -26 6 -42 21 -42c39 0 90 110 118 155c7 12 12 18 17 18c4 0 7 -4 7 -11
c0 -4 -1 -10 -4 -17c-14 -35 -83 -199 -167 -199c-39 0 -72 28 -72 103c0 66 25 207 60 350l-32 3c-12 1 -17 14 -17 27c0 15 7 31 18 31z" />
    <glyph glyph-name="exclam" unicode="!" horiz-adv-x="315" 
d="M148 225c-5 -15 -15 -22 -22 -22c-8 0 -16 8 -16 24c0 4 0 7 1 11c27 155 68 319 124 495c8 27 32 40 57 40c26 0 51 -16 51 -46c0 -9 -2 -19 -6 -29c-76 -179 -139 -318 -189 -473zM79 -10c-33 0 -61 18 -61 56c0 42 35 92 90 92c41 0 58 -26 58 -56
c0 -42 -34 -92 -87 -92z" />
    <glyph glyph-name="period" unicode="." horiz-adv-x="161" 
d="M73 -10c-31 0 -54 16 -54 50c0 37 31 81 80 81c36 0 51 -23 51 -50c0 -37 -30 -81 -77 -81z" />
    <glyph glyph-name="w" unicode="w" horiz-adv-x="556" 
d="M337 464c0 -63 -80 -271 -80 -376c0 -29 7 -49 26 -49c31 0 69 90 103 190c-13 22 -19 52 -19 84c0 95 51 211 103 211c18 0 40 -11 40 -57c0 -52 -28 -148 -61 -234c7 -3 17 -5 25 -5c55 0 105 75 128 132c4 11 9 15 13 15s7 -3 7 -10c0 -3 -1 -9 -2 -12
c-21 -68 -81 -165 -159 -165c-11 0 -20 1 -29 4c-46 -107 -108 -198 -173 -198c-50 0 -70 49 -73 119c-30 -72 -67 -119 -117 -119c-55 0 -74 60 -74 142c0 113 36 266 60 353c5 17 21 26 40 26c25 0 52 -17 52 -51c0 -72 -80 -263 -80 -376c0 -29 8 -50 26 -50
c67 0 109 294 152 451c5 17 21 26 40 26c25 0 52 -17 52 -51z" />
    <glyph glyph-name="q" unicode="q" horiz-adv-x="385" 
d="M103 62c58 0 106 225 140 340c0 17 -3 48 -29 48c-67 0 -128 -234 -128 -339c0 -30 5 -49 17 -49zM180 -258c-4 -22 -22 -33 -41 -33c-21 0 -44 15 -44 45c0 40 35 210 57 305c-26 -41 -54 -65 -79 -65c-54 0 -77 58 -77 136c0 152 88 378 203 378c44 0 63 -49 63 -80v-4
c5 2 11 3 18 3c23 0 49 -16 49 -45c0 -5 0 -10 -2 -16c-30 -107 -70 -272 -100 -401c44 95 113 148 158 238c5 11 11 15 15 15c5 0 8 -4 8 -12c0 -3 -1 -8 -3 -13c-70 -167 -177 -225 -207 -360c-9 -40 -15 -73 -18 -91z" />
    <glyph glyph-name="_0001" 
 />
    <glyph glyph-name="s" unicode="s" horiz-adv-x="286" 
d="M69 -7c-112 0 -151 57 -151 105c0 31 20 72 56 64c50 76 104 189 133 251c-10 27 -15 54 -15 80c0 67 31 121 69 121c24 0 37 -17 37 -45c0 -37 -21 -95 -63 -162c22 -72 77 -171 77 -251c0 -35 -7 -69 -24 -98c40 30 54 68 98 145c6 11 12 16 17 16c4 0 6 -4 6 -11
c0 -4 -1 -9 -3 -15c-52 -128 -108 -200 -237 -200zM110 339c-32 -74 -81 -147 -111 -191c11 -12 10 -31 10 -81c0 -33 11 -51 35 -51c33 0 73 34 73 160c0 34 -4 102 -7 163z" />
    <glyph glyph-name="z" unicode="z" horiz-adv-x="365" 
d="M20 193c-7 -14 -14 -20 -19 -20c-4 0 -6 3 -6 9c0 5 1 12 5 21c29 72 48 136 66 211c-11 11 -16 24 -16 38c0 28 22 56 43 56c14 0 26 -14 26 -43c70 1 181 47 201 47c22 0 35 -19 35 -41c0 -18 -11 -42 -37 -53l-23 -10c7 -19 10 -39 10 -60c0 -99 -75 -209 -158 -270
c25 -11 43 -29 56 -51c64 44 125 97 162 176c5 11 13 18 19 18c4 0 6 -3 6 -8s-1 -11 -5 -20c-41 -94 -104 -156 -168 -205c2 -12 4 -25 4 -39c0 -92 -65 -280 -183 -280c-16 0 -45 6 -51 18c-26 7 -52 41 -52 81c0 100 98 154 195 213c-4 27 -14 52 -33 67
c-22 -10 -43 -17 -63 -17c-24 0 -37 10 -37 25c0 18 21 39 64 39c11 0 22 -1 32 -2c60 65 124 222 169 305c-29 -7 -60 -11 -88 -11c-26 0 -51 3 -71 9c-25 -80 -42 -120 -83 -203zM125 -109c2 11 4 23 5 35c-70 -49 -153 -106 -153 -180c0 -22 9 -35 24 -44c3 -1 6 -1 9 -1
c32 0 81 40 115 190z" />
    <glyph glyph-name="F" unicode="F" horiz-adv-x="341" 
d="M396 610c-13 -2 -27 -3 -42 -3c-28 0 -57 3 -89 8c4 -4 7 -17 4 -25c-32 -126 -56 -225 -75 -308c111 -3 206 0 206 -14c0 -11 -22 -21 -134 -21c-23 0 -50 0 -80 1c-20 -91 -35 -162 -48 -227c-4 -18 -19 -26 -34 -26c-20 0 -42 14 -42 39c0 57 21 139 -56 218l-59 3
c-28 1 -41 16 -41 31c0 16 14 31 42 31c30 0 55 -11 76 -28c28 -2 53 -3 77 -4c15 81 35 168 70 292c6 21 29 38 51 44c-36 5 -73 9 -111 9c-21 0 -43 -4 -64 -4c-11 0 -16 5 -16 14c0 19 26 52 48 55c27 4 56 5 84 5c51 0 102 -4 151 -4c30 0 59 6 85 6c17 0 25 -20 25 -42
c0 -23 -9 -47 -28 -50zM84 181c3 23 7 46 11 69c-12 0 -26 0 -39 1c12 -20 22 -44 28 -70z" />
    <glyph glyph-name="x" unicode="x" horiz-adv-x="389" 
d="M20 193c-3 -6 -7 -8 -11 -8c-6 0 -11 4 -11 11c0 2 1 4 2 7l110 276c7 18 28 29 47 29c18 0 35 -10 38 -31c7 -48 14 -107 23 -165c19 92 65 196 131 196c27 0 49 -17 49 -41c0 -96 -139 6 -170 -220c17 -102 39 -187 71 -187c25 0 51 64 90 143c6 12 13 17 18 17
c3 0 6 -3 6 -9c0 -5 -1 -11 -4 -18c-31 -74 -69 -202 -142 -202c-47 0 -81 62 -107 146c-19 -70 -60 -147 -133 -147c-27 0 -49 17 -49 40c0 41 25 53 81 58c28 2 72 34 91 85c-17 68 -29 144 -36 212z" />
    <glyph glyph-name="T" unicode="T" horiz-adv-x="333" 
d="M392 610c-15 -3 -32 -4 -49 -4c-23 0 -49 2 -75 4c3 -5 3 -14 1 -20c-72 -288 -104 -438 -131 -569c-4 -18 -19 -26 -34 -26c-20 0 -42 14 -42 39c0 32 44 307 109 543c5 17 18 30 36 38c-30 3 -60 4 -90 4c-28 0 -55 -4 -82 -4c-12 0 -17 7 -17 16c0 23 26 61 48 64
c27 4 56 5 86 5c52 0 106 -4 156 -4c31 0 61 6 87 6c17 0 25 -20 25 -42c0 -23 -9 -47 -28 -50z" />
    <glyph glyph-name="L" unicode="L" horiz-adv-x="378" 
d="M288 691c52 -24 63 -79 63 -141c0 -42 -5 -87 -5 -128c0 -19 3 -37 3 -53c0 -30 -23 -44 -48 -44c-33 0 -53 21 -53 65c0 69 39 162 39 230c0 20 -3 38 -12 53c-4 0 -7 0 -15 -2c-60 -18 -89 -462 -205 -578c35 -6 75 -19 131 -19c90 0 180 108 193 129c5 8 12 13 16 13
s7 -3 7 -9c0 -4 -1 -8 -3 -14c-12 -35 -127 -200 -256 -200c-73 0 -96 21 -134 21c-60 0 -59 -17 -76 -17c-6 0 -10 4 -10 11c0 31 37 65 69 79c105 113 73 617 255 617c21 0 36 -13 41 -13z" />
    <glyph glyph-name="_0002" 
 />
    <glyph glyph-name="A" unicode="A" horiz-adv-x="396" 
d="M-26 179c15 0 36 -1 59 -2c57 107 132 259 200 448l8 53c4 26 26 39 48 39c19 0 37 -11 37 -34c0 -39 -35 -332 -38 -529c-1 -57 5 -94 18 -94c25 0 52 64 90 143c6 12 13 18 18 18c4 0 6 -3 6 -10c0 -4 -1 -11 -4 -18c-30 -74 -68 -202 -149 -202c-41 0 -60 63 -65 153
c-33 -2 -75 -5 -121 -5c-46 -112 -58 -149 -83 -149c-20 0 -44 16 -44 34c0 15 30 62 58 115l-36 2c-18 1 -27 11 -27 20s9 18 25 18zM200 171c-1 13 -1 26 -1 40c0 90 8 194 19 290c-48 -135 -90 -244 -122 -326z" />
    <glyph glyph-name="_0003" horiz-adv-x="447" 
 />
    <glyph glyph-name="H" unicode="H" horiz-adv-x="478" 
d="M351 16c-4 -16 -17 -23 -32 -23c-20 0 -43 15 -43 39c0 25 21 144 35 219c-38 -1 -79 -2 -121 -2c-25 -106 -45 -196 -50 -231c-2 -16 -17 -23 -33 -23c-22 0 -46 13 -46 37c0 54 27 137 -62 221l-53 4c-27 2 -41 16 -41 30c0 15 15 30 43 30c26 0 49 -10 68 -27
c30 -1 60 -1 89 -1c23 123 54 260 99 388c7 19 23 27 41 27c25 0 51 -16 51 -34c0 -19 -60 -199 -96 -379l119 6c24 119 55 247 95 385c5 16 24 23 43 23c24 0 49 -11 49 -31c0 -21 -60 -207 -93 -372c23 1 43 2 60 2c37 0 59 -7 59 -19c0 -14 -9 -23 -130 -30zM83 165
c5 27 9 55 15 85c-16 1 -33 1 -49 1c16 -24 27 -54 34 -86z" />
    <glyph glyph-name="G" unicode="G" horiz-adv-x="456" 
d="M127 -330c-41 0 -86 29 -86 75c0 91 96 151 191 219c17 74 25 109 31 145c-29 -65 -72 -119 -123 -119c-87 0 -124 89 -124 204c0 212 124 513 286 513c20 0 39 -7 47 -17c45 -22 57 -72 57 -127c0 -67 -18 -142 -21 -186c-2 -26 -26 -36 -50 -36c-25 0 -50 11 -50 30
c0 71 60 178 60 254c0 17 -3 33 -10 46c-118 -2 -223 -308 -223 -486c0 -74 17 -126 60 -126c47 0 82 76 110 153c7 15 24 24 41 24c22 0 43 -14 43 -44c0 -19 -15 -94 -24 -141c44 41 84 90 114 152c5 11 12 16 17 16c4 0 7 -3 7 -10c0 -4 -2 -10 -4 -16
c-38 -94 -91 -157 -147 -205l-25 -98c-41 -159 -118 -220 -177 -220zM76 -267c0 -14 8 -32 27 -32c32 0 81 44 114 201c-61 -44 -141 -103 -141 -169z" />
    <glyph glyph-name="M" unicode="M" horiz-adv-x="562" 
d="M172 669c4 26 26 39 48 39c19 0 37 -11 37 -34c0 -69 -23 -268 -20 -510c88 217 145 408 165 479c4 48 16 74 53 74c19 0 37 -11 37 -34c0 -39 -38 -392 -38 -529c0 -57 5 -94 18 -94c25 0 52 64 90 143c6 12 13 18 18 18c4 0 6 -3 6 -10c0 -4 -1 -11 -4 -18
c-30 -74 -68 -202 -149 -202c-51 0 -68 96 -68 222c0 83 8 180 17 270c-35 -124 -89 -291 -144 -434c-7 -19 -29 -29 -50 -29c-18 0 -34 7 -35 25c-3 44 -6 117 -6 203c0 77 2 164 8 250c-75 -261 -135 -447 -153 -485c-5 -10 -12 -14 -21 -14c-17 0 -37 18 -37 39
c0 33 122 225 224 606c0 0 2 10 4 25z" />
    <glyph glyph-name="B" unicode="B" horiz-adv-x="495" 
d="M81 512c-5 -11 -12 -15 -21 -15c-24 0 -56 37 -56 71c0 9 2 17 7 25c42 70 131 113 220 113c123 0 245 -91 245 -230c0 -81 -41 -160 -116 -195c43 -23 63 -64 63 -108c0 -85 -80 -182 -206 -182c-166 0 -261 47 -261 81c0 22 23 45 47 45c21 0 32 -22 58 -45
c69 41 73 339 129 510c5 17 20 24 37 24c27 0 58 -19 58 -44c0 -3 0 -6 -1 -9c-43 -140 -60 -459 -195 -503c28 -21 67 -38 107 -38c82 0 134 90 134 167c0 34 -10 65 -32 86c-8 -1 -16 -2 -24 -2c-22 0 -42 4 -42 17c0 15 19 21 39 21c10 0 18 -1 27 -2
c49 35 87 129 87 220c0 42 -8 85 -26 120l-1 1c-24 12 -50 17 -75 17c-79 0 -161 -54 -202 -145z" />
    <glyph glyph-name="I" unicode="I" horiz-adv-x="322" 
d="M244 627c0 25 -6 45 -22 52c-68 -3 -169 -188 -169 -300c0 -40 13 -71 46 -80c11 -3 16 -9 16 -14s-6 -10 -19 -10c-84 0 -117 79 -117 139c0 127 111 293 225 293c58 0 108 -33 108 -119c0 -151 -47 -326 -117 -577c-4 -14 -19 -19 -35 -19c-25 0 -53 13 -53 35
c0 31 137 435 137 600z" />
    <glyph glyph-name="_0004" 
 />
    <glyph glyph-name="_0007" 
 />
    <glyph glyph-name="D" unicode="D" horiz-adv-x="494" 
d="M81 512c-5 -11 -12 -15 -21 -15c-24 0 -56 37 -56 71c0 51 110 142 226 142c145 0 245 -132 245 -284c0 -200 -123 -435 -298 -435c-151 0 -221 58 -221 81c0 22 23 45 47 45c21 0 32 -22 58 -45c69 41 73 339 129 510c6 19 25 27 44 27c26 0 53 -15 53 -37
c0 -3 -13 -53 -26 -120c-28 -149 -70 -375 -172 -402c23 -18 59 -37 90 -37c136 0 203 297 203 486c0 64 -8 115 -26 139l-1 1c-24 12 -50 17 -75 17c-79 0 -158 -53 -199 -144z" />
    <glyph glyph-name="J" unicode="J" horiz-adv-x="437" 
d="M72 -22c-11 -17 -15 -34 -15 -51c0 -43 29 -80 66 -80c5 0 11 1 17 3c57 50 113 167 157 412c17 92 28 185 28 260c0 82 -14 148 -60 160c-81 0 -179 -267 -179 -416c0 -59 8 -95 49 -95c47 0 74 40 88 40c4 0 6 -4 6 -8c0 -25 -52 -96 -124 -96c-80 0 -112 68 -112 158
c0 178 127 445 262 445c103 0 158 -92 158 -280c0 -285 -145 -620 -330 -620c-52 0 -85 40 -85 88c0 51 32 108 73 108c5 0 8 -3 8 -9c0 -5 -2 -12 -7 -19z" />
    <glyph glyph-name="_0009" 
 />
    <glyph glyph-name="_0014" 
 />
    <glyph glyph-name="_0015" 
 />
    <glyph glyph-name="N" unicode="N" horiz-adv-x="422" 
d="M134 661c1 29 33 44 60 44c18 0 34 -7 34 -21c0 -33 -4 -65 -4 -97c0 -189 42 -369 67 -474c21 183 46 378 84 567c5 24 29 34 50 34c18 0 33 -7 33 -18c0 -27 -58 -119 -152 -650c0 0 2 -7 2 -14c0 -21 -28 -42 -53 -42c-14 0 -26 7 -31 25c-33 119 -76 296 -88 490
c-26 -174 -44 -280 -107 -492c-4 -14 -25 -21 -44 -21s-35 6 -35 18c0 17 93 136 183 616c0 12 0 23 1 35z" />
    <glyph glyph-name="K" unicode="K" horiz-adv-x="354" 
d="M49 24c-3 -18 -19 -27 -35 -27c-19 0 -40 13 -40 40c0 52 18 126 31 201c-4 5 -6 12 -6 19c0 12 6 24 16 33c25 123 58 262 97 394c5 18 21 26 39 26c24 0 50 -16 50 -42c0 -25 -67 -243 -94 -376c5 -2 8 -4 12 -7c109 142 149 223 228 408c5 11 14 16 24 16
c23 0 51 -23 51 -49c0 -34 -122 -271 -274 -399c58 -71 53 -199 93 -199c34 0 85 83 113 141c4 9 10 13 15 13c4 0 8 -3 8 -10c0 -4 -1 -8 -3 -13c-31 -77 -85 -201 -164 -201c-78 0 -76 103 -121 221c-19 -86 -35 -158 -40 -189z" />
    <glyph glyph-name="_0016" 
 />
    <glyph glyph-name="O" unicode="O" horiz-adv-x="436" 
d="M249 703c138 0 168 -120 168 -230c0 -206 -116 -479 -264 -479c-102 0 -156 101 -156 235c0 69 7 148 76 185c-9 21 -12 44 -12 68c0 105 76 221 188 221zM324 548c0 43 2 98 -36 125c-78 -1 -139 -119 -139 -217c0 -47 14 -89 47 -112c7 -5 10 -10 10 -15
c0 -4 -3 -7 -11 -7c-29 0 -62 20 -80 34l-4 -14c-18 -61 -31 -123 -29 -177c0 -74 17 -131 57 -148c93 1 185 337 185 531z" />
    <glyph glyph-name="_0017" 
 />
    <glyph glyph-name="_0018" 
 />
    <glyph glyph-name="R" unicode="R" horiz-adv-x="437" 
d="M77 510c-5 -11 -12 -15 -21 -15c-24 0 -56 37 -56 71c0 43 94 142 226 142c129 0 232 -111 232 -234c0 -111 -70 -228 -219 -240c47 -69 49 -172 85 -172c34 0 85 83 113 141c4 9 10 13 15 13c4 0 8 -3 8 -10c0 -4 -1 -8 -3 -13c-30 -76 -85 -201 -163 -201
c-76 0 -77 96 -117 209c-22 -78 -40 -144 -45 -177c-3 -18 -19 -27 -35 -27c-19 0 -40 13 -40 40c0 24 21 130 36 194c-9 6 -13 15 -13 24c0 13 9 26 28 32c23 87 53 183 87 299c6 20 25 29 44 29c23 0 46 -12 46 -31c0 -2 0 -5 -1 -7c-25 -93 -58 -203 -86 -303
c6 -3 12 -8 17 -12c102 29 162 139 162 252c0 41 -8 84 -26 123c-24 12 -50 17 -75 17c-79 0 -158 -53 -199 -144z" />
    <glyph glyph-name="P" unicode="P" horiz-adv-x="447" 
d="M81 500c-5 -11 -12 -15 -21 -15c-24 0 -56 37 -56 71c0 44 96 142 226 142c133 0 226 -93 226 -245c0 -136 -83 -283 -265 -283h-11c-16 -71 -29 -130 -34 -161c-2 -11 -13 -16 -26 -16c-22 0 -48 13 -48 34c0 47 11 103 20 156c-21 5 -32 16 -32 24c0 5 5 9 15 9
c6 0 13 -1 22 -4c18 108 44 229 87 374c4 15 16 21 30 21c28 0 64 -24 64 -49c0 -2 0 -5 -1 -7c-29 -106 -61 -232 -87 -339c115 32 193 175 193 304c0 41 -7 81 -23 116c-24 12 -50 17 -75 17c-79 0 -163 -58 -204 -149z" />
    <glyph glyph-name="_0019" 
 />
    <glyph glyph-name="Q" unicode="Q" horiz-adv-x="434" 
d="M313 681c0 0 -7 3 -18 3c-80 0 -174 -190 -174 -409c0 -59 12 -103 42 -113c9 -3 15 -9 15 -14c0 -4 -4 -7 -15 -7c-92 0 -131 98 -131 196c0 200 114 375 233 375c103 0 162 -74 162 -216c0 -199 -114 -474 -306 -490c51 -30 101 -73 203 -73c14 0 19 -6 19 -16
c0 -23 -38 -66 -72 -66c-108 0 -172 137 -250 137c-16 0 -24 9 -24 20c0 13 11 28 31 28c21 0 40 -4 57 -11c155 21 253 374 253 555c0 52 -8 89 -25 101z" />
    <glyph glyph-name="U" unicode="U" horiz-adv-x="543" 
d="M546 657c0 -65 -120 -456 -120 -563c0 -23 4 -34 14 -34c37 0 92 121 103 143c6 11 12 17 17 17c4 0 7 -4 7 -10c0 -5 -1 -10 -4 -17c-14 -35 -72 -199 -156 -199c-39 0 -75 28 -72 114c-25 -65 -59 -118 -106 -118c-50 0 -90 52 -90 139c0 131 105 328 105 496
c0 33 -8 49 -22 54c-68 -3 -169 -188 -169 -300c0 -40 13 -71 46 -80c11 -3 16 -9 16 -14s-6 -10 -19 -10c-84 0 -117 79 -117 139c0 127 111 293 225 293c12 0 23 -3 32 -7c46 -7 80 -41 80 -112c0 -151 -86 -339 -86 -452c0 -47 17 -66 38 -66c38 0 76 135 94 221
c28 136 67 301 92 393c4 16 20 24 37 24c26 0 55 -18 55 -51z" />
    <glyph glyph-name="V" unicode="V" horiz-adv-x="462" 
d="M563 644c-38 -165 -257 -504 -307 -652c-2 -6 -7 -8 -13 -8c-23 0 -64 43 -64 95c0 129 65 370 65 540c0 38 -7 54 -22 60c-68 -3 -169 -209 -169 -333c0 -44 13 -78 46 -87c11 -3 16 -9 16 -14s-6 -10 -19 -10c-84 0 -117 83 -117 150c0 139 111 322 225 322
c59 0 122 -33 122 -119c0 -119 -42 -351 -60 -493c57 149 175 401 206 589c3 16 17 24 35 24c26 0 57 -18 57 -51c0 -4 0 -9 -1 -13z" />
    <glyph glyph-name="W" unicode="W" horiz-adv-x="699" 
d="M744 656c0 -94 -148 -536 -254 -609c-18 -29 -54 -53 -83 -53c-39 0 -75 29 -72 114c-25 -65 -59 -118 -106 -118c-50 0 -90 52 -90 139c0 131 105 328 105 496c0 33 -8 49 -22 54c-68 -3 -169 -188 -169 -300c0 -40 13 -71 46 -80c11 -3 16 -9 16 -14s-6 -10 -19 -10
c-84 0 -117 79 -117 139c0 127 111 293 225 293c58 0 123 -40 123 -125c0 -151 -97 -333 -97 -446c0 -47 17 -66 38 -66c38 0 75 135 94 221c30 136 67 301 92 393c4 16 20 24 37 24c26 0 55 -18 55 -51c0 -4 0 -8 -1 -13c-32 -139 -121 -445 -121 -549c0 -23 7 -37 22 -37
c10 0 19 6 27 13c81 111 143 392 179 613c3 16 17 24 34 24c27 0 58 -18 58 -52z" />
    <glyph glyph-name="X" unicode="X" horiz-adv-x="379" 
d="M154 279c-19 228 -11 365 -10 384c2 30 33 47 58 47c20 0 36 -9 36 -30c0 -39 -1 -91 -1 -152c0 -40 0 -84 2 -130c52 117 106 200 185 301c8 10 20 14 33 14c26 0 55 -17 55 -35c0 -6 -3 -12 -10 -17c-100 -82 -202 -194 -261 -311c8 -189 15 -290 45 -290
c22 0 65 101 93 143c7 11 14 17 18 17c3 0 6 -3 6 -9c0 -5 -1 -11 -4 -18c-31 -74 -69 -202 -142 -202c-50 0 -80 55 -99 234c-41 -80 -87 -147 -148 -225c-8 -10 -19 -14 -30 -14c-23 0 -48 17 -48 33c0 4 2 8 7 12c79 66 157 155 215 248z" />
    <glyph glyph-name="Y" unicode="Y" horiz-adv-x="561" 
d="M233 -240c-40 0 -86 29 -86 75c0 93 90 127 179 166l42 186c-31 -66 -67 -111 -112 -111c-42 0 -77 40 -77 118c0 134 89 345 89 443c0 25 -11 38 -22 42c-68 -3 -169 -188 -169 -299c0 -41 13 -72 46 -81c11 -3 16 -9 16 -14s-6 -10 -19 -10c-84 0 -117 79 -117 139
c0 127 111 293 225 293c12 0 23 -3 32 -7c46 -7 80 -41 80 -112c0 -73 -70 -296 -70 -369c0 -43 10 -65 29 -65c41 0 87 134 118 250c28 123 54 233 69 286c4 15 16 22 29 22c25 0 55 -23 55 -56c0 -4 0 -8 -1 -12c-32 -147 -99 -429 -140 -589c51 33 98 78 132 148
c5 11 12 16 17 16c4 0 7 -3 7 -10c0 -4 -2 -10 -4 -16c-42 -104 -103 -156 -165 -190l-6 -23c-42 -159 -118 -220 -177 -220zM182 -177c0 -16 8 -32 26 -32c31 0 73 36 107 167c-55 -24 -133 -64 -133 -135z" />
    <glyph glyph-name="Z" unicode="Z" horiz-adv-x="378" 
d="M110 232c9 -3 15 -9 15 -14c0 -4 -4 -7 -15 -7c-88 0 -125 82 -125 163c0 146 106 337 242 337c107 0 154 -81 154 -208c0 -162 -85 -369 -223 -417c26 -12 43 -30 53 -52c63 34 125 82 167 169c5 11 12 16 17 16c4 0 7 -3 7 -10c0 -4 -2 -10 -4 -16
c-45 -110 -111 -162 -177 -195c1 -7 1 -14 1 -21c0 -97 -81 -215 -173 -215c-32 0 -85 17 -85 74c0 91 88 126 174 163c-2 32 -11 61 -32 77c-7 -2 -16 -4 -24 -4c-19 0 -29 7 -29 17c0 11 16 15 27 15c13 0 23 -2 34 -4c102 49 178 291 178 451c0 67 -13 119 -44 136
c-1 0 -1 0 -2 1c-85 0 -176 -226 -176 -362c0 -48 11 -85 40 -94zM-1 -177c0 -19 10 -33 28 -33c50 0 98 89 109 169c-58 -24 -137 -64 -137 -136z" />
    <glyph glyph-name="_0020" 
 />
    <glyph glyph-name="question" unicode="?" horiz-adv-x="335" 
d="M17 498c0 26 40 211 180 211c93 0 144 -76 144 -154c0 -155 -161 -248 -183 -377c-3 -17 -15 -24 -27 -24c-22 0 -49 20 -49 39c0 112 166 220 166 378c0 55 -16 117 -52 117c-61 -20 -55 -95 -90 -223c-5 -18 -17 -26 -32 -26c-26 0 -57 25 -57 59zM87 -10
c-25 0 -47 15 -47 43c0 32 27 70 69 70c31 0 44 -20 44 -43c0 -32 -26 -70 -66 -70z" />
    <glyph glyph-name="ampersand" unicode="&#x26;" horiz-adv-x="597" 
d="M353 342c0 43 36 94 86 94c43 0 97 -12 139 -12c32 0 52 15 62 15c8 0 12 -4 12 -12c0 -59 -42 -87 -95 -87c-19 0 -49 3 -71 8c-35 -28 -64 -104 -119 -207c2 -17 4 -39 4 -57c0 -173 -81 -272 -207 -272c-64 0 -134 38 -134 70c0 21 30 43 53 43c39 0 48 -87 122 -89
c61 21 73 102 74 199c-37 -28 -81 -45 -135 -45c-102 0 -158 91 -158 189c0 101 57 209 180 241c-15 41 -25 80 -25 119c0 79 54 171 145 171c17 0 34 -3 40 -11c2 1 4 1 7 1c43 0 77 -60 77 -104c0 -56 -39 -123 -145 -172c28 -68 68 -135 90 -218c29 55 55 111 87 147
c-50 4 -68 -22 -79 -22c-5 0 -10 3 -10 11zM276 92c-12 115 -62 211 -97 297c-62 -38 -95 -124 -95 -199s32 -140 99 -140c37 0 67 16 93 42zM232 571c0 -43 8 -82 22 -119c66 39 88 95 88 145c0 41 -14 80 -23 91c-62 -6 -87 -66 -87 -117z" />
    <glyph glyph-name="at" unicode="@" horiz-adv-x="710" 
d="M265 -58c120 0 151 73 176 73c14 0 26 -16 26 -28c0 -3 0 -6 -2 -8c-44 -50 -93 -67 -151 -67c-172 0 -316 119 -316 321c0 194 139 405 363 405c218 0 312 -162 312 -309c0 -143 -81 -281 -202 -281c-78 0 -112 38 -113 111c-31 -68 -69 -104 -105 -104
c-57 0 -82 58 -82 133c0 136 81 328 193 328c40 0 65 -43 67 -74h6c25 0 55 -21 55 -58c0 -41 -47 -190 -47 -266c0 -27 7 -40 23 -40c53 0 126 148 126 291c0 107 -46 240 -191 240c-200 0 -332 -205 -332 -393c0 -112 48 -219 157 -270c12 -3 24 -4 37 -4zM374 280l32 140
c0 17 -4 38 -28 38c-64 0 -114 -189 -114 -283c0 -31 5 -52 18 -52c39 0 67 60 92 157z" />
    <glyph glyph-name="zero" unicode="0" horiz-adv-x="426" 
d="M284 611c81 0 118 -93 118 -194c0 -206 -96 -422 -232 -422c-107 0 -137 94 -137 196c0 199 93 424 226 424c6 0 16 -1 25 -4zM314 469c0 53 -5 105 -36 121c-72 -9 -157 -268 -157 -449c0 -58 7 -107 37 -121c71 9 156 268 156 449z" />
    <glyph glyph-name="one" unicode="1" horiz-adv-x="277" 
d="M153 15c-3 -17 -19 -24 -36 -24c-25 0 -53 15 -53 42c0 25 43 259 97 457c-19 -32 -46 -70 -88 -110c-5 -5 -11 -7 -16 -7c-12 0 -21 13 -21 25c0 6 3 12 8 17c60 51 92 84 144 174c5 18 20 25 37 25c25 0 54 -16 54 -39c0 -31 -76 -269 -126 -560z" />
    <glyph glyph-name="seven" unicode="7" horiz-adv-x="350" 
d="M292 303c-15 -2 -29 -3 -43 -3c-27 -72 -52 -158 -79 -294c-3 -13 -15 -19 -30 -19c-29 0 -70 23 -70 60c0 43 40 178 91 254c-24 0 -52 -4 -82 -4c-13 0 -18 5 -18 11c0 30 52 36 96 36h31c36 55 75 107 109 166c-9 -2 -19 -3 -29 -3c-48 0 -97 13 -150 13
c-60 0 -66 -24 -80 -24c-6 0 -11 4 -11 13c0 44 37 106 98 106c64 0 123 -24 171 -24c16 0 31 3 44 10c2 13 12 19 20 19c11 0 16 -8 16 -20c0 -18 -11 -43 -32 -63c-27 -78 -53 -134 -78 -196c15 0 30 2 43 2s19 -6 19 -13c0 -10 -14 -25 -36 -27z" />
    <glyph glyph-name="two" unicode="2" horiz-adv-x="370" 
d="M2 45c23 58 276 184 276 459c0 54 -15 81 -27 89h-1c-59 -13 -86 -124 -95 -232c-2 -21 -14 -30 -29 -30c-28 0 -65 30 -65 72c0 90 74 211 185 211c87 0 122 -72 122 -157c0 -211 -206 -339 -277 -410c49 18 89 16 186 51c3 1 7 2 9 2c16 0 22 -16 22 -36
c0 -31 -17 -71 -44 -71c-64 0 -103 18 -145 18c-19 0 -39 -4 -62 -15c-4 -4 -10 -6 -16 -6c-19 0 -40 28 -40 48c0 2 0 5 1 7z" />
    <glyph glyph-name="three" unicode="3" horiz-adv-x="378" 
d="M145 -3c-90 0 -145 59 -145 147c0 56 21 81 65 81c20 0 37 -8 37 -22c0 -18 -14 -55 -14 -107c0 -37 11 -60 37 -73h2c54 2 94 122 94 208c0 30 -5 55 -15 71c-12 -6 -23 -9 -32 -9c-25 0 -36 13 -36 27s13 29 36 29c14 0 27 -2 39 -4c35 45 65 93 97 163
c-5 -1 -11 -1 -17 -1c-44 0 -87 13 -128 13c-56 0 -62 -24 -76 -24c-6 0 -11 4 -11 13c0 44 37 106 98 106c48 0 101 -13 143 -13c33 0 56 17 68 17c8 0 13 -5 13 -14c0 -47 -23 -77 -58 -90c5 -5 8 -13 8 -23c0 -50 -57 -122 -100 -160c47 -25 68 -74 68 -127
c0 -97 -70 -208 -173 -208z" />
    <glyph glyph-name="four" unicode="4" horiz-adv-x="360" 
d="M299 152c-17 -2 -36 -3 -58 -3c-9 -46 -16 -87 -23 -128c-4 -22 -18 -31 -34 -31c-24 0 -52 21 -52 50c0 36 11 77 17 109c-51 0 -102 0 -152 -5c-14 0 -26 12 -26 21c0 4 1 7 5 11c60 51 222 321 275 413c5 18 20 25 37 25c25 0 54 -16 54 -39c0 -2 0 -5 -1 -7
c-45 -171 -72 -286 -91 -378c27 0 51 2 66 2c13 0 19 -6 19 -13c0 -10 -14 -25 -36 -27zM156 190c14 81 31 159 57 261c-43 -83 -106 -195 -162 -264c27 2 65 3 105 3z" />
    <glyph glyph-name="dollar" unicode="$" horiz-adv-x="368" 
d="M160 386c0 -92 143 -132 143 -221c0 -50 -29 -75 -47 -79c-15 -21 -48 -32 -85 -33l-11 -58c-3 -17 -9 -24 -15 -24c-7 0 -13 11 -13 30c0 6 1 12 2 19l5 35c-49 5 -135 34 -135 77c0 23 24 53 48 53c6 0 13 -3 19 -8c47 -43 97 -75 172 -75c6 0 5 8 5 15
c0 55 -184 147 -184 249c0 109 83 207 187 207h6c9 36 16 64 28 64c7 0 12 -9 12 -22s-7 -37 -11 -53l4 -3c49 -23 67 -88 67 -142c0 -38 -3 -74 -36 -74c-24 0 -53 17 -53 41c0 45 31 85 31 120c0 14 -5 28 -17 40c-58 0 -122 -100 -122 -158z" />
    <glyph glyph-name="percent" unicode="%" horiz-adv-x="554" 
d="M56 -2c-12 -11 -22 -18 -29 -17c-4 0 -6 1 -6 5c0 5 4 13 14 25c94 109 232 265 345 489c-26 -15 -58 -22 -88 -23c-4 -99 -68 -223 -167 -223c-70 0 -107 60 -107 132c0 67 43 172 109 172c18 0 32 -8 32 -19c0 -4 -2 -9 -7 -13c-45 -41 -65 -101 -65 -151
c0 -49 19 -88 55 -88c47 0 79 100 79 200c-33 11 -56 33 -56 62c0 28 24 47 49 47c47 0 71 -37 77 -86c6 -1 13 -1 19 -1c37 0 73 14 96 45c14 27 22 62 47 62c15 0 28 -11 28 -26c0 -4 -1 -9 -3 -13c-66 -154 -311 -473 -422 -579zM396 308c4 1 9 2 15 1c3 1 7 2 13 2
c70 0 101 -61 101 -124c0 -91 -61 -198 -163 -198c-71 0 -105 58 -105 125c0 79 48 171 139 194zM412 293c-51 -25 -81 -117 -81 -191c0 -49 14 -89 45 -89c50 0 72 81 72 160c0 58 -12 109 -36 120z" />
    <glyph glyph-name="plus" unicode="+" horiz-adv-x="311" 
d="M161 197c-3 -17 -12 -24 -21 -24c-13 0 -27 14 -27 39c0 26 7 55 12 79c-37 0 -110 -2 -110 18c0 29 57 31 121 31c12 48 27 116 50 116c11 0 22 -13 22 -31c0 -26 -15 -60 -20 -85c47 0 106 4 106 -14c0 -26 -58 -33 -117 -35c-6 -28 -11 -58 -16 -94z" />
    <glyph glyph-name="minus" unicode="&#x2212;" horiz-adv-x="325" 
d="M259 299c-38 -4 -85 -9 -139 -9c-34 0 -105 -1 -105 20c0 33 87 31 165 31c51 0 115 4 115 -17c0 -11 -14 -23 -36 -25z" />
    <glyph glyph-name="numbersign" unicode="#" horiz-adv-x="408" 
d="M252 215c-3 -18 -11 -25 -20 -25c-12 0 -25 14 -25 37c0 2 1 4 1 7l10 77c-8 0 -17 -1 -26 -1c-17 0 -35 1 -52 1c-8 -39 -13 -120 -37 -120c-11 0 -24 14 -24 40s6 55 10 80l-66 3c-19 1 -28 7 -28 15c0 26 38 29 102 29c5 29 11 58 18 87c-27 0 -52 -1 -72 -1
s-29 6 -29 15c0 13 17 28 42 28c13 0 40 -1 68 -1c8 38 23 116 45 116c10 0 18 -11 18 -28c0 -26 -12 -61 -17 -88h84l20 84c4 19 14 28 25 28c10 0 19 -9 19 -24c0 -3 0 -6 -1 -9l-17 -78h10c21 0 39 2 52 2c16 0 23 -5 23 -13c0 -23 -32 -30 -93 -30l-17 -88h15
c21 0 40 1 52 1c15 0 22 -4 22 -12c0 -22 -33 -32 -97 -34zM163 445l-15 -87h79c6 28 11 56 18 87h-82z" />
    <glyph glyph-name="five" unicode="5" horiz-adv-x="369" 
d="M159 -4c-90 0 -150 65 -150 156c0 49 13 73 43 73c28 0 61 -23 61 -46c0 -13 -11 -59 -11 -92c0 -35 10 -53 33 -65c55 0 97 106 97 199c0 73 -26 138 -90 138c-9 0 -17 -1 -24 -3c-12 -32 -28 -53 -51 -53c-11 0 -20 9 -20 21c0 19 14 36 36 48c9 51 20 132 23 219
c0 11 7 16 15 16c10 0 22 -9 22 -24v-13c14 20 34 35 63 35c42 0 53 -5 90 -5c46 0 56 14 69 14c8 0 11 -5 11 -18c0 -67 -35 -92 -81 -92c-47 0 -88 10 -129 10c-9 0 -18 -2 -25 -6c-2 -44 -7 -86 -15 -121c13 3 28 4 43 4c77 0 162 -42 162 -159
c0 -110 -69 -236 -172 -236z" />
    <glyph glyph-name="six" unicode="6" horiz-adv-x="355" 
d="M299 557c-61 -32 -111 -104 -146 -184c21 21 48 35 75 35c77 0 109 -78 104 -167c-7 -115 -75 -247 -188 -247c-102 0 -131 110 -126 202c15 275 205 420 247 420c24 0 46 -24 45 -42c-1 -7 -4 -13 -11 -17zM134 22c63 6 101 115 106 210c4 71 -11 132 -45 132
c-74 0 -98 -154 -102 -224c-3 -64 13 -102 41 -118z" />
    <glyph glyph-name="nine" unicode="9" horiz-adv-x="358" 
d="M70 53c61 32 111 104 146 184c-21 -21 -48 -35 -75 -35c-77 0 -109 78 -104 167c7 115 75 247 188 247c102 0 131 -110 126 -202c-15 -275 -205 -420 -247 -420c-24 0 -46 24 -45 42c1 7 4 13 11 17zM235 588c-63 -6 -101 -115 -106 -210c-4 -71 11 -132 45 -132
c74 0 98 154 102 224c3 64 -13 102 -41 118z" />
    <glyph glyph-name="_0021" horiz-adv-x="382" 
 />
    <glyph glyph-name="_0022" 
 />
    <glyph glyph-name="eight" unicode="8" horiz-adv-x="382" 
d="M229 614c80 0 143 -45 143 -127c0 -67 -45 -141 -119 -164c40 -43 80 -90 80 -156c0 -101 -90 -177 -171 -177c-107 0 -152 67 -152 140c0 75 47 158 121 180c-32 37 -58 78 -58 134c0 86 63 170 156 170zM85 121c0 -30 12 -91 48 -108c63 1 108 61 108 124
c0 61 -46 103 -89 150c-41 -38 -67 -106 -67 -166zM164 476c0 -53 32 -92 69 -132c35 40 61 106 61 162c0 38 -12 70 -41 86c-55 -10 -89 -59 -89 -116z" />
    <glyph glyph-name="parenleft" unicode="(" horiz-adv-x="208" 
d="M63 97c0 -126 25 -154 25 -174c0 -7 -3 -10 -7 -10c-25 0 -73 99 -73 242c0 346 184 582 242 582c4 0 6 -2 6 -5s-2 -7 -6 -12c-106 -112 -187 -408 -187 -623z" />
    <glyph glyph-name="parenright" unicode=")" horiz-adv-x="213" 
d="M146 531c0 127 -26 169 -26 191c0 8 3 13 8 13c27 0 77 -140 77 -275c0 -375 -222 -553 -247 -553c-4 0 -7 3 -7 7c0 8 25 34 54 83c58 99 141 282 141 534z" />
    <glyph glyph-name="_0023" 
 />
    <glyph glyph-name="quotedbl" unicode="&#x22;" horiz-adv-x="298" 
d="M143 497c-6 -16 -16 -24 -28 -24c-18 0 -37 16 -37 45c0 87 10 189 58 189c23 0 50 -16 50 -39c0 -38 -27 -126 -43 -171zM281 497c-6 -16 -17 -24 -29 -24c-18 0 -36 17 -36 46c0 54 2 189 60 189c23 0 47 -16 47 -40c0 -33 -24 -122 -42 -171z" />
    <glyph glyph-name="quotesingle" unicode="'" horiz-adv-x="103" 
d="M92 497c-4 -16 -16 -24 -28 -24c-18 0 -37 16 -37 45c0 87 10 189 58 189c23 0 50 -16 50 -39c0 -28 -31 -126 -43 -171z" />
    <glyph glyph-name="asterisk" unicode="*" horiz-adv-x="298" 
d="M330 485c-33 6 -74 22 -119 43l-29 -105c-6 -21 -14 -30 -22 -30c-12 0 -23 19 -23 46c0 19 6 50 13 82c-38 -18 -92 -44 -114 -44c-7 0 -10 2 -10 6c0 7 13 22 39 37l74 43l-82 44c-22 11 -31 24 -31 32c0 7 7 12 20 12c21 0 69 -21 124 -44c15 62 30 140 51 140
c12 0 23 -18 23 -44c0 -24 -6 -58 -14 -91l90 45c13 7 25 10 33 10c6 0 10 -4 10 -8c0 -15 -54 -51 -116 -87c63 -29 123 -55 123 -78c0 -7 -6 -12 -19 -12c-6 0 -13 1 -21 3z" />
    <glyph glyph-name="comma" unicode="," horiz-adv-x="178" 
d="M157 54c0 -73 -82 -166 -119 -166c-4 0 -6 1 -6 5c0 9 47 69 61 104c-8 -4 -15 -6 -26 -6c-32 0 -46 22 -46 49c0 36 27 81 77 81c44 0 59 -34 59 -67z" />
    <glyph glyph-name="hyphen" unicode="-" horiz-adv-x="298" 
d="M229 247c-29 -6 -47 -8 -73 -8c-16 0 -111 -5 -111 22c0 35 52 38 93 38c20 0 39 -1 61 -1c13 0 27 1 43 1c15 0 22 -6 22 -16c0 -14 -13 -31 -35 -36z" />
    <glyph glyph-name="slash" unicode="/" horiz-adv-x="271" 
d="M10 -2c-8 -15 -17 -23 -22 -23c-4 0 -7 4 -7 10s2 15 8 26c72 142 167 391 281 677c6 16 17 22 28 22c14 0 28 -12 28 -28c0 -4 -1 -8 -3 -12c-66 -154 -143 -337 -313 -672z" />
    <glyph glyph-name="fraction" unicode="&#x2044;" horiz-adv-x="218" 
d="M-42 -30c-10 -15 -21 -22 -27 -22c-4 0 -6 2 -6 6c0 5 3 14 10 25c84 140 215 349 287 641c5 19 17 27 29 27c14 0 27 -11 27 -27c0 -3 0 -5 -1 -8c-39 -163 -230 -517 -319 -642z" />
    <glyph glyph-name="colon" unicode=":" horiz-adv-x="265" 
d="M73 -10c-31 0 -54 16 -54 50c0 37 31 81 80 81c36 0 51 -23 51 -50c0 -37 -30 -81 -77 -81zM140 290c-31 0 -54 16 -54 50c0 37 31 81 80 81c36 0 51 -23 51 -50c0 -37 -30 -81 -77 -81z" />
    <glyph glyph-name="semicolon" unicode=";" horiz-adv-x="264" 
d="M140 290c-31 0 -54 16 -54 50c0 37 31 81 80 81c36 0 51 -23 51 -50c0 -37 -30 -81 -77 -81zM157 54c0 -73 -82 -166 -119 -166c-4 0 -6 1 -6 5c0 9 47 69 61 104c-8 -4 -15 -6 -26 -6c-32 0 -46 22 -46 49c0 36 27 81 77 81c44 0 59 -34 59 -67z" />
    <glyph glyph-name="dotlessi" unicode="&#x131;" horiz-adv-x="194" 
d="M155 449c-27 -130 -82 -288 -82 -356c0 -21 5 -33 18 -33c37 0 92 121 103 143c6 11 12 17 17 17c4 0 7 -4 7 -10c0 -5 -1 -10 -4 -17c-14 -35 -72 -199 -156 -199c-39 0 -72 28 -72 103c0 60 38 245 78 392c5 17 21 26 40 26c25 0 52 -17 52 -51c0 -5 0 -10 -1 -15z" />
    <glyph glyph-name="less" unicode="&#x3c;" horiz-adv-x="330" 
d="M301 473c3 2 6 3 9 3c10 0 16 -12 16 -25c0 -46 -160 -113 -234 -147c65 -32 118 -63 173 -104c7 -5 10 -19 10 -34c0 -23 -8 -50 -22 -50c-16 0 -49 45 -245 122c-11 4 -16 15 -16 27c1 25 19 54 40 65c67 34 193 93 269 143z" />
    <glyph glyph-name="greater" unicode="&#x3e;" horiz-adv-x="379" 
d="M347 260c-182 -88 -265 -146 -278 -146c-11 0 -19 13 -19 27c0 47 162 113 236 145c-64 33 -115 65 -172 104c-8 5 -11 19 -11 34c0 23 8 49 22 49c16 0 137 -90 246 -121c12 -3 17 -14 17 -26c0 -25 -22 -57 -41 -66z" />
    <glyph glyph-name="equal" unicode="=" horiz-adv-x="311" 
d="M258 249c-38 -4 -84 -9 -138 -9c-34 0 -104 -1 -104 21c0 32 67 31 134 31c59 0 144 4 144 -18c0 -11 -14 -23 -36 -25zM77 379c38 3 85 8 139 8c34 0 104 1 104 -19c0 -33 -87 -31 -164 -31c-51 0 -115 -4 -115 17c0 10 14 23 36 25z" />
    <glyph glyph-name="bracketleft" unicode="[" horiz-adv-x="223" 
d="M342 771c0 -34 -44 -43 -103 -43c-16 0 -31 1 -47 2c-72 -274 -139 -656 -167 -805c40 4 70 4 100 4c19 0 27 -9 27 -20c0 -15 -17 -35 -43 -35l-107 -2c-16 0 -23 7 -23 18c0 5 2 11 6 17c29 188 114 595 181 836c-1 2 -2 5 -2 7c0 16 18 35 44 35c10 0 20 -1 30 -1
c27 -1 54 3 82 3c15 0 22 -6 22 -16z" />
    <glyph glyph-name="bracketright" unicode="]" horiz-adv-x="226" 
d="M-102 -112c0 34 44 43 103 43c16 0 31 -1 47 -2c72 274 139 656 167 805c-40 -4 -70 -4 -100 -4c-19 0 -27 9 -27 20c0 15 17 35 43 35l107 2c16 0 23 -7 23 -18c0 -5 -2 -11 -6 -17c-29 -188 -114 -595 -181 -836c1 -2 2 -5 2 -7c0 -16 -18 -35 -44 -35
c-10 0 -20 1 -30 1c-27 1 -54 -3 -82 -3c-15 0 -22 6 -22 16z" />
    <glyph glyph-name="backslash" unicode="\" horiz-adv-x="241" 
d="M124 -31c-27 375 -28 574 -29 741c0 19 14 29 28 29s28 -10 28 -33c-6 -283 -3 -489 -3 -733c0 -23 -4 -33 -11 -33c-6 0 -12 10 -13 29z" />
    <glyph glyph-name="underscore" unicode="_" horiz-adv-x="311" 
d="M273 -68h-303c-16 0 -23 11 -23 23c0 16 12 34 31 34h309c13 0 19 -9 19 -20c0 -17 -13 -37 -33 -37z" />
    <glyph glyph-name="braceleft" unicode="{" horiz-adv-x="258" 
d="M195 631c-14 -95 -28 -236 -154 -275c56 -21 73 -62 73 -110c0 -90 -51 -204 -51 -266c0 -48 22 -76 82 -77c10 0 15 -3 15 -7c0 -9 -23 -16 -51 -16c-68 0 -102 47 -102 116c0 77 47 179 47 243c0 48 -17 86 -67 114c-3 1 -5 3 -5 4c0 4 8 6 19 7
c113 56 125 180 141 303c12 91 52 132 114 132c23 0 82 -11 82 -28c0 -3 -3 -6 -10 -6c-20 0 -37 7 -51 7c-53 0 -68 -38 -82 -141z" />
    <glyph glyph-name="braceright" unicode="}" horiz-adv-x="291" 
d="M67 54c13 94 27 236 153 275c-56 20 -73 61 -73 108c0 90 51 205 51 268c0 48 -21 76 -81 77c-11 0 -16 3 -16 7c0 9 24 16 52 16c68 0 101 -47 101 -116c0 -78 -46 -179 -46 -243c0 -48 17 -87 67 -114c3 -2 4 -4 4 -5c0 -4 -7 -6 -18 -6c-113 -56 -126 -180 -141 -303
c-11 -91 -53 -132 -114 -132c-23 0 -82 10 -82 27c0 4 3 7 10 7c20 0 37 -7 51 -7c53 0 67 37 82 141z" />
    <glyph glyph-name="bar" unicode="|" horiz-adv-x="179" 
d="M54 -51c-2 -9 -7 -13 -14 -13c-12 0 -27 13 -27 33c0 79 102 530 163 767c2 9 7 12 13 12c12 0 26 -13 26 -25c0 -39 -50 -161 -161 -774z" />
    <glyph glyph-name="Euro" unicode="&#x20ac;" horiz-adv-x="520" 
d="M68 329l46 3c38 145 133 282 248 282c18 0 35 -6 44 -15c51 -24 74 -85 74 -144c0 -30 -1 -72 -35 -72c-26 0 -60 22 -60 47c0 43 26 79 26 111c0 13 -4 25 -13 37c-75 0 -152 -118 -189 -241h35c51 0 127 2 127 -19c0 -31 -71 -31 -175 -31c-3 -15 -6 -30 -8 -45l134 -3
c16 0 23 -8 23 -15c0 -30 -68 -29 -159 -33c1 -77 30 -134 102 -134c61 0 109 44 141 92c5 7 11 11 17 11c5 0 10 -4 10 -11c0 -3 -2 -8 -5 -14c-36 -66 -99 -145 -195 -145c-112 0 -159 89 -161 201c-43 0 -88 1 -88 20c0 23 36 30 90 30c2 16 3 31 6 46l-48 2
c-16 1 -23 7 -23 15c0 10 14 23 36 25z" />
    <glyph glyph-name="sterling" unicode="&#xa3;" horiz-adv-x="380" 
d="M30 218c0 13 36 23 54 25c5 122 8 370 145 370c75 0 112 -87 112 -155c0 -31 -1 -72 -35 -72c-26 0 -60 22 -60 47c0 42 25 78 25 110c0 10 -5 43 -22 43c-60 0 -68 -250 -85 -345c15 -1 30 -2 44 -2c28 0 60 13 71 13c4 0 6 -3 6 -6c0 -28 -61 -40 -86 -40
c-14 0 -28 2 -41 4c-11 -50 -27 -90 -55 -115c47 -2 96 -15 135 -15c28 0 50 15 62 15c8 0 12 -4 12 -11c0 -54 -59 -90 -102 -90c-48 0 -67 18 -120 18c-57 0 -68 -24 -80 -24c-6 0 -11 4 -11 13c0 30 20 67 49 83c25 27 32 75 35 134c-15 -1 -33 -9 -43 -9
c-6 0 -10 4 -10 9z" />
    <glyph glyph-name="cent" unicode="&#xa2;" horiz-adv-x="346" 
d="M248 555c11 -5 26 -16 26 -21c32 -24 43 -77 43 -127c0 -61 -9 -113 -39 -113c-23 0 -51 22 -51 48c0 46 42 104 42 147c0 14 -3 33 -22 33c-76 0 -154 -190 -154 -315c0 -67 21 -110 73 -110c38 0 75 24 106 51c7 6 13 8 17 8c6 0 9 -3 9 -9c0 -3 -2 -8 -6 -13
c-37 -44 -84 -84 -140 -92l-9 -56c-2 -9 -5 -13 -8 -13c-8 0 -19 18 -19 39c0 3 1 5 3 29c-75 0 -106 83 -106 170c0 152 86 351 205 351c7 24 13 75 26 75c8 0 17 -8 17 -24c0 -14 -8 -41 -13 -58z" />
    <glyph glyph-name="exclamdown" unicode="&#xa1;" horiz-adv-x="332" 
d="M232 524c5 15 15 22 22 22c8 0 16 -8 16 -24c0 -4 0 -7 -1 -11c-27 -155 -68 -319 -124 -495c-8 -27 -32 -40 -57 -40c-26 0 -51 16 -51 46c0 9 2 19 6 29c76 179 139 318 189 473zM301 759c33 0 61 -18 61 -56c0 -42 -35 -92 -90 -92c-41 0 -58 26 -58 56
c0 42 34 92 87 92z" />
    <glyph glyph-name="yen" unicode="&#xa5;" horiz-adv-x="347" 
d="M23 272l37 3c-10 147 -36 287 -36 305c0 20 28 34 53 34c17 0 32 -7 34 -22c12 -84 21 -218 26 -312h12c47 122 90 245 116 309c8 19 27 27 45 27c19 0 37 -9 37 -25c0 -22 -57 -91 -158 -311l50 -3c19 -1 27 -9 27 -16c0 -25 -48 -29 -101 -31l-24 -45l76 -3
c16 -1 23 -8 23 -15c0 -26 -55 -29 -105 -31c-7 -42 -8 -62 -24 -121c-4 -16 -19 -24 -35 -24c-22 0 -46 15 -46 41c0 44 13 76 19 101c-34 2 -87 1 -87 21c0 11 17 27 42 28l56 3c2 6 3 13 5 21l-2 24c-38 0 -76 -1 -76 17c0 10 14 23 36 25z" />
    <glyph glyph-name="section" unicode="&#xa7;" horiz-adv-x="378" 
d="M179 518c0 -81 174 -125 174 -212c0 -68 -50 -101 -76 -111c18 -20 31 -43 31 -67c0 -67 -66 -113 -89 -124c-16 -11 -40 -16 -65 -16c-77 0 -155 46 -155 90c0 25 30 63 52 63c6 0 11 -3 15 -11c28 -59 74 -100 147 -100c16 0 37 16 37 37c0 93 -221 141 -221 246
c0 63 40 96 81 114c-13 18 -21 36 -21 56c0 73 63 135 151 135c63 0 132 -43 132 -116c0 -24 -7 -47 -31 -47s-55 20 -55 40c0 17 6 32 6 45s-6 56 -25 56c-44 0 -88 -34 -88 -78zM105 361c0 -60 92 -95 155 -150c17 8 35 20 35 44c0 39 -110 90 -169 154
c-10 -9 -21 -21 -21 -48z" />
    <glyph glyph-name="copyright" unicode="&#xa9;" horiz-adv-x="754" 
d="M501 700c160 -45 227 -172 227 -307c0 -194 -139 -405 -364 -405c-33 0 -69 5 -111 17c-155 44 -221 171 -221 306c0 194 138 404 362 404c22 0 79 -5 107 -15zM494 681c-17 2 -34 4 -51 4c-205 0 -339 -197 -339 -384c0 -111 48 -219 157 -278c22 -3 39 -4 55 -4
c206 0 340 197 340 383c0 114 -57 227 -162 279zM487 244c7 6 13 8 17 8c6 0 9 -3 9 -9c0 -3 -2 -8 -6 -13c-42 -49 -95 -94 -161 -94c-88 0 -124 74 -124 165c0 131 76 291 186 291c76 0 104 -76 104 -153c0 -61 -9 -115 -39 -115c-23 0 -51 22 -51 48c0 46 43 105 43 149
c0 16 -2 32 -25 32c-72 0 -136 -146 -136 -251c0 -63 22 -109 77 -109c38 0 75 24 106 51z" />
    <glyph glyph-name="registered" unicode="&#xae;" horiz-adv-x="751" 
d="M394 715c63 0 105 -14 105 -14c141 -30 229 -157 229 -308c0 -194 -139 -405 -364 -405c-33 0 -69 5 -111 17c-155 44 -221 171 -221 306c0 194 138 404 362 404zM494 681c-17 2 -34 4 -51 4c-205 0 -339 -197 -339 -384c0 -111 48 -219 157 -278c22 -3 39 -4 55 -4
c206 0 340 197 340 383c0 112 -49 223 -162 279zM504 230c4 5 8 7 11 7c4 0 8 -4 8 -11c0 -2 -1 -5 -2 -8c-22 -60 -55 -80 -84 -80c-53 0 -71 56 -100 131c-22 -76 -21 -125 -52 -125c-19 0 -42 11 -42 30c0 61 56 245 85 343c3 11 16 15 29 15c22 0 47 -11 47 -25v-3
c-16 -59 -38 -131 -56 -195l11 -3c65 18 103 87 103 159c0 26 -5 53 -16 77c-14 7 -29 10 -43 10c-115 0 -119 -105 -141 -105c-18 0 -48 36 -48 62c0 52 97 83 153 83c33 0 68 -6 95 -29c47 -26 70 -73 70 -122c0 -71 -47 -144 -136 -157c38 -34 49 -86 70 -86
c11 0 24 15 38 32z" />
    <glyph glyph-name="guillemotleft" unicode="&#xab;" horiz-adv-x="516" 
d="M23 321c266 139 259 168 281 168c10 0 17 -11 17 -25c0 -44 -173 -132 -241 -165c70 -43 208 -129 208 -176c0 -29 -19 -62 -36 -62c-20 0 -54 76 -244 177c-12 6 -16 17 -16 29c0 21 14 45 31 54zM216 324c237 131 232 165 258 165c9 0 14 -11 14 -24
c0 -58 -166 -136 -224 -162c67 -33 177 -128 177 -167c0 -26 -25 -60 -44 -60c-22 0 -27 56 -197 170c-12 8 -18 19 -18 32c0 22 17 37 34 46z" />
    <glyph glyph-name="guillemotright" unicode="&#xbb;" horiz-adv-x="544" 
d="M234 60c-4 -3 -7 -4 -10 -4c-10 0 -17 11 -17 24c0 46 171 131 241 166c-72 43 -209 129 -209 176c0 28 20 62 37 62c3 0 6 -1 9 -4c72 -70 152 -132 235 -173c11 -6 16 -17 16 -29c0 -27 -21 -54 -40 -60c-67 -33 -186 -99 -262 -158zM64 60c-4 -3 -7 -4 -10 -4
c-9 0 -15 11 -15 24c0 57 165 134 225 162c-72 40 -135 92 -172 150c-3 5 -5 11 -5 17c0 26 24 59 43 59c5 0 9 -1 12 -5c62 -73 103 -117 186 -164c12 -7 17 -20 17 -33c0 -22 -15 -45 -33 -46c-67 -34 -171 -101 -248 -160z" />
    <glyph glyph-name="plusminus" unicode="&#xb1;" horiz-adv-x="307" 
d="M176 269c-3 -17 -12 -24 -21 -24c-13 0 -27 14 -27 39c0 26 7 55 12 79c-37 0 -110 -2 -110 18c0 29 57 31 121 31c12 48 27 116 50 116c11 0 22 -13 22 -31c0 -26 -15 -60 -20 -85c47 0 106 4 106 -14c0 -26 -58 -33 -117 -35c-6 -28 -11 -58 -16 -94zM228 173
c-38 -4 -85 -9 -139 -9c-34 0 -105 -1 -105 20c0 33 87 31 165 31c51 0 115 4 115 -17c0 -11 -14 -23 -36 -25z" />
    <glyph glyph-name="degree" unicode="&#xb0;" horiz-adv-x="216" 
d="M171 613c64 0 94 -59 94 -103c0 -55 -39 -112 -111 -112c-74 0 -110 48 -110 102c0 64 51 113 127 113zM176 588c-40 1 -63 -63 -63 -114c0 -22 6 -50 22 -50c34 0 64 65 64 115c0 23 -7 43 -23 49z" />
    <glyph glyph-name="trademark" unicode="&#x2122;" horiz-adv-x="374" 
d="M208 673c0 -30 -18 -32 -39 -32c-10 0 -30 1 -40 2c1 -3 1 -7 0 -12c-14 -61 -29 -109 -45 -185c-2 -11 -11 -16 -21 -16c-12 0 -24 9 -24 25c0 41 21 127 32 168c3 9 11 17 21 22c-21 2 -43 0 -68 0c-7 0 -10 4 -10 10c0 38 46 45 96 45c29 0 58 -2 81 -2
c11 0 17 -11 17 -25zM227 674c1 16 15 24 28 24c12 0 23 -7 23 -20c0 -53 -9 -106 -5 -159c33 79 59 130 67 147l2 10c2 15 16 23 28 23s22 -7 22 -20c0 -34 -4 -71 -4 -107c0 -90 11 -108 11 -115c0 -18 -24 -25 -40 -25c-8 0 -14 2 -15 8c-8 38 -11 79 -11 120
c0 15 0 31 1 46l-56 -145c0 -18 -13 -28 -26 -28c-35 0 -31 108 -30 160c-19 -70 -46 -161 -61 -161c-10 0 -22 10 -22 23c0 4 1 7 3 11c47 82 63 120 85 208z" />
    <glyph glyph-name="twosuperior" unicode="&#xb2;" horiz-adv-x="326" 
d="M147 424c77 8 130 37 153 37c14 0 20 -10 20 -23c0 -61 -68 -60 -125 -60c-18 0 -53 -2 -65 4c-22 -2 -42 28 -42 48c0 60 197 114 197 215c0 22 -10 34 -23 34c-29 0 -61 -37 -62 -99c0 -20 -9 -28 -21 -28c-22 0 -52 27 -52 55c0 60 60 102 108 102
c50 0 113 -46 113 -103c0 -121 -167 -129 -201 -182z" />
    <glyph glyph-name="_0024" 
 />
    <glyph glyph-name="perthousand" unicode="&#x2030;" horiz-adv-x="849" 
d="M705 308c4 1 7 1 15 1c72 13 114 -51 114 -122c0 -91 -61 -198 -163 -198c-71 0 -105 57 -105 124c0 37 10 76 30 110c-11 -4 -23 -7 -35 -9c1 -97 -51 -226 -165 -226c-70 0 -107 60 -107 132c0 67 43 172 109 172c18 0 32 -8 32 -19c0 -4 -2 -9 -7 -13
c-45 -41 -66 -104 -66 -155c0 -49 19 -88 54 -88c60 0 81 138 80 204c-28 10 -48 27 -48 49c0 18 14 33 40 33c40 0 64 -25 74 -61c58 0 90 52 148 66zM85 -2c-12 -12 -23 -17 -29 -17c-4 0 -6 1 -6 5c0 5 4 13 14 25c94 109 232 265 345 489c-26 -15 -58 -22 -88 -23
c-4 -99 -68 -223 -167 -223c-70 0 -107 60 -107 132c0 67 43 172 109 172c18 0 32 -8 32 -19c0 -8 -11 -15 -23 -29c-21 -24 -49 -63 -49 -135c0 -49 19 -88 55 -88c47 0 79 100 79 188v12c-33 11 -56 33 -56 62c0 28 24 47 49 47c47 0 71 -37 77 -86c6 -1 13 -1 19 -1
c37 0 73 14 96 45c14 27 22 62 47 62c15 0 28 -11 28 -26c0 -4 -1 -9 -3 -13c-66 -154 -311 -473 -422 -579zM685 13c62 0 72 112 72 160s-9 93 -25 114c-7 -15 -27 -33 -53 -33c-26 -34 -41 -96 -41 -149c0 -50 14 -92 47 -92z" />
    <glyph glyph-name="brokenbar" unicode="&#xa6;" horiz-adv-x="187" 
d="M138 410c-2 -7 -7 -10 -12 -10c-10 0 -23 9 -23 24c0 13 28 148 65 312c2 9 8 12 15 12c14 0 32 -13 32 -26c0 -17 -18 -57 -77 -312zM73 311c2 8 8 12 15 12c15 0 33 -13 33 -26c0 -16 -23 -117 -71 -348c-2 -9 -7 -13 -13 -13c-10 0 -24 13 -24 32c0 21 35 222 60 343z
" />
    <glyph glyph-name="threesuperior" unicode="&#xb3;" horiz-adv-x="309" 
d="M190 376c-55 0 -115 26 -115 83c0 29 28 47 54 47c15 0 27 -6 27 -21c0 -11 -2 -22 -2 -30c0 -27 7 -43 23 -54c26 2 49 44 49 80c0 8 -1 15 -3 22c-24 0 -36 7 -36 18c0 9 8 17 19 15l11 -2c21 15 35 56 35 93c0 18 -6 56 -22 56c-28 0 -48 -42 -48 -87
c0 -19 -10 -27 -22 -27c-21 0 -48 22 -48 48c0 48 56 90 108 90c53 0 105 -39 105 -98c0 -38 -21 -76 -55 -94c21 -15 31 -35 31 -56c0 -41 -39 -83 -111 -83z" />
    <glyph glyph-name="onequarter" unicode="&#xbc;" horiz-adv-x="556" 
d="M514 76c-12 -2 -22 -2 -32 -3l-16 -66c-2 -10 -14 -15 -26 -15c-20 0 -45 12 -45 32c0 8 10 50 10 50c-29 0 -57 -4 -90 -4c-14 0 -29 6 -29 19c0 3 1 7 5 11c43 44 76 127 86 210c1 9 8 13 17 13c16 0 34 -11 34 -22c0 -31 -26 -140 -77 -199c19 2 39 3 60 3
c15 67 33 131 53 198c3 10 13 15 24 15c20 0 43 -13 43 -30s-27 -129 -41 -185c13 0 24 2 37 2c14 0 20 -4 20 -10c0 -7 -12 -17 -33 -19zM153 306c-3 -13 -15 -18 -28 -18c-21 0 -45 13 -45 33c0 18 33 148 48 203c-16 -27 -31 -48 -46 -48c-12 0 -20 13 -20 23
c0 5 2 9 5 11c28 19 55 31 83 91c0 12 15 18 25 18c20 0 43 -13 43 -30c0 -35 -56 -244 -65 -283zM110 -30c-10 -15 -21 -22 -27 -22c-4 0 -6 2 -6 6c0 5 3 14 10 25c84 140 215 349 287 641c5 19 17 27 29 27c14 0 27 -11 27 -27c0 -3 0 -5 -1 -8
c-39 -163 -230 -517 -319 -642z" />
    <glyph glyph-name="onehalf" unicode="&#xbd;" horiz-adv-x="547" 
d="M153 306c-3 -13 -15 -18 -28 -18c-21 0 -45 13 -45 33c0 18 33 148 48 203c-16 -27 -31 -48 -46 -48c-12 0 -20 13 -20 23c0 5 2 9 5 11c28 19 55 31 83 91c0 12 15 18 25 18c20 0 43 -13 43 -30c0 -35 -56 -244 -65 -283zM110 -30c-10 -15 -21 -22 -27 -22
c-4 0 -6 2 -6 6c0 5 3 14 10 25c84 140 215 349 287 641c5 19 17 27 29 27c14 0 27 -11 27 -27c0 -3 0 -5 -1 -8c-39 -163 -230 -517 -319 -642zM347 42c77 8 130 37 153 37c14 0 20 -10 20 -23c0 -61 -68 -60 -125 -60c-18 0 -53 -2 -65 4c-22 -2 -42 28 -42 48
c0 60 197 114 197 215c0 22 -10 34 -23 34c-29 0 -61 -37 -62 -99c0 -20 -9 -28 -21 -28c-22 0 -52 27 -52 55c0 60 60 102 108 102c50 0 113 -46 113 -103c0 -121 -167 -129 -201 -182z" />
    <glyph glyph-name="threequarters" unicode="&#xbe;" horiz-adv-x="531" 
d="M494 76c-12 -2 -22 -2 -32 -3l-16 -66c-2 -10 -14 -15 -26 -15c-20 0 -45 12 -45 32c0 8 10 50 10 50c-29 0 -57 -4 -90 -4c-14 0 -29 6 -29 19c0 3 1 7 5 11c43 44 76 127 86 210c1 9 8 13 17 13c16 0 34 -11 34 -22c0 -31 -26 -140 -77 -199c19 2 39 3 60 3
c15 67 33 131 53 198c3 10 13 15 24 15c20 0 43 -13 43 -30s-27 -129 -41 -185c13 0 24 2 37 2c14 0 20 -4 20 -10c0 -7 -12 -17 -33 -19zM110 -30c-10 -15 -21 -22 -27 -22c-4 0 -6 2 -6 6c0 5 3 14 10 25c84 140 215 349 287 641c5 19 17 27 29 27c14 0 27 -11 27 -27
c0 -3 0 -5 -1 -8c-39 -163 -230 -517 -319 -642zM138 284c-55 0 -115 26 -115 83c0 29 28 47 54 47c15 0 27 -6 27 -21c0 -11 -2 -22 -2 -30c0 -27 7 -43 23 -54c26 2 49 44 49 80c0 8 -1 15 -3 22c-24 0 -36 7 -36 18c0 9 8 17 19 15l11 -2c21 15 35 56 35 93
c0 18 -6 56 -22 56c-28 0 -48 -42 -48 -87c0 -19 -10 -27 -22 -27c-21 0 -48 22 -48 48c0 48 56 90 108 90c53 0 105 -39 105 -98c0 -38 -21 -76 -55 -94c21 -15 31 -35 31 -56c0 -41 -39 -83 -111 -83z" />
    <glyph glyph-name="paragraph" unicode="&#xb6;" horiz-adv-x="445" 
d="M288 -5c-2 -11 -8 -15 -15 -15c-12 0 -29 14 -29 34c0 2 0 4 1 6c22 124 51 302 112 529c-19 0 -37 -2 -56 -6c3 -5 7 -10 5 -21c-58 -271 -79 -366 -108 -517c-2 -11 -9 -16 -16 -16c-13 0 -28 14 -28 34c0 2 0 4 1 7c30 184 40 252 109 500
c-107 -28 -182 -114 -182 -262c0 -79 36 -113 36 -131c0 -3 -1 -4 -3 -4c-24 0 -106 70 -106 200c0 140 117 275 265 275c30 0 62 -6 94 -18c5 17 14 24 23 24c13 0 26 -14 26 -34c0 -4 -1 -8 -2 -13c20 -9 24 -17 24 -23c0 -5 -4 -9 -11 -9c-3 0 -7 0 -21 5
c-61 -220 -101 -420 -119 -545z" />
    <glyph glyph-name="florin" unicode="&#x192;" horiz-adv-x="313" 
d="M11 329l71 5c36 163 76 280 156 280c73 0 102 -91 102 -154c0 -37 -3 -73 -36 -73c-24 0 -53 17 -53 41c0 45 30 86 30 120c0 10 -3 35 -18 35c-42 0 -63 -97 -91 -246c40 -1 142 6 142 -19c0 -28 -57 -31 -151 -31c-39 -207 -89 -460 -227 -460c-69 0 -133 38 -133 93
c0 25 22 39 46 39c17 0 33 -8 35 -26c5 -47 17 -67 54 -89c65 37 95 250 134 443c-57 0 -97 -2 -97 17c0 10 14 23 36 25z" />
    <glyph glyph-name="dagger" unicode="&#x2020;" horiz-adv-x="255" 
d="M212 408c-23 -5 -39 -7 -57 -8c-40 -191 -72 -366 -88 -451c-2 -9 -7 -13 -14 -13c-12 0 -27 13 -27 33c0 46 46 262 82 431l-52 3c-19 1 -28 9 -28 19c0 36 52 37 94 37c22 96 45 191 67 277c2 9 7 12 13 12c12 0 26 -13 26 -25c0 -27 -35 -140 -60 -264
c17 -1 35 1 57 1c15 0 22 -6 22 -16c0 -14 -13 -31 -35 -36z" />
    <glyph glyph-name="daggerdbl" unicode="&#x2021;" horiz-adv-x="255" 
d="M227 349c-25 -3 -53 -6 -84 -7l-76 -393c-2 -9 -7 -13 -14 -13c-12 0 -27 13 -27 33c0 33 31 185 69 371c-35 0 -110 -1 -110 21c0 29 58 31 121 31c4 15 7 30 10 45c-47 0 -106 -3 -106 17c0 28 60 28 118 32c15 68 54 262 74 262c12 0 26 -13 26 -25
c0 -16 -25 -96 -54 -236c7 0 115 5 115 -19c0 -28 -62 -31 -126 -31l-10 -45l87 -3c16 -1 23 -8 23 -15c0 -11 -14 -23 -36 -25z" />
    <glyph glyph-name="quotesinglbase" unicode="&#x201a;" horiz-adv-x="178" 
d="M157 54c0 -73 -82 -166 -119 -166c-4 0 -6 1 -6 5c0 9 47 69 61 104c-8 -4 -15 -6 -26 -6c-32 0 -46 22 -46 49c0 36 27 81 77 81c44 0 59 -34 59 -67z" />
    <glyph glyph-name="quotedblbase" unicode="&#x201e;" horiz-adv-x="327" 
d="M157 54c0 -73 -82 -166 -119 -166c-4 0 -6 1 -6 5c0 9 47 69 61 104c-8 -4 -15 -6 -26 -6c-32 0 -46 22 -46 49c0 36 27 81 77 81c44 0 59 -34 59 -67zM307 54c0 -73 -82 -166 -119 -166c-4 0 -6 1 -6 5c0 9 47 69 61 104c-8 -4 -15 -6 -26 -6c-32 0 -46 22 -46 49
c0 36 27 81 77 81c44 0 59 -34 59 -67z" />
    <glyph glyph-name="ellipsis" unicode="&#x2026;" horiz-adv-x="483" 
d="M59 -9c-28 4 -40 25 -40 49c0 37 31 81 80 81c36 0 51 -23 51 -50c0 -37 -30 -81 -77 -81c-4 0 -10 0 -14 1zM220 -9c-31 4 -45 27 -45 52c0 38 30 82 79 82c37 0 53 -25 53 -53c0 -38 -29 -82 -73 -82c-4 0 -10 0 -14 1zM395 -10c-29 0 -59 21 -59 55c0 47 46 77 85 77
c27 0 51 -15 51 -51c0 -37 -30 -81 -77 -81z" />
    <glyph glyph-name="oe" unicode="&#x153;" horiz-adv-x="555" 
d="M42 361c8 18 21 32 36 37c18 62 65 112 137 112c51 0 79 -39 92 -89c30 50 66 87 108 87c22 0 45 -7 57 -17c42 -5 63 -40 63 -86c0 -87 -75 -215 -218 -248c1 -58 20 -103 66 -103c94 0 146 108 172 149c7 10 11 14 16 14c4 0 7 -4 7 -10c0 -4 -1 -9 -3 -14
c-45 -112 -98 -200 -213 -200c-62 0 -107 49 -113 113c-38 -79 -81 -113 -139 -113c-80 0 -113 75 -113 167c0 74 19 146 45 201zM209 472c-37 0 -81 -86 -81 -168c0 -57 22 -109 83 -125c19 66 31 144 31 203c0 52 -9 90 -33 90zM318 188c97 41 157 166 157 238
c0 21 -4 43 -21 43c-59 0 -128 -160 -136 -281zM203 153c-51 10 -88 41 -109 80c-7 -34 -12 -69 -12 -99c0 -53 13 -93 46 -93c28 0 52 40 75 112z" />
    <glyph glyph-name="ae" unicode="&#xe6;" horiz-adv-x="525" 
d="M442 491c42 -5 61 -43 61 -92c0 -96 -72 -231 -178 -231c-12 0 -25 2 -38 6c0 -44 4 -120 66 -120c95 0 146 108 172 149c6 10 11 14 16 14c4 0 7 -4 7 -10c0 -4 -1 -9 -3 -14c-45 -112 -115 -200 -230 -200c-75 0 -112 59 -120 138c-25 -83 -60 -137 -124 -137
c-54 0 -77 58 -77 136c0 152 88 378 203 378c50 0 69 -46 72 -83c32 49 72 83 116 83c22 0 45 -7 57 -17zM103 63c44 0 75 88 103 206c10 42 24 84 42 121c-6 18 -7 60 -36 60c-67 0 -129 -223 -129 -330c0 -35 6 -57 20 -57zM289 201c64 -11 152 155 152 235
c0 16 -2 33 -17 33c-57 0 -123 -148 -135 -268z" />
    <glyph glyph-name="ordfeminine" unicode="&#xaa;" horiz-adv-x="375" 
d="M351 468c2 3 5 4 8 4c7 0 14 -5 14 -12c0 -2 -1 -5 -2 -7c-25 -40 -57 -78 -92 -78c-25 0 -47 12 -52 61c-22 -41 -49 -61 -73 -61c-40 0 -57 43 -57 98c0 98 54 233 134 233c37 0 50 -40 51 -68h4c20 0 44 -17 44 -49c0 -5 -1 -11 -2 -17c-18 -73 -28 -108 -28 -126
c0 -10 4 -18 12 -18c10 0 25 15 39 40zM244 548c4 17 8 40 14 68c-5 12 -5 37 -20 37c-31 0 -64 -130 -64 -188c0 -20 3 -28 12 -28c12 0 38 19 58 111z" />
    <glyph glyph-name="ordmasculine" unicode="&#xba;" horiz-adv-x="367" 
d="M249 707c6 0 10 -1 14 -3c3 1 7 2 11 2c49 0 71 -58 71 -114c0 -95 -56 -215 -149 -215c-61 0 -87 55 -87 120c0 99 56 210 140 210zM204 410c35 0 65 133 65 216c0 26 -3 47 -10 55c-32 -10 -78 -146 -78 -222c0 -28 7 -49 23 -49z" />
    <glyph glyph-name="OE" unicode="&#x152;" horiz-adv-x="645" 
d="M479 321c10 0 19 -4 19 -16c0 -21 -43 -17 -55 -15c-53 -15 -85 -81 -85 -139c0 -50 23 -93 78 -93c126 0 196 124 209 145c6 10 14 17 19 17c3 0 5 -2 5 -7c0 -4 -1 -10 -4 -18c-12 -35 -75 -208 -240 -208c-65 0 -126 43 -130 111c-30 -65 -83 -102 -161 -102
c-89 0 -137 117 -137 233c0 69 7 148 76 185c-9 21 -12 44 -12 68c0 105 76 221 188 221c11 0 22 -1 43 -6c41 0 97 -53 97 -144c0 -13 0 -28 -3 -42c28 115 107 199 161 199c26 0 59 -16 62 -29c40 -20 52 -55 52 -96c0 -60 -26 -131 -28 -179c-2 -34 -27 -50 -53 -50
c-24 0 -47 15 -47 44c0 73 71 158 71 224c0 15 -4 29 -12 42c-72 0 -173 -179 -173 -279c0 -43 17 -66 60 -66zM324 548c0 64 -10 112 -36 125c-78 2 -139 -116 -139 -216c0 -47 14 -90 47 -113c7 -5 10 -10 10 -15c0 -4 -3 -7 -11 -7c-29 0 -62 20 -80 34l-4 -14
c-18 -61 -29 -123 -29 -177c0 -74 17 -131 57 -148c93 1 185 337 185 531zM394 311c-24 8 -29 39 -30 47c-1 -5 -5 -39 -21 -82c4 7 16 23 51 35z" />
    <glyph glyph-name="circumflex" unicode="&#x2c6;" horiz-adv-x="315" 
d="M49 575c0 10 14 8 107 145c8 12 30 22 49 22c11 0 20 -3 23 -12c45 -133 75 -138 75 -153c0 -14 -29 -29 -51 -29c-36 0 -70 84 -83 124c-17 -28 -66 -111 -98 -111c-11 0 -22 6 -22 14z" />
    <glyph glyph-name="asciicircum" unicode="^" horiz-adv-x="315" 
d="M49 575c0 10 14 8 107 145c8 12 30 22 49 22c11 0 20 -3 23 -12c45 -133 75 -138 75 -153c0 -14 -29 -29 -51 -29c-36 0 -70 84 -83 124c-17 -28 -66 -111 -98 -111c-11 0 -22 6 -22 14z" />
    <glyph glyph-name="endash" unicode="&#x2013;" horiz-adv-x="340" 
d="M269 247c-39 -4 -79 -7 -130 -7c-30 0 -94 -5 -94 21c0 36 50 38 102 38c28 0 57 -1 85 -1c17 0 34 1 50 1s23 -7 23 -18c0 -14 -14 -32 -36 -34z" />
    <glyph glyph-name="emdash" unicode="&#x2014;" horiz-adv-x="438" 
d="M369 247c-30 -6 -90 -7 -152 -7c-52 0 -105 1 -144 2c-16 0 -22 9 -22 19c0 51 107 39 235 39c67 0 119 6 119 -19c0 -14 -14 -30 -36 -34z" />
    <glyph glyph-name="currency" unicode="&#xa4;" horiz-adv-x="429" 
d="M140 456c22 14 74 38 106 23c24 8 55 -6 75 -21l48 55c4 5 8 7 11 7c8 0 13 -9 13 -19c0 -6 -2 -12 -6 -16l-43 -51c16 -24 24 -55 24 -88c0 -55 -23 -114 -69 -152c19 -31 50 -72 50 -83c0 -6 -5 -10 -13 -10c-24 0 -47 40 -68 73c-26 -13 -57 -21 -93 -21
c-22 0 -41 4 -57 12l-54 -73c-4 -5 -8 -7 -12 -7c-7 0 -13 8 -13 19c0 20 28 54 49 82c-24 25 -35 60 -35 99c0 53 21 110 61 150c-42 73 -43 77 -43 81c0 7 6 11 14 11s17 -5 22 -13zM185 186c57 0 94 92 94 171c0 44 -12 84 -38 101c-65 -19 -107 -119 -107 -193
c0 -44 16 -79 51 -79z" />
    <glyph glyph-name="bullet" unicode="&#x2022;" horiz-adv-x="309" 
d="M134 261c-42 0 -78 23 -78 72c0 54 45 118 116 118c52 0 74 -34 74 -73c0 -53 -44 -117 -112 -117z" />
    <glyph glyph-name="quoteleft" unicode="&#x2018;" horiz-adv-x="178" 
d="M22 584c0 73 82 166 119 166c4 0 6 -1 6 -5c0 -9 -47 -69 -61 -104c8 4 15 6 26 6c32 0 46 -22 46 -49c0 -36 -27 -81 -77 -81c-44 0 -59 34 -59 67z" />
    <glyph glyph-name="quoteright" unicode="&#x2019;" horiz-adv-x="178" 
d="M174 654c0 -73 -82 -166 -119 -166c-4 0 -6 1 -6 5c0 9 47 69 61 104c-8 -4 -15 -6 -26 -6c-32 0 -46 22 -46 49c0 36 27 81 77 81c44 0 59 -34 59 -67z" />
    <glyph glyph-name="quotedblleft" unicode="&#x201c;" horiz-adv-x="312" 
d="M164 560c0 76 87 160 114 160c4 0 6 -2 6 -6c0 -6 -46 -72 -61 -109c9 8 19 12 31 12c31 0 44 -24 44 -49c0 -35 -20 -82 -70 -82s-64 39 -64 74zM22 584c0 73 82 166 119 166c4 0 6 -1 6 -5c0 -9 -47 -69 -61 -104c8 4 15 6 26 6c32 0 46 -22 46 -49
c0 -36 -27 -81 -77 -81c-44 0 -59 34 -59 67z" />
    <glyph glyph-name="quotedblright" unicode="&#x201d;" horiz-adv-x="325" 
d="M165 640c0 -84 -77 -170 -109 -170c-4 0 -6 2 -6 6c0 10 46 67 60 101c-8 -4 -15 -6 -26 -6c-33 0 -48 21 -48 48c0 37 29 82 76 82c38 0 53 -26 53 -61zM314 654c0 -73 -82 -166 -119 -166c-4 0 -6 1 -6 5c0 9 47 69 61 104c-8 -4 -15 -6 -26 -6c-32 0 -46 22 -46 49
c0 36 27 81 77 81c44 0 59 -34 59 -67z" />
    <glyph glyph-name="guilsinglright" unicode="&#x203a;" horiz-adv-x="379" 
d="M347 260c-182 -88 -265 -146 -278 -146c-11 0 -19 13 -19 27c0 47 162 113 236 145c-64 33 -115 65 -172 104c-8 5 -11 19 -11 34c0 23 8 49 22 49c16 0 137 -90 246 -121c12 -3 17 -14 17 -26c0 -25 -22 -57 -41 -66z" />
    <glyph glyph-name="guilsinglleft" unicode="&#x2039;" horiz-adv-x="330" 
d="M301 473c3 2 6 3 9 3c10 0 16 -12 16 -25c0 -46 -160 -113 -234 -147c65 -32 118 -63 173 -104c7 -5 10 -19 10 -34c0 -23 -8 -50 -22 -50c-16 0 -49 45 -245 122c-11 4 -16 15 -16 27c1 25 19 54 40 65c67 34 193 93 269 143z" />
    <glyph glyph-name="onesuperior" unicode="&#xb9;" horiz-adv-x="258" 
d="M180 396c-3 -13 -15 -18 -28 -18c-21 0 -45 13 -45 33c0 16 33 148 48 203c-16 -27 -31 -48 -46 -48c-12 0 -20 13 -20 23c0 5 2 9 5 11c28 19 55 31 83 91c0 12 15 18 25 18c20 0 43 -13 43 -30c0 -31 -56 -244 -65 -283z" />
    <glyph glyph-name="questiondown" unicode="&#xbf;" horiz-adv-x="335" 
d="M323 205c0 -26 -40 -211 -180 -211c-93 0 -144 76 -144 154c0 155 161 248 183 377c3 17 15 24 27 24c22 0 49 -20 49 -39c0 -112 -166 -220 -166 -378c0 -55 16 -117 52 -117c61 20 55 95 90 223c5 18 17 26 32 26c26 0 57 -25 57 -59zM253 713c25 0 47 -15 47 -43
c0 -32 -27 -70 -69 -70c-31 0 -44 20 -44 43c0 32 26 70 66 70z" />
    <glyph glyph-name="mu" unicode="&#xb5;" horiz-adv-x="376" 
d="M147 461c-32 -159 -69 -292 -69 -357c0 -27 7 -42 22 -42c58 0 96 193 141 400c7 33 31 48 55 48c22 0 43 -15 43 -41c0 -40 -84 -320 -84 -389c0 -18 4 -27 13 -27c36 0 97 128 108 150c6 12 12 17 17 17c4 0 7 -3 7 -10c0 -4 -1 -10 -4 -17c-14 -35 -79 -199 -163 -199
c-30 0 -66 16 -68 84c-27 -52 -60 -84 -101 -84c-9 0 -16 1 -23 3c-24 -113 -42 -211 -45 -245c-2 -24 -19 -36 -37 -36c-21 0 -43 17 -43 49c0 21 46 229 80 417c15 87 40 191 55 281c5 31 31 45 54 45c22 0 43 -13 43 -37c0 -3 0 -7 -1 -10z" />
    <glyph glyph-name="cedilla" unicode="&#xb8;" horiz-adv-x="260" 
d="M78 12l41 -4c-3 -33 -10 -61 -18 -85h15c72 0 105 -40 105 -82c0 -46 -41 -95 -111 -95c-14 0 -29 1 -29 10c0 5 5 10 15 10c31 0 53 35 53 68c0 29 -17 57 -59 57h-3c-15 -26 -32 -41 -47 -41c-11 0 -20 9 -20 21c0 18 16 33 39 42c9 27 15 61 19 99z" />
    <glyph glyph-name="multiply" unicode="&#xd7;" horiz-adv-x="279" 
d="M170 309c61 -77 66 -87 66 -97c0 -11 -8 -17 -19 -17c-29 0 -57 46 -84 81c-38 -32 -88 -77 -104 -77c-9 0 -13 6 -13 15c0 11 3 31 89 103c-27 39 -60 89 -60 111c0 12 7 18 17 18c31 0 54 -61 79 -97c54 49 106 95 120 95c7 0 11 -6 11 -14c0 -25 -39 -66 -102 -121z
" />
    <glyph glyph-name="divide" unicode="&#xf7;" horiz-adv-x="307" 
d="M164 380c-18 0 -30 9 -30 28c0 21 17 45 44 45c20 0 29 -12 29 -27c0 -21 -17 -46 -43 -46zM260 299c-38 -4 -85 -9 -139 -9c-34 0 -105 -1 -105 20c0 33 87 31 165 31c51 0 115 4 115 -17c0 -11 -14 -23 -36 -25zM132 180c-17 0 -30 8 -30 27c0 20 17 44 44 44
c19 0 27 -13 27 -28c0 -20 -16 -43 -41 -43z" />
    <glyph glyph-name="periodcentered" unicode="&#xb7;" horiz-adv-x="215" 
d="M95 288c-30 0 -56 17 -56 51c0 39 33 85 82 85c38 0 54 -25 54 -52c0 -38 -32 -84 -80 -84z" />
    <glyph glyph-name="acute" unicode="&#xb4;" horiz-adv-x="534" 
d="M346 669c0 -20 -27 -53 -60 -79c-38 -30 -83 -53 -101 -53c-6 0 -9 3 -9 7c0 16 23 23 68 82c43 56 37 86 64 86c19 0 38 -22 38 -43z" />
    <glyph glyph-name="grave" unicode="`" horiz-adv-x="414" 
d="M262 527c-33 0 -144 95 -144 148c0 22 21 42 39 42c32 0 25 -41 58 -96c35 -58 55 -66 55 -87c0 -4 -3 -7 -8 -7z" />
    <glyph glyph-name="asciitilde" unicode="~" horiz-adv-x="452" 
d="M88 579c0 36 42 81 101 81c50 0 82 -18 123 -18c20 0 56 15 74 15c7 0 12 -3 12 -8c0 -11 -19 -78 -79 -78c-41 0 -90 24 -137 24c-29 0 -55 -10 -74 -25c-3 -2 -6 -4 -10 -4c-5 0 -10 4 -10 13z" />
    <glyph glyph-name="ring" unicode="&#x2da;" horiz-adv-x="268" 
d="M249 695c49 0 72 -44 72 -77c0 -42 -30 -85 -84 -85c-56 0 -84 36 -84 77c0 48 39 85 96 85zM253 677c-30 0 -47 -48 -47 -87c0 -16 4 -37 16 -37c26 0 49 49 49 87c0 17 -6 32 -18 37z" />
    <glyph glyph-name="eth" unicode="&#xf0;" horiz-adv-x="386" 
d="M366 654c-11 -11 -23 -20 -35 -28c10 -28 16 -61 16 -99s-6 -80 -19 -129c-42 -155 -69 -254 -69 -304c0 -25 7 -40 23 -40c35 0 77 94 104 149c5 11 13 17 18 17c4 0 6 -4 6 -10c0 -4 -1 -10 -4 -17c-25 -61 -65 -199 -163 -199c-55 0 -68 76 -62 118
c-34 -73 -74 -118 -108 -118c-54 0 -77 58 -77 136c0 152 88 378 203 378c25 0 42 -21 51 -45c3 21 4 41 4 58c0 24 -2 44 -7 62c-37 -12 -73 -18 -101 -18c-30 0 -46 8 -46 16c0 19 79 18 133 38c-21 38 -78 74 -78 90c0 20 34 46 61 46c20 0 71 -37 102 -97
c16 9 41 27 52 27c6 0 10 -3 10 -8c0 -6 -5 -15 -14 -23zM209 271l33 148c-1 13 -6 31 -28 31c-67 0 -128 -234 -128 -339c0 -30 5 -49 17 -49c39 0 80 94 106 209z" />
    <glyph glyph-name="F.alt" horiz-adv-x="518" 
d="M-4 90c0 24 25 45 68 45c65 0 109 -120 194 -104c9 7 48 66 85 229c-46 -3 -95 -5 -151 -5c-14 0 -21 12 -21 25c0 15 8 28 22 28c33 0 95 -5 160 -5c27 116 41 210 41 277c0 52 -11 84 -40 89c-9 -10 -26 -22 -42 -38c-44 -42 -95 -96 -176 -96c-44 0 -68 19 -68 37
c0 39 21 29 134 59c81 21 124 51 146 58c23 11 37 15 54 15c61 0 82 -68 82 -159c0 -72 -11 -170 -32 -244c60 -3 115 -2 115 -16c0 -6 -10 -11 -26 -12l-97 -6c-46 -166 -112 -236 -183 -258c-12 -7 -32 -13 -57 -13c-39 0 -72 10 -104 30c-55 34 -104 30 -104 64z" />
    <glyph glyph-name="M.alt" horiz-adv-x="730" 
d="M337 647c1 44 24 61 51 61c19 0 39 -11 37 -37c-13 -153 -22 -376 -22 -512c90 219 147 413 167 484c4 48 16 74 53 74c20 0 39 -13 37 -37c-12 -143 -38 -390 -38 -526c0 -57 5 -94 18 -94c25 0 52 64 90 143c6 12 13 18 18 18c4 0 6 -3 6 -10c0 -4 -1 -11 -4 -18
c-30 -74 -68 -202 -149 -202c-51 0 -67 96 -67 222c0 85 7 184 17 275c-35 -124 -87 -295 -144 -436c0 -30 -22 -47 -45 -47c-19 0 -39 13 -41 40c-4 43 -6 114 -6 198c0 75 2 160 7 244c-75 -287 -128 -498 -255 -498c-68 0 -96 47 -96 103c0 66 38 147 93 188
c7 5 14 8 19 8s7 -3 7 -7c0 -5 -3 -12 -10 -21c-25 -31 -52 -93 -52 -141c0 -32 15 -63 51 -63c93 0 169 290 258 591z" />
    <glyph glyph-name="tilde" unicode="&#x2dc;" horiz-adv-x="428" 
d="M138 556c0 56 37 93 94 93c40 0 86 -30 123 -30c19 0 35 8 48 30c5 8 10 12 14 12c7 0 12 -9 12 -20c0 -69 -39 -97 -89 -97c-47 0 -97 39 -134 39c-18 0 -34 -10 -45 -37c-3 -7 -7 -10 -11 -10c-6 0 -12 7 -12 20z" />
    <glyph glyph-name="atilde" unicode="&#xe3;" horiz-adv-x="375" 
d="M324 361c-27 -127 -62 -235 -62 -283c0 -15 5 -25 14 -25c21 0 52 53 99 150c5 11 13 17 18 17c3 0 6 -3 6 -10c0 -4 -1 -10 -4 -17c-14 -35 -77 -199 -154 -199c-31 0 -68 17 -68 92c0 5 0 12 1 19c-33 -68 -71 -111 -103 -111c-54 0 -77 58 -77 136
c0 152 88 378 203 378c40 0 65 -43 67 -74h6c25 0 55 -21 55 -58c0 -5 0 -10 -1 -15zM101 62c37 0 81 95 106 206l32 144c0 17 -3 38 -27 38c-67 0 -128 -234 -128 -339c0 -30 5 -49 17 -49zM90 556c0 56 37 93 94 93c40 0 86 -30 123 -30c19 0 35 8 48 30c5 8 10 12 14 12
c7 0 12 -9 12 -20c0 -69 -39 -97 -89 -97c-47 0 -97 39 -134 39c-18 0 -34 -10 -45 -37c-3 -7 -7 -10 -11 -10c-6 0 -12 7 -12 20z" />
    <glyph glyph-name="ntilde" unicode="&#xf1;" horiz-adv-x="387" 
d="M58 24c-4 -22 -22 -33 -41 -33c-21 0 -44 15 -44 45c0 3 1 6 1 9c18 150 41 251 88 411c5 18 21 26 37 26c24 0 49 -17 49 -46c0 -26 -17 -67 -23 -93c41 94 92 167 144 167c59 0 74 -54 74 -91c0 -113 -97 -286 -97 -347c0 -13 5 -21 16 -21c44 0 113 132 125 152
c6 10 14 17 19 17c3 0 5 -2 5 -7c0 -4 -1 -10 -4 -18c-12 -36 -85 -204 -172 -204c-40 0 -78 28 -78 88c0 90 96 271 96 338c0 13 -5 24 -16 24c-37 0 -125 -155 -164 -336l-3 -7c-5 -28 -9 -52 -12 -74zM98 556c0 56 37 93 94 93c40 0 86 -30 123 -30c19 0 35 8 48 30
c5 8 10 12 14 12c7 0 12 -9 12 -20c0 -69 -39 -97 -89 -97c-47 0 -97 39 -134 39c-18 0 -34 -10 -45 -37c-3 -7 -7 -10 -11 -10c-6 0 -12 7 -12 20z" />
    <glyph glyph-name="otilde" unicode="&#xf5;" horiz-adv-x="374" 
d="M210 472c-34 0 -70 -83 -70 -170c0 -59 18 -118 65 -146c22 71 38 161 38 226c0 52 -9 90 -33 90zM138 42c19 3 38 34 55 79c-53 18 -83 59 -99 107c-7 -32 -11 -65 -11 -94c0 -53 13 -93 46 -93c3 0 6 0 9 1zM394 195c-13 -37 -66 -84 -134 -84
c-39 -69 -92 -118 -149 -118c-80 0 -113 75 -113 167c0 74 19 146 45 201c8 18 25 42 50 38c19 63 60 111 123 111c80 0 113 -68 113 -154c0 -69 -20 -149 -53 -216c36 1 74 18 98 63c6 10 11 17 18 17c3 0 6 -2 6 -7c0 -4 -1 -10 -4 -18zM102 556c0 56 37 93 94 93
c40 0 86 -30 123 -30c19 0 35 8 48 30c5 8 10 12 14 12c7 0 12 -9 12 -20c0 -69 -39 -97 -89 -97c-47 0 -97 39 -134 39c-18 0 -34 -10 -45 -37c-3 -7 -7 -10 -11 -10c-6 0 -12 7 -12 20z" />
    <glyph glyph-name="Atilde" unicode="&#xc3;" horiz-adv-x="396" 
d="M-26 179c15 0 36 -1 59 -2c57 107 132 259 200 448l8 53c4 26 26 39 48 39c19 0 37 -11 37 -34c0 -39 -35 -332 -38 -529c-1 -57 5 -94 18 -94c25 0 52 64 90 143c6 12 13 18 18 18c4 0 6 -3 6 -10c0 -4 -1 -11 -4 -18c-30 -74 -68 -202 -149 -202c-41 0 -60 63 -65 153
c-33 -2 -75 -5 -121 -5c-46 -112 -58 -149 -83 -149c-20 0 -44 16 -44 34c0 15 30 62 58 115l-36 2c-18 1 -27 11 -27 20s9 18 25 18zM200 171c-1 13 -1 26 -1 40c0 90 8 194 19 290c-48 -135 -90 -244 -122 -326zM153 745c0 56 37 93 94 93c40 0 86 -30 123 -30
c19 0 35 8 48 30c5 8 10 12 14 12c7 0 12 -9 12 -20c0 -69 -39 -97 -89 -97c-47 0 -97 39 -134 39c-18 0 -34 -10 -45 -37c-3 -7 -7 -10 -11 -10c-6 0 -12 7 -12 20z" />
    <glyph glyph-name="Ntilde" unicode="&#xd1;" horiz-adv-x="422" 
d="M134 661c1 29 33 44 60 44c18 0 34 -7 34 -21c0 -33 -4 -65 -4 -97c0 -189 42 -369 67 -474c21 183 46 378 84 567c5 24 29 34 50 34c18 0 33 -7 33 -18c0 -27 -58 -119 -152 -650c0 0 2 -7 2 -14c0 -21 -28 -42 -53 -42c-14 0 -26 7 -31 25c-33 119 -76 296 -88 490
c-26 -174 -44 -280 -107 -492c-4 -14 -25 -21 -44 -21s-35 6 -35 18c0 17 93 136 183 616c0 12 0 23 1 35zM176 766c0 56 37 93 94 93c40 0 86 -30 123 -30c19 0 35 8 48 30c5 8 10 12 14 12c7 0 12 -9 12 -20c0 -69 -39 -97 -89 -97c-47 0 -97 39 -134 39
c-18 0 -34 -10 -45 -37c-3 -7 -7 -10 -11 -10c-6 0 -12 7 -12 20z" />
    <glyph glyph-name="r.end" horiz-adv-x="271" 
d="M68 130l-16 -106c-4 -22 -20 -33 -37 -33c-19 0 -38 14 -38 44c0 55 34 267 79 421c5 17 21 25 38 25c23 0 49 -16 49 -44c0 -17 -12 -42 -17 -60c36 77 80 133 129 133c37 0 51 -22 51 -65c0 -56 -37 -119 -43 -177c-2 -22 -17 -32 -35 -32c-23 0 -49 19 -49 51
c0 60 41 112 41 143c0 7 -3 12 -10 12c-34 0 -116 -143 -142 -312z" />
    <glyph glyph-name="p.end" horiz-adv-x="327" 
d="M-4 -248c-2 -24 -19 -36 -37 -36c-21 0 -43 17 -43 49c0 33 101 538 140 679c7 25 27 36 46 36c22 0 43 -14 43 -38c0 -4 0 -7 -8 -40c29 63 65 107 108 107c61 0 86 -58 86 -131c0 -152 -107 -384 -224 -384c-27 0 -46 12 -59 27c-27 -123 -49 -233 -52 -269zM92 211
c-12 -49 -24 -102 -35 -153c8 -7 22 -15 34 -15c70 0 143 227 143 337c0 36 -8 57 -26 57c-39 0 -83 -98 -116 -226z" />
    <glyph glyph-name="s.end" horiz-adv-x="221" 
d="M-26 162c50 76 104 189 133 251c-10 27 -15 54 -15 80c0 67 31 121 69 121c24 0 37 -17 37 -45c0 -37 -21 -95 -63 -162c22 -72 77 -171 77 -251c0 -81 -41 -163 -143 -163c-112 0 -151 57 -151 105c0 35 20 70 56 64zM110 339c-32 -74 -81 -147 -111 -191
c11 -12 10 -31 10 -81c0 -33 11 -51 35 -51c33 0 73 34 73 160c0 34 -4 102 -7 163z" />
    <glyph glyph-name="b.end" horiz-adv-x="311" 
d="M98 680c7 27 30 39 52 39s42 -13 42 -37c0 -4 -1 -8 -48 -190c17 11 37 18 58 18c78 0 111 -73 111 -164c0 -151 -91 -353 -218 -353c-61 0 -98 50 -98 158c0 47 7 106 22 176c54 252 66 305 79 353zM182 468c-36 0 -54 -39 -62 -73c-23 -99 -42 -196 -42 -263
c0 -55 13 -90 46 -90c53 0 96 184 96 311c0 64 -11 115 -38 115z" />
    <glyph glyph-name="o.end" horiz-adv-x="328" 
d="M43 361c9 20 24 37 42 38c20 62 70 111 131 111c80 0 113 -68 113 -155c0 -152 -100 -362 -218 -362c-80 0 -113 75 -113 167c0 74 19 146 45 201zM210 472c-22 0 -55 -46 -70 -97c2 -2 6 -10 3 -13c-34 -52 -60 -152 -60 -227c0 -54 14 -94 47 -94c52 0 113 202 113 341
c0 51 -9 90 -33 90z" />
    <glyph glyph-name="v.end" horiz-adv-x="310" 
d="M147 464c0 -54 -80 -275 -80 -376c0 -29 7 -49 26 -49c31 0 69 90 103 190c-7 21 -10 47 -10 75c0 99 40 220 94 220c27 0 39 -25 39 -65c0 -141 -149 -465 -250 -465c-55 0 -74 60 -74 142c0 113 36 266 60 353c5 17 21 26 40 26c25 0 52 -17 52 -51z" />
    <glyph glyph-name="w.end" horiz-adv-x="501" 
d="M337 464c0 -48 -80 -294 -80 -376c0 -29 7 -49 26 -49c31 0 79 92 112 190c-14 24 -20 57 -20 91c0 94 44 204 95 204c27 0 38 -27 38 -70c0 -144 -132 -460 -249 -460c-50 0 -70 49 -73 119c-30 -72 -67 -119 -117 -119c-55 0 -74 60 -74 142c0 113 36 266 60 353
c5 17 21 26 40 26c25 0 52 -17 52 -51c0 -46 -80 -294 -80 -376c0 -29 8 -50 26 -50c67 0 109 294 152 451c5 17 21 26 40 26c25 0 52 -17 52 -51z" />
    <glyph glyph-name="r_s.end" horiz-adv-x="545" 
d="M52 24c-3 -22 -20 -33 -37 -33c-19 0 -38 14 -38 44c0 44 34 267 79 421c5 17 21 25 38 25c23 0 49 -16 49 -44c0 -17 -12 -42 -17 -60c36 77 80 133 129 133c37 0 51 -22 51 -65c0 -56 -43 -149 -43 -184c0 -14 8 -22 23 -22c63 0 129 141 148 186c-9 26 -12 52 -12 76
c0 63 26 113 62 113c24 0 37 -16 37 -43c0 -36 -22 -92 -64 -160c21 -73 78 -174 78 -255s-41 -163 -143 -163c-112 0 -151 57 -151 105c0 35 20 65 48 65c40 0 43 -32 43 -97c0 -32 12 -50 35 -50c62 0 73 64 73 285v72c-31 -69 -95 -173 -181 -173c-40 0 -78 17 -78 77
c0 55 39 122 39 153c0 7 -3 12 -10 12c-34 0 -128 -155 -158 -418z" />
    <glyph glyph-name="v_s.end" horiz-adv-x="552" 
d="M147 464c0 -52 -80 -285 -80 -376c0 -29 7 -49 26 -49c31 0 69 90 103 190c-13 22 -19 52 -19 84c0 95 51 211 103 211c18 0 40 -11 40 -57c0 -52 -28 -148 -61 -234c84 -37 157 119 183 180c-12 30 -17 60 -17 87c0 64 27 114 63 114c24 0 37 -16 37 -43
c0 -36 -22 -92 -64 -160c21 -73 78 -174 78 -255s-41 -163 -143 -163c-112 0 -151 57 -151 105c0 35 20 65 48 65c35 0 43 -27 43 -62c0 -24 -7 -85 35 -85c33 0 73 34 73 160v179c-31 -71 -105 -192 -202 -163c-46 -107 -108 -198 -173 -198c-55 0 -74 60 -74 142
c0 113 36 266 60 353c5 17 21 26 40 26c25 0 52 -17 52 -51z" />
    <glyph glyph-name="w_s.end" horiz-adv-x="770" 
d="M337 464c0 -48 -80 -294 -80 -376c0 -29 7 -49 26 -49c31 0 69 90 103 190c-13 22 -19 52 -19 84c0 95 51 211 103 211c18 0 40 -11 40 -57c0 -52 -28 -148 -61 -234c95 -37 178 111 211 184c-11 28 -15 57 -15 84c0 63 26 113 62 113c24 0 37 -16 37 -43
c0 -36 -22 -92 -64 -160c21 -73 78 -174 78 -255s-41 -163 -143 -163c-112 0 -151 57 -151 105c0 35 20 65 48 65c35 0 43 -27 43 -62c0 -24 -7 -85 35 -85c33 0 73 34 73 160v187c-37 -79 -125 -203 -231 -171c-46 -107 -108 -198 -173 -198c-50 0 -70 49 -73 119
c-30 -72 -67 -119 -117 -119c-55 0 -74 60 -74 142c0 113 36 266 60 353c5 17 21 26 40 26c25 0 52 -17 52 -51c0 -61 -80 -263 -80 -376c0 -29 8 -50 26 -50c67 0 109 294 152 451c5 17 21 26 40 26c25 0 52 -17 52 -51z" />
    <glyph glyph-name="AE" unicode="&#xc6;" horiz-adv-x="587" 
d="M-26 179c15 0 36 -1 59 -2c58 108 135 263 203 456l5 45c2 23 22 34 42 34c16 0 31 -8 31 -27c0 -52 -8 -119 -12 -188c29 107 106 213 187 213c23 0 51 -13 59 -24c42 -20 55 -57 55 -99c0 -61 -26 -133 -28 -181c-1 -24 -30 -37 -56 -37c-23 0 -44 10 -44 31
c0 72 71 158 71 225c0 15 -3 28 -11 41c-72 0 -174 -179 -174 -279c0 -33 11 -57 37 -64c8 1 15 2 22 2c21 0 36 -7 36 -20c0 -15 -17 -21 -36 -21c-12 0 -25 2 -36 6c-49 -16 -75 -76 -75 -132c0 -61 28 -107 86 -107c113 0 179 132 192 152c6 10 14 17 19 17
c3 0 5 -2 5 -7c0 -4 -1 -10 -4 -18c-13 -38 -94 -208 -247 -208c-90 0 -137 43 -152 158c-34 -3 -78 -6 -127 -6c-46 -112 -58 -149 -83 -149c-20 0 -44 16 -44 34c0 15 30 62 58 115l-36 2c-18 1 -27 11 -27 20s9 18 25 18zM221 508c-50 -138 -92 -250 -125 -333l110 -4
c-2 22 -3 48 -3 75c0 86 8 180 18 262zM335 310c-18 14 -33 34 -40 62c-2 -28 -2 -56 -3 -82c12 8 27 15 43 20z" />
    <glyph glyph-name="dieresis" unicode="&#xa8;" horiz-adv-x="426" 
d="M294 558c-27 0 -38 16 -38 37c0 28 23 63 57 63c26 0 38 -19 38 -40c0 -28 -21 -60 -57 -60zM157 560c-20 0 -38 11 -38 35c0 26 22 57 57 57c25 0 35 -16 35 -35c0 -26 -21 -57 -54 -57z" />
    <glyph glyph-name="adieresis" unicode="&#xe4;" horiz-adv-x="375" 
d="M324 361c-27 -127 -62 -235 -62 -283c0 -15 5 -25 14 -25c21 0 52 53 99 150c5 11 13 17 18 17c3 0 6 -3 6 -10c0 -4 -1 -10 -4 -17c-14 -35 -77 -199 -154 -199c-31 0 -68 17 -68 92c0 5 0 12 1 19c-33 -68 -71 -111 -103 -111c-54 0 -77 58 -77 136
c0 152 88 378 203 378c40 0 65 -43 67 -74h6c25 0 55 -21 55 -58c0 -5 0 -10 -1 -15zM101 62c37 0 81 95 106 206l32 144c0 17 -3 38 -27 38c-67 0 -128 -234 -128 -339c0 -30 5 -49 17 -49zM294 558c-27 0 -38 16 -38 37c0 28 23 63 57 63c26 0 38 -19 38 -40
c0 -28 -21 -60 -57 -60zM157 560c-20 0 -38 11 -38 35c0 26 22 57 57 57c25 0 35 -16 35 -35c0 -26 -21 -57 -54 -57z" />
    <glyph glyph-name="edieresis" unicode="&#xeb;" horiz-adv-x="329" 
d="M246 491c42 -5 61 -43 61 -92c0 -96 -72 -231 -178 -231c-12 0 -25 2 -38 6c0 -44 4 -120 66 -120c95 0 146 108 172 149c6 10 11 14 16 14c4 0 7 -4 7 -10c0 -4 -1 -9 -3 -14c-45 -112 -115 -200 -230 -200c-86 0 -121 78 -121 173c0 149 86 342 191 342
c22 0 45 -7 57 -17zM93 201c3 -1 5 -1 8 -1c59 0 144 158 144 236c0 16 -2 33 -17 33c-57 0 -123 -148 -135 -268zM292 558c-27 0 -38 16 -38 37c0 28 23 63 57 63c26 0 38 -19 38 -40c0 -28 -21 -60 -57 -60zM155 560c-20 0 -38 11 -38 35c0 26 22 57 57 57
c25 0 35 -16 35 -35c0 -26 -21 -57 -54 -57z" />
    <glyph glyph-name="idieresis" unicode="&#xef;" horiz-adv-x="194" 
d="M184 558c-27 0 -38 16 -38 37c0 28 23 63 57 63c26 0 38 -19 38 -40c0 -28 -21 -60 -57 -60zM67 560c-20 0 -38 11 -38 35c0 26 22 57 57 57c25 0 35 -16 35 -35c0 -26 -21 -57 -54 -57zM155 449c-27 -130 -82 -288 -82 -356c0 -21 5 -33 18 -33c37 0 92 121 103 143
c6 11 12 17 17 17c4 0 7 -4 7 -10c0 -5 -1 -10 -4 -17c-14 -35 -72 -199 -156 -199c-39 0 -72 28 -72 103c0 60 38 245 78 392c5 17 21 26 40 26c25 0 52 -17 52 -51c0 -5 0 -10 -1 -15z" />
    <glyph glyph-name="odieresis" unicode="&#xf6;" horiz-adv-x="374" 
d="M210 472c-34 0 -70 -83 -70 -170c0 -59 18 -118 65 -146c22 71 38 161 38 226c0 52 -9 90 -33 90zM138 42c19 3 38 34 55 79c-53 18 -83 59 -99 107c-7 -32 -11 -65 -11 -94c0 -53 13 -93 46 -93c3 0 6 0 9 1zM394 195c-13 -37 -66 -84 -134 -84
c-39 -69 -92 -118 -149 -118c-80 0 -113 75 -113 167c0 74 19 146 45 201c8 18 25 42 50 38c19 63 60 111 123 111c80 0 113 -68 113 -154c0 -69 -20 -149 -53 -216c36 1 74 18 98 63c6 10 11 17 18 17c3 0 6 -2 6 -7c0 -4 -1 -10 -4 -18zM296 558c-27 0 -38 16 -38 37
c0 28 23 63 57 63c26 0 38 -19 38 -40c0 -28 -21 -60 -57 -60zM159 560c-20 0 -38 11 -38 35c0 26 22 57 57 57c25 0 35 -16 35 -35c0 -26 -21 -57 -54 -57z" />
    <glyph glyph-name="udieresis" unicode="&#xfc;" horiz-adv-x="376" 
d="M147 461c-32 -159 -69 -292 -69 -357c0 -27 7 -42 22 -42c58 0 96 193 141 400c7 33 31 48 55 48c22 0 43 -15 43 -41c0 -40 -84 -320 -84 -389c0 -18 4 -27 13 -27c36 0 97 128 108 150c6 12 12 17 17 17c4 0 7 -3 7 -10c0 -4 -1 -10 -4 -17c-14 -35 -79 -199 -163 -199
c-30 0 -66 16 -68 84c-27 -52 -60 -84 -101 -84c-56 0 -75 43 -75 107c0 97 42 242 62 362c5 31 31 45 54 45c22 0 43 -13 43 -37c0 -3 0 -7 -1 -10zM277 558c-27 0 -38 16 -38 37c0 28 23 63 57 63c26 0 38 -19 38 -40c0 -28 -21 -60 -57 -60zM140 560c-20 0 -38 11 -38 35
c0 26 22 57 57 57c25 0 35 -16 35 -35c0 -26 -21 -57 -54 -57z" />
    <glyph glyph-name="ydieresis" unicode="&#xff;" horiz-adv-x="367" 
d="M50 -330c-49 0 -102 43 -102 98c0 110 106 151 207 213c4 30 9 63 15 98c-26 -54 -60 -85 -102 -85c-60 0 -80 42 -80 105c0 101 50 255 72 378c3 20 18 28 36 28c26 0 56 -19 56 -44c0 -35 -16 -86 -28 -140c-20 -88 -41 -182 -41 -221c0 -24 6 -38 21 -38
c54 0 74 116 118 287l28 128c4 17 20 25 37 25c25 0 53 -16 53 -39c0 -27 -16 -38 -80 -405c40 37 77 83 107 145c5 11 13 18 18 18c4 0 6 -3 6 -10c0 -4 -1 -10 -4 -18c-37 -93 -87 -154 -138 -199c-45 -237 -120 -324 -199 -324zM17 -298c3 -1 6 -1 10 -1
c94 0 112 152 120 218c-71 -45 -157 -93 -157 -173c0 -22 12 -35 27 -44zM283 558c-27 0 -38 16 -38 37c0 28 23 63 57 63c26 0 38 -19 38 -40c0 -28 -21 -60 -57 -60zM146 560c-20 0 -38 11 -38 35c0 26 22 57 57 57c25 0 35 -16 35 -35c0 -26 -21 -57 -54 -57z" />
    <glyph glyph-name="Agrave" unicode="&#xc0;" horiz-adv-x="396" 
d="M-26 179c15 0 36 -1 59 -2c57 107 132 259 200 448l8 53c4 26 26 39 48 39c19 0 37 -11 37 -34c0 -39 -35 -332 -38 -529c-1 -57 5 -94 18 -94c25 0 52 64 90 143c6 12 13 18 18 18c4 0 6 -3 6 -10c0 -4 -1 -11 -4 -18c-30 -74 -68 -202 -149 -202c-41 0 -60 63 -65 153
c-33 -2 -75 -5 -121 -5c-46 -112 -58 -149 -83 -149c-20 0 -44 16 -44 34c0 15 30 62 58 115l-36 2c-18 1 -27 11 -27 20s9 18 25 18zM200 171c-1 13 -1 26 -1 40c0 90 8 194 19 290c-48 -135 -90 -244 -122 -326zM308 747c-33 0 -144 95 -144 148c0 22 21 42 39 42
c32 0 25 -41 58 -96c35 -58 55 -66 55 -87c0 -4 -3 -7 -8 -7z" />
    <glyph glyph-name="Egrave" unicode="&#xc8;" horiz-adv-x="363" 
d="M306 666c-67 0 -169 -179 -169 -279c0 -33 11 -57 37 -64c8 1 15 2 22 2c21 0 36 -7 36 -20c0 -15 -17 -21 -35 -21c-13 0 -26 2 -37 6c-53 -16 -85 -81 -85 -139c0 -50 24 -93 79 -93c126 0 196 124 209 145c6 10 14 17 19 17c3 0 5 -2 5 -7c0 -4 -1 -10 -4 -18
c-12 -35 -94 -208 -259 -208c-99 0 -143 73 -143 148c0 96 56 157 122 177c-30 20 -53 53 -53 102c0 128 113 296 215 296c23 0 51 -13 59 -24c42 -20 55 -57 55 -99c0 -61 -26 -133 -28 -181c-1 -24 -30 -37 -56 -37c-23 0 -44 10 -44 31c0 72 71 158 71 225
c0 15 -3 28 -11 41h-5zM333 726c-33 0 -144 95 -144 148c0 22 21 42 39 42c32 0 25 -41 58 -96c35 -58 55 -66 55 -87c0 -4 -3 -7 -8 -7z" />
    <glyph glyph-name="Ograve" unicode="&#xd2;" horiz-adv-x="436" 
d="M249 703c138 0 168 -120 168 -230c0 -206 -116 -479 -264 -479c-102 0 -156 101 -156 235c0 69 7 148 76 185c-9 21 -12 44 -12 68c0 105 76 221 188 221zM324 548c0 43 2 98 -36 125c-78 -1 -139 -119 -139 -217c0 -47 14 -89 47 -112c7 -5 10 -10 10 -15
c0 -4 -3 -7 -11 -7c-29 0 -62 20 -80 34l-4 -14c-18 -61 -31 -123 -29 -177c0 -74 17 -131 57 -148c93 1 185 337 185 531zM298 727c-33 0 -144 95 -144 148c0 22 21 42 39 42c32 0 25 -41 58 -96c35 -58 55 -66 55 -87c0 -4 -3 -7 -8 -7z" />
    <glyph glyph-name="Ugrave" unicode="&#xd9;" horiz-adv-x="543" 
d="M546 657c0 -65 -120 -456 -120 -563c0 -23 4 -34 14 -34c37 0 92 121 103 143c6 11 12 17 17 17c4 0 7 -4 7 -10c0 -5 -1 -10 -4 -17c-14 -35 -72 -199 -156 -199c-39 0 -75 28 -72 114c-25 -65 -59 -118 -106 -118c-50 0 -90 52 -90 139c0 131 105 328 105 496
c0 33 -8 49 -22 54c-68 -3 -169 -188 -169 -300c0 -40 13 -71 46 -80c11 -3 16 -9 16 -14s-6 -10 -19 -10c-84 0 -117 79 -117 139c0 127 111 293 225 293c12 0 23 -3 32 -7c46 -7 80 -41 80 -112c0 -151 -86 -339 -86 -452c0 -47 17 -66 38 -66c38 0 76 135 94 221
c28 136 67 301 92 393c4 16 20 24 37 24c26 0 55 -18 55 -51zM411 717c-33 0 -144 95 -144 148c0 22 21 42 39 42c32 0 25 -41 58 -96c35 -58 55 -66 55 -87c0 -4 -3 -7 -8 -7z" />
    <glyph glyph-name="agrave" unicode="&#xe0;" horiz-adv-x="375" 
d="M324 361c-27 -127 -62 -235 -62 -283c0 -15 5 -25 14 -25c21 0 52 53 99 150c5 11 13 17 18 17c3 0 6 -3 6 -10c0 -4 -1 -10 -4 -17c-14 -35 -77 -199 -154 -199c-31 0 -68 17 -68 92c0 5 0 12 1 19c-33 -68 -71 -111 -103 -111c-54 0 -77 58 -77 136
c0 152 88 378 203 378c40 0 65 -43 67 -74h6c25 0 55 -21 55 -58c0 -5 0 -10 -1 -15zM101 62c37 0 81 95 106 206l32 144c0 17 -3 38 -27 38c-67 0 -128 -234 -128 -339c0 -30 5 -49 17 -49zM298 517c-33 0 -144 95 -144 148c0 22 21 42 39 42c32 0 25 -41 58 -96
c35 -58 55 -66 55 -87c0 -4 -3 -7 -8 -7z" />
    <glyph glyph-name="egrave" unicode="&#xe8;" horiz-adv-x="329" 
d="M246 491c42 -5 61 -43 61 -92c0 -96 -72 -231 -178 -231c-12 0 -25 2 -38 6c0 -44 4 -120 66 -120c95 0 146 108 172 149c6 10 11 14 16 14c4 0 7 -4 7 -10c0 -4 -1 -9 -3 -14c-45 -112 -115 -200 -230 -200c-86 0 -121 78 -121 173c0 149 86 342 191 342
c22 0 45 -7 57 -17zM93 201c3 -1 5 -1 8 -1c59 0 144 158 144 236c0 16 -2 33 -17 33c-57 0 -123 -148 -135 -268zM293 507c-33 0 -144 95 -144 148c0 22 21 42 39 42c32 0 25 -41 58 -96c35 -58 55 -66 55 -87c0 -4 -3 -7 -8 -7z" />
    <glyph glyph-name="igrave" unicode="&#xec;" horiz-adv-x="194" 
d="M155 449c-27 -130 -82 -288 -82 -356c0 -21 5 -33 18 -33c37 0 92 121 103 143c6 11 12 17 17 17c4 0 7 -4 7 -10c0 -5 -1 -10 -4 -17c-14 -35 -72 -199 -156 -199c-39 0 -72 28 -72 103c0 60 38 245 78 392c5 17 21 26 40 26c25 0 52 -17 52 -51c0 -5 0 -10 -1 -15z
M167 527c-33 0 -144 95 -144 148c0 22 21 42 39 42c32 0 25 -41 58 -96c35 -58 55 -66 55 -87c0 -4 -3 -7 -8 -7z" />
    <glyph glyph-name="ograve" unicode="&#xf2;" horiz-adv-x="374" 
d="M210 472c-34 0 -70 -83 -70 -170c0 -59 18 -118 65 -146c22 71 38 161 38 226c0 52 -9 90 -33 90zM138 42c19 3 38 34 55 79c-53 18 -83 59 -99 107c-7 -32 -11 -65 -11 -94c0 -53 13 -93 46 -93c3 0 6 0 9 1zM394 195c-13 -37 -66 -84 -134 -84
c-39 -69 -92 -118 -149 -118c-80 0 -113 75 -113 167c0 74 19 146 45 201c8 18 25 42 50 38c19 63 60 111 123 111c80 0 113 -68 113 -154c0 -69 -20 -149 -53 -216c36 1 74 18 98 63c6 10 11 17 18 17c3 0 6 -2 6 -7c0 -4 -1 -10 -4 -18zM277 527c-33 0 -144 95 -144 148
c0 22 21 42 39 42c32 0 25 -41 58 -96c35 -58 55 -66 55 -87c0 -4 -3 -7 -8 -7z" />
    <glyph glyph-name="ugrave" unicode="&#xf9;" horiz-adv-x="376" 
d="M147 461c-32 -159 -69 -292 -69 -357c0 -27 7 -42 22 -42c58 0 96 193 141 400c7 33 31 48 55 48c22 0 43 -15 43 -41c0 -40 -84 -320 -84 -389c0 -18 4 -27 13 -27c36 0 97 128 108 150c6 12 12 17 17 17c4 0 7 -3 7 -10c0 -4 -1 -10 -4 -17c-14 -35 -79 -199 -163 -199
c-30 0 -66 16 -68 84c-27 -52 -60 -84 -101 -84c-56 0 -75 43 -75 107c0 97 42 242 62 362c5 31 31 45 54 45c22 0 43 -13 43 -37c0 -3 0 -7 -1 -10zM258 547c-33 0 -144 95 -144 148c0 22 21 42 39 42c32 0 25 -41 58 -96c35 -58 55 -66 55 -87c0 -4 -3 -7 -8 -7z" />
    <glyph glyph-name="Ydieresis" unicode="&#x178;" horiz-adv-x="561" 
d="M233 -240c-40 0 -86 29 -86 75c0 93 90 127 179 166l42 186c-31 -66 -67 -111 -112 -111c-42 0 -77 40 -77 118c0 134 89 345 89 443c0 25 -11 38 -22 42c-68 -3 -169 -188 -169 -299c0 -41 13 -72 46 -81c11 -3 16 -9 16 -14s-6 -10 -19 -10c-84 0 -117 79 -117 139
c0 127 111 293 225 293c12 0 23 -3 32 -7c46 -7 80 -41 80 -112c0 -73 -70 -296 -70 -369c0 -43 10 -65 29 -65c41 0 87 134 118 250c28 123 54 233 69 286c4 15 16 22 29 22c25 0 55 -23 55 -56c0 -4 0 -8 -1 -12c-32 -147 -99 -429 -140 -589c51 33 98 78 132 148
c5 11 12 16 17 16c4 0 7 -3 7 -10c0 -4 -2 -10 -4 -16c-42 -104 -103 -156 -165 -190l-6 -23c-42 -159 -118 -220 -177 -220zM182 -177c0 -16 8 -32 26 -32c31 0 73 36 107 167c-55 -24 -133 -64 -133 -135zM479 758c-27 0 -38 16 -38 37c0 28 23 63 57 63
c26 0 38 -19 38 -40c0 -28 -21 -60 -57 -60zM342 760c-20 0 -38 11 -38 35c0 26 22 57 57 57c25 0 35 -16 35 -35c0 -26 -21 -57 -54 -57z" />
    <glyph glyph-name="scaron" unicode="&#x161;" horiz-adv-x="286" 
d="M69 -7c-112 0 -151 57 -151 105c0 31 20 72 56 64c50 76 104 189 133 251c-10 27 -15 54 -15 80c0 67 31 121 69 121c24 0 37 -17 37 -45c0 -37 -21 -95 -63 -162c22 -72 77 -171 77 -251c0 -35 -7 -69 -24 -98c40 30 54 68 98 145c6 11 12 16 17 16c4 0 6 -4 6 -11
c0 -4 -1 -9 -3 -15c-52 -128 -108 -200 -237 -200zM110 339c-32 -74 -81 -147 -111 -191c11 -12 10 -31 10 -81c0 -33 11 -51 35 -51c33 0 73 34 73 160c0 34 -4 102 -7 163zM315 827c0 -10 -14 -8 -107 -145c-8 -12 -30 -22 -49 -22c-11 0 -20 3 -23 12
c-45 133 -75 138 -75 153c0 14 29 29 51 29c36 0 70 -84 83 -124c17 28 66 111 98 111c11 0 22 -6 22 -14z" />
    <glyph glyph-name="caron" unicode="&#x2c7;" horiz-adv-x="315" 
d="M305 717c0 -10 -14 -8 -107 -145c-8 -12 -30 -22 -49 -22c-11 0 -20 3 -23 12c-45 133 -75 138 -75 153c0 14 29 29 51 29c36 0 70 -84 83 -124c17 28 66 111 98 111c11 0 22 -6 22 -14z" />
    <glyph glyph-name="germandbls" unicode="&#xdf;" horiz-adv-x="382" 
d="M165 -7c-112 0 -151 52 -151 96c0 20 8 39 21 50c-19 5 -36 18 -36 37c0 172 105 575 216 575c18 0 33 -10 40 -20c38 -22 49 -70 49 -149c0 -165 -68 -211 -68 -235c0 -42 75 -51 75 -180c0 -40 -10 -80 -30 -111c42 30 56 68 101 147c6 11 12 16 17 16c4 0 6 -4 6 -11
c0 -4 -1 -9 -3 -15c-52 -128 -108 -200 -237 -200zM229 152c0 105 -64 114 -64 179c0 46 89 197 70 377c-50 -35 -149 -407 -149 -544c0 -7 -2 -13 -6 -17c23 -9 25 -34 25 -83c0 -31 13 -48 35 -48c53 0 89 70 89 136z" />
    <glyph glyph-name="Aacute" unicode="&#xc1;" horiz-adv-x="396" 
d="M-26 179c15 0 36 -1 59 -2c57 107 132 259 200 448l8 53c4 26 26 39 48 39c19 0 37 -11 37 -34c0 -39 -35 -332 -38 -529c-1 -57 5 -94 18 -94c25 0 52 64 90 143c6 12 13 18 18 18c4 0 6 -3 6 -10c0 -4 -1 -11 -4 -18c-30 -74 -68 -202 -149 -202c-41 0 -60 63 -65 153
c-33 -2 -75 -5 -121 -5c-46 -112 -58 -149 -83 -149c-20 0 -44 16 -44 34c0 15 30 62 58 115l-36 2c-18 1 -27 11 -27 20s9 18 25 18zM200 171c-1 13 -1 26 -1 40c0 90 8 194 19 290c-48 -135 -90 -244 -122 -326zM443 882c0 -20 -27 -53 -60 -79c-38 -30 -83 -53 -101 -53
c-6 0 -9 3 -9 7c0 16 23 23 68 82c43 56 37 86 64 86c19 0 38 -22 38 -43z" />
    <glyph glyph-name="Acircumflex" unicode="&#xc2;" horiz-adv-x="396" 
d="M-26 179c15 0 36 -1 59 -2c57 107 132 259 200 448l8 53c4 26 26 39 48 39c19 0 37 -11 37 -34c0 -39 -35 -332 -38 -529c-1 -57 5 -94 18 -94c25 0 52 64 90 143c6 12 13 18 18 18c4 0 6 -3 6 -10c0 -4 -1 -11 -4 -18c-30 -74 -68 -202 -149 -202c-41 0 -60 63 -65 153
c-33 -2 -75 -5 -121 -5c-46 -112 -58 -149 -83 -149c-20 0 -44 16 -44 34c0 15 30 62 58 115l-36 2c-18 1 -27 11 -27 20s9 18 25 18zM200 171c-1 13 -1 26 -1 40c0 90 8 194 19 290c-48 -135 -90 -244 -122 -326zM185 738c0 10 14 8 107 145c8 12 30 22 49 22
c11 0 20 -3 23 -12c45 -133 75 -138 75 -153c0 -14 -29 -29 -51 -29c-36 0 -70 84 -83 124c-17 -28 -66 -111 -98 -111c-11 0 -22 6 -22 14z" />
    <glyph glyph-name="Adieresis" unicode="&#xc4;" horiz-adv-x="396" 
d="M-26 179c15 0 36 -1 59 -2c57 107 132 259 200 448l8 53c4 26 26 39 48 39c19 0 37 -11 37 -34c0 -39 -35 -332 -38 -529c-1 -57 5 -94 18 -94c25 0 52 64 90 143c6 12 13 18 18 18c4 0 6 -3 6 -10c0 -4 -1 -11 -4 -18c-30 -74 -68 -202 -149 -202c-41 0 -60 63 -65 153
c-33 -2 -75 -5 -121 -5c-46 -112 -58 -149 -83 -149c-20 0 -44 16 -44 34c0 15 30 62 58 115l-36 2c-18 1 -27 11 -27 20s9 18 25 18zM200 171c-1 13 -1 26 -1 40c0 90 8 194 19 290c-48 -135 -90 -244 -122 -326zM372 747c-27 0 -38 16 -38 37c0 28 23 63 57 63
c26 0 38 -19 38 -40c0 -28 -21 -60 -57 -60zM235 749c-20 0 -38 11 -38 35c0 26 22 57 57 57c25 0 35 -16 35 -35c0 -26 -21 -57 -54 -57z" />
    <glyph glyph-name="Aring" unicode="&#xc5;" horiz-adv-x="396" 
d="M312 838c64 0 94 -59 94 -103c0 -48 -30 -98 -85 -110c-12 -143 -33 -349 -33 -469c0 -58 5 -96 18 -96c25 0 52 64 90 143c6 12 13 18 18 18c4 0 6 -3 6 -10c0 -4 -1 -11 -4 -18c-30 -74 -68 -202 -149 -202c-41 0 -60 63 -65 153c-33 -2 -75 -5 -121 -5
c-46 -112 -58 -149 -83 -149c-20 0 -44 16 -44 34c0 15 30 62 58 115l-36 2c-18 1 -27 11 -27 20s9 18 25 18l59 -2c56 105 129 253 199 461c-32 18 -47 51 -47 87c0 64 51 113 127 113zM200 171c-11 105 6 219 18 330c-48 -135 -90 -244 -122 -326zM317 813
c-40 1 -63 -63 -63 -114c0 -22 6 -50 22 -50c34 0 64 65 64 115c0 23 -7 43 -23 49z" />
    <glyph glyph-name="Eacute" unicode="&#xc9;" horiz-adv-x="363" 
d="M306 666c-67 0 -169 -179 -169 -279c0 -33 11 -57 37 -64c8 1 15 2 22 2c21 0 36 -7 36 -20c0 -15 -17 -21 -35 -21c-13 0 -26 2 -37 6c-53 -16 -85 -81 -85 -139c0 -50 24 -93 79 -93c126 0 196 124 209 145c6 10 14 17 19 17c3 0 5 -2 5 -7c0 -4 -1 -10 -4 -18
c-12 -35 -94 -208 -259 -208c-99 0 -143 73 -143 148c0 96 56 157 122 177c-30 20 -53 53 -53 102c0 128 113 296 215 296c23 0 51 -13 59 -24c42 -20 55 -57 55 -99c0 -61 -26 -133 -28 -181c-1 -24 -30 -37 -56 -37c-23 0 -44 10 -44 31c0 72 71 158 71 225
c0 15 -3 28 -11 41h-5zM415 861c0 -20 -27 -53 -60 -79c-38 -30 -83 -53 -101 -53c-6 0 -9 3 -9 7c0 16 23 23 68 82c43 56 37 86 64 86c19 0 38 -22 38 -43z" />
    <glyph glyph-name="Ecircumflex" unicode="&#xca;" horiz-adv-x="363" 
d="M306 666c-67 0 -169 -179 -169 -279c0 -33 11 -57 37 -64c8 1 15 2 22 2c21 0 36 -7 36 -20c0 -15 -17 -21 -35 -21c-13 0 -26 2 -37 6c-53 -16 -85 -81 -85 -139c0 -50 24 -93 79 -93c126 0 196 124 209 145c6 10 14 17 19 17c3 0 5 -2 5 -7c0 -4 -1 -10 -4 -18
c-12 -35 -94 -208 -259 -208c-99 0 -143 73 -143 148c0 96 56 157 122 177c-30 20 -53 53 -53 102c0 128 113 296 215 296c23 0 51 -13 59 -24c42 -20 55 -57 55 -99c0 -61 -26 -133 -28 -181c-1 -24 -30 -37 -56 -37c-23 0 -44 10 -44 31c0 72 71 158 71 225
c0 15 -3 28 -11 41h-5zM183 758c0 10 14 8 107 145c8 12 30 22 49 22c11 0 20 -3 23 -12c45 -133 75 -138 75 -153c0 -14 -29 -29 -51 -29c-36 0 -70 84 -83 124c-17 -28 -66 -111 -98 -111c-11 0 -22 6 -22 14z" />
    <glyph glyph-name="Edieresis" unicode="&#xcb;" horiz-adv-x="363" 
d="M306 666c-67 0 -169 -179 -169 -279c0 -33 11 -57 37 -64c8 1 15 2 22 2c21 0 36 -7 36 -20c0 -15 -17 -21 -35 -21c-13 0 -26 2 -37 6c-53 -16 -85 -81 -85 -139c0 -50 24 -93 79 -93c126 0 196 124 209 145c6 10 14 17 19 17c3 0 5 -2 5 -7c0 -4 -1 -10 -4 -18
c-12 -35 -94 -208 -259 -208c-99 0 -143 73 -143 148c0 96 56 157 122 177c-30 20 -53 53 -53 102c0 128 113 296 215 296c23 0 51 -13 59 -24c42 -20 55 -57 55 -99c0 -61 -26 -133 -28 -181c-1 -24 -30 -37 -56 -37c-23 0 -44 10 -44 31c0 72 71 158 71 225
c0 15 -3 28 -11 41h-5zM361 748c-27 0 -38 16 -38 37c0 28 23 63 57 63c26 0 38 -19 38 -40c0 -28 -21 -60 -57 -60zM224 750c-20 0 -38 11 -38 35c0 26 22 57 57 57c25 0 35 -16 35 -35c0 -26 -21 -57 -54 -57z" />
    <glyph glyph-name="Igrave" unicode="&#xcc;" horiz-adv-x="322" 
d="M244 627c0 25 -6 45 -22 52c-68 -3 -169 -188 -169 -300c0 -40 13 -71 46 -80c11 -3 16 -9 16 -14s-6 -10 -19 -10c-84 0 -117 79 -117 139c0 127 111 293 225 293c58 0 108 -33 108 -119c0 -151 -47 -326 -117 -577c-4 -14 -19 -19 -35 -19c-25 0 -53 13 -53 35
c0 31 137 435 137 600zM305 715c-33 0 -144 95 -144 148c0 22 21 42 39 42c32 0 25 -41 58 -96c35 -58 55 -66 55 -87c0 -4 -3 -7 -8 -7z" />
    <glyph glyph-name="Iacute" unicode="&#xcd;" horiz-adv-x="322" 
d="M244 627c0 25 -6 45 -22 52c-68 -3 -169 -188 -169 -300c0 -40 13 -71 46 -80c11 -3 16 -9 16 -14s-6 -10 -19 -10c-84 0 -117 79 -117 139c0 127 111 293 225 293c58 0 108 -33 108 -119c0 -151 -47 -326 -117 -577c-4 -14 -19 -19 -35 -19c-25 0 -53 13 -53 35
c0 31 137 435 137 600zM359 866c0 -20 -27 -53 -60 -79c-38 -30 -83 -53 -101 -53c-6 0 -9 3 -9 7c0 16 23 23 68 82c43 56 37 86 64 86c19 0 38 -22 38 -43z" />
    <glyph glyph-name="Icircumflex" unicode="&#xce;" horiz-adv-x="322" 
d="M244 627c0 25 -6 45 -22 52c-68 -3 -169 -188 -169 -300c0 -40 13 -71 46 -80c11 -3 16 -9 16 -14s-6 -10 -19 -10c-84 0 -117 79 -117 139c0 127 111 293 225 293c58 0 108 -33 108 -119c0 -151 -47 -326 -117 -577c-4 -14 -19 -19 -35 -19c-25 0 -53 13 -53 35
c0 31 137 435 137 600zM115 742c0 10 14 8 107 145c8 12 30 22 49 22c11 0 20 -3 23 -12c45 -133 75 -138 75 -153c0 -14 -29 -29 -51 -29c-36 0 -70 84 -83 124c-17 -28 -66 -111 -98 -111c-11 0 -22 6 -22 14z" />
    <glyph glyph-name="Idieresis" unicode="&#xcf;" horiz-adv-x="322" 
d="M244 627c0 25 -6 45 -22 52c-68 -3 -169 -188 -169 -300c0 -40 13 -71 46 -80c11 -3 16 -9 16 -14s-6 -10 -19 -10c-84 0 -117 79 -117 139c0 127 111 293 225 293c58 0 108 -33 108 -119c0 -151 -47 -326 -117 -577c-4 -14 -19 -19 -35 -19c-25 0 -53 13 -53 35
c0 31 137 435 137 600zM316 746c-27 0 -38 16 -38 37c0 28 23 63 57 63c26 0 38 -19 38 -40c0 -28 -21 -60 -57 -60zM179 748c-20 0 -38 11 -38 35c0 26 22 57 57 57c25 0 35 -16 35 -35c0 -26 -21 -57 -54 -57z" />
    <glyph glyph-name="Eth" unicode="&#xd0;" horiz-adv-x="494" 
d="M81 512c-5 -11 -12 -15 -21 -15c-24 0 -56 37 -56 71c0 51 105 142 226 142c44 0 94 -7 139 -48c75 -49 106 -138 106 -236c0 -200 -120 -435 -298 -435c-165 0 -221 58 -221 81c0 22 23 45 47 45c21 0 32 -22 58 -45c31 19 49 91 65 179c-28 0 -67 1 -67 18
c0 21 35 29 75 29c15 96 30 204 56 284c6 19 25 27 44 27c26 0 53 -15 53 -37c0 -26 -20 -56 -59 -274c9 0 18 1 28 1c15 0 22 -4 22 -12c0 -17 -27 -30 -61 -34c-27 -98 -65 -182 -128 -203c25 -21 61 -37 100 -37c120 0 193 297 193 486c0 64 -8 115 -27 140
c-24 12 -50 17 -75 17c-79 0 -158 -53 -199 -144z" />
    <glyph glyph-name="Oacute" unicode="&#xd3;" horiz-adv-x="436" 
d="M249 703c138 0 168 -120 168 -230c0 -206 -116 -479 -264 -479c-102 0 -156 101 -156 235c0 69 7 148 76 185c-9 21 -12 44 -12 68c0 105 76 221 188 221zM324 548c0 43 2 98 -36 125c-78 -1 -139 -119 -139 -217c0 -47 14 -89 47 -112c7 -5 10 -10 10 -15
c0 -4 -3 -7 -11 -7c-29 0 -62 20 -80 34l-4 -14c-18 -61 -31 -123 -29 -177c0 -74 17 -131 57 -148c93 1 185 337 185 531zM395 854c0 -20 -27 -53 -60 -79c-38 -30 -83 -53 -101 -53c-6 0 -9 3 -9 7c0 16 23 23 68 82c43 56 37 86 64 86c19 0 38 -22 38 -43z" />
    <glyph glyph-name="Ocircumflex" unicode="&#xd4;" horiz-adv-x="436" 
d="M249 703c138 0 168 -120 168 -230c0 -206 -116 -479 -264 -479c-102 0 -156 101 -156 235c0 69 7 148 76 185c-9 21 -12 44 -12 68c0 105 76 221 188 221zM324 548c0 43 2 98 -36 125c-78 -1 -139 -119 -139 -217c0 -47 14 -89 47 -112c7 -5 10 -10 10 -15
c0 -4 -3 -7 -11 -7c-29 0 -62 20 -80 34l-4 -14c-18 -61 -31 -123 -29 -177c0 -74 17 -131 57 -148c93 1 185 337 185 531zM169 745c0 10 14 8 107 145c8 12 30 22 49 22c11 0 20 -3 23 -12c45 -133 75 -138 75 -153c0 -14 -29 -29 -51 -29c-36 0 -70 84 -83 124
c-17 -28 -66 -111 -98 -111c-11 0 -22 6 -22 14z" />
    <glyph glyph-name="Otilde" unicode="&#xd5;" horiz-adv-x="436" 
d="M249 703c138 0 168 -120 168 -230c0 -206 -116 -479 -264 -479c-102 0 -156 101 -156 235c0 69 7 148 76 185c-9 21 -12 44 -12 68c0 105 76 221 188 221zM324 548c0 43 2 98 -36 125c-78 -1 -139 -119 -139 -217c0 -47 14 -89 47 -112c7 -5 10 -10 10 -15
c0 -4 -3 -7 -11 -7c-29 0 -62 20 -80 34l-4 -14c-18 -61 -31 -123 -29 -177c0 -74 17 -131 57 -148c93 1 185 337 185 531zM150 755c0 56 37 93 94 93c40 0 86 -30 123 -30c19 0 35 8 48 30c5 8 10 12 14 12c7 0 12 -9 12 -20c0 -69 -39 -97 -89 -97c-47 0 -97 39 -134 39
c-18 0 -34 -10 -45 -37c-3 -7 -7 -10 -11 -10c-6 0 -12 7 -12 20z" />
    <glyph glyph-name="Odieresis" unicode="&#xd6;" horiz-adv-x="436" 
d="M249 703c138 0 168 -120 168 -230c0 -206 -116 -479 -264 -479c-102 0 -156 101 -156 235c0 69 7 148 76 185c-9 21 -12 44 -12 68c0 105 76 221 188 221zM324 548c0 43 2 98 -36 125c-78 -1 -139 -119 -139 -217c0 -47 14 -89 47 -112c7 -5 10 -10 10 -15
c0 -4 -3 -7 -11 -7c-29 0 -62 20 -80 34l-4 -14c-18 -61 -31 -123 -29 -177c0 -74 17 -131 57 -148c93 1 185 337 185 531zM356 745c-27 0 -38 16 -38 37c0 28 23 63 57 63c26 0 38 -19 38 -40c0 -28 -21 -60 -57 -60zM219 747c-20 0 -38 11 -38 35c0 26 22 57 57 57
c25 0 35 -16 35 -35c0 -26 -21 -57 -54 -57z" />
    <glyph glyph-name="Oslash" unicode="&#xd8;" horiz-adv-x="436" 
d="M249 703c138 0 168 -120 168 -230c0 -206 -116 -479 -264 -479c-27 0 -51 7 -71 20l-8 -16c-8 -15 -17 -23 -22 -23c-4 0 -7 4 -7 10s2 15 8 26l9 19c-43 41 -65 113 -65 199c0 69 7 148 76 185c-9 21 -12 44 -12 68c0 105 76 221 188 221zM324 556
c-51 -124 -112 -280 -222 -502c9 -18 21 -31 37 -37c93 1 185 337 185 539zM196 344l118 293c-5 14 -13 27 -26 36c-78 -1 -139 -119 -139 -217c0 -47 14 -89 47 -112zM89 91l98 231c-27 3 -56 21 -72 34c-24 -84 -46 -176 -26 -265z" />
    <glyph glyph-name="Uacute" unicode="&#xda;" horiz-adv-x="543" 
d="M546 657c0 -65 -120 -456 -120 -563c0 -23 4 -34 14 -34c37 0 92 121 103 143c6 11 12 17 17 17c4 0 7 -4 7 -10c0 -5 -1 -10 -4 -17c-14 -35 -72 -199 -156 -199c-39 0 -75 28 -72 114c-25 -65 -59 -118 -106 -118c-50 0 -90 52 -90 139c0 131 105 328 105 496
c0 33 -8 49 -22 54c-68 -3 -169 -188 -169 -300c0 -40 13 -71 46 -80c11 -3 16 -9 16 -14s-6 -10 -19 -10c-84 0 -117 79 -117 139c0 127 111 293 225 293c12 0 23 -3 32 -7c46 -7 80 -41 80 -112c0 -151 -86 -339 -86 -452c0 -47 17 -66 38 -66c38 0 76 135 94 221
c28 136 67 301 92 393c4 16 20 24 37 24c26 0 55 -18 55 -51zM491 857c0 -20 -27 -53 -60 -79c-38 -30 -83 -53 -101 -53c-6 0 -9 3 -9 7c0 16 23 23 68 82c43 56 37 86 64 86c19 0 38 -22 38 -43z" />
    <glyph glyph-name="Ucircumflex" unicode="&#xdb;" horiz-adv-x="543" 
d="M546 657c0 -65 -120 -456 -120 -563c0 -23 4 -34 14 -34c37 0 92 121 103 143c6 11 12 17 17 17c4 0 7 -4 7 -10c0 -5 -1 -10 -4 -17c-14 -35 -72 -199 -156 -199c-39 0 -75 28 -72 114c-25 -65 -59 -118 -106 -118c-50 0 -90 52 -90 139c0 131 105 328 105 496
c0 33 -8 49 -22 54c-68 -3 -169 -188 -169 -300c0 -40 13 -71 46 -80c11 -3 16 -9 16 -14s-6 -10 -19 -10c-84 0 -117 79 -117 139c0 127 111 293 225 293c12 0 23 -3 32 -7c46 -7 80 -41 80 -112c0 -151 -86 -339 -86 -452c0 -47 17 -66 38 -66c38 0 76 135 94 221
c28 136 67 301 92 393c4 16 20 24 37 24c26 0 55 -18 55 -51zM264 760c0 10 14 8 107 145c8 12 30 22 49 22c11 0 20 -3 23 -12c45 -133 75 -138 75 -153c0 -14 -29 -29 -51 -29c-36 0 -70 84 -83 124c-17 -28 -66 -111 -98 -111c-11 0 -22 6 -22 14z" />
    <glyph glyph-name="Udieresis" unicode="&#xdc;" horiz-adv-x="543" 
d="M546 657c0 -65 -120 -456 -120 -563c0 -23 4 -34 14 -34c37 0 92 121 103 143c6 11 12 17 17 17c4 0 7 -4 7 -10c0 -5 -1 -10 -4 -17c-14 -35 -72 -199 -156 -199c-39 0 -75 28 -72 114c-25 -65 -59 -118 -106 -118c-50 0 -90 52 -90 139c0 131 105 328 105 496
c0 33 -8 49 -22 54c-68 -3 -169 -188 -169 -300c0 -40 13 -71 46 -80c11 -3 16 -9 16 -14s-6 -10 -19 -10c-84 0 -117 79 -117 139c0 127 111 293 225 293c12 0 23 -3 32 -7c46 -7 80 -41 80 -112c0 -151 -86 -339 -86 -452c0 -47 17 -66 38 -66c38 0 76 135 94 221
c28 136 67 301 92 393c4 16 20 24 37 24c26 0 55 -18 55 -51zM454 749c-27 0 -38 16 -38 37c0 28 23 63 57 63c26 0 38 -19 38 -40c0 -28 -21 -60 -57 -60zM317 751c-20 0 -38 11 -38 35c0 26 22 57 57 57c25 0 35 -16 35 -35c0 -26 -21 -57 -54 -57z" />
    <glyph glyph-name="Yacute" unicode="&#xdd;" horiz-adv-x="561" 
d="M233 -240c-40 0 -86 29 -86 75c0 93 90 127 179 166l42 186c-31 -66 -67 -111 -112 -111c-42 0 -77 40 -77 118c0 134 89 345 89 443c0 25 -11 38 -22 42c-68 -3 -169 -188 -169 -299c0 -41 13 -72 46 -81c11 -3 16 -9 16 -14s-6 -10 -19 -10c-84 0 -117 79 -117 139
c0 127 111 293 225 293c12 0 23 -3 32 -7c46 -7 80 -41 80 -112c0 -73 -70 -296 -70 -369c0 -43 10 -65 29 -65c41 0 87 134 118 250c28 123 54 233 69 286c4 15 16 22 29 22c25 0 55 -23 55 -56c0 -4 0 -8 -1 -12c-32 -147 -99 -429 -140 -589c51 33 98 78 132 148
c5 11 12 16 17 16c4 0 7 -3 7 -10c0 -4 -2 -10 -4 -16c-42 -104 -103 -156 -165 -190l-6 -23c-42 -159 -118 -220 -177 -220zM182 -177c0 -16 8 -32 26 -32c31 0 73 36 107 167c-55 -24 -133 -64 -133 -135zM510 874c0 -20 -27 -53 -60 -79c-38 -30 -83 -53 -101 -53
c-6 0 -9 3 -9 7c0 16 23 23 68 82c43 56 37 86 64 86c19 0 38 -22 38 -43z" />
    <glyph glyph-name="aacute" unicode="&#xe1;" horiz-adv-x="375" 
d="M324 361c-27 -127 -62 -235 -62 -283c0 -15 5 -25 14 -25c21 0 52 53 99 150c5 11 13 17 18 17c3 0 6 -3 6 -10c0 -4 -1 -10 -4 -17c-14 -35 -77 -199 -154 -199c-31 0 -68 17 -68 92c0 5 0 12 1 19c-33 -68 -71 -111 -103 -111c-54 0 -77 58 -77 136
c0 152 88 378 203 378c40 0 65 -43 67 -74h6c25 0 55 -21 55 -58c0 -5 0 -10 -1 -15zM101 62c37 0 81 95 106 206l32 144c0 17 -3 38 -27 38c-67 0 -128 -234 -128 -339c0 -30 5 -49 17 -49zM329 669c0 -20 -27 -53 -60 -79c-38 -30 -83 -53 -101 -53c-6 0 -9 3 -9 7
c0 16 23 23 68 82c43 56 37 86 64 86c19 0 38 -22 38 -43z" />
    <glyph glyph-name="acircumflex" unicode="&#xe2;" horiz-adv-x="375" 
d="M324 361c-27 -127 -62 -235 -62 -283c0 -15 5 -25 14 -25c21 0 52 53 99 150c5 11 13 17 18 17c3 0 6 -3 6 -10c0 -4 -1 -10 -4 -17c-14 -35 -77 -199 -154 -199c-31 0 -68 17 -68 92c0 5 0 12 1 19c-33 -68 -71 -111 -103 -111c-54 0 -77 58 -77 136
c0 152 88 378 203 378c40 0 65 -43 67 -74h6c25 0 55 -21 55 -58c0 -5 0 -10 -1 -15zM101 62c37 0 81 95 106 206l32 144c0 17 -3 38 -27 38c-67 0 -128 -234 -128 -339c0 -30 5 -49 17 -49zM115 565c0 10 14 8 107 145c8 12 30 22 49 22c11 0 20 -3 23 -12
c45 -133 75 -138 75 -153c0 -14 -29 -29 -51 -29c-36 0 -70 84 -83 124c-17 -28 -66 -111 -98 -111c-11 0 -22 6 -22 14z" />
    <glyph glyph-name="aring" unicode="&#xe5;" horiz-adv-x="375" 
d="M324 361c-27 -127 -62 -235 -62 -283c0 -15 5 -25 14 -25c21 0 52 53 99 150c5 11 13 17 18 17c3 0 6 -3 6 -10c0 -4 -1 -10 -4 -17c-14 -35 -77 -199 -154 -199c-31 0 -68 17 -68 92c0 5 0 12 1 19c-33 -68 -71 -111 -103 -111c-54 0 -77 58 -77 136
c0 152 88 378 203 378c40 0 65 -43 67 -74h6c25 0 55 -21 55 -58c0 -5 0 -10 -1 -15zM101 62c37 0 81 95 106 206l32 144c0 17 -3 38 -27 38c-67 0 -128 -234 -128 -339c0 -30 5 -49 17 -49zM272 712c54 0 79 -49 79 -86c0 -46 -33 -94 -93 -94c-62 0 -92 40 -92 86
c0 53 43 94 106 94zM276 691c-33 1 -52 -52 -52 -95c0 -18 5 -42 18 -42c28 0 54 54 54 96c0 20 -6 36 -20 41z" />
    <glyph glyph-name="ccedilla" unicode="&#xe7;" horiz-adv-x="346" 
d="M249 429c0 21 -14 39 -24 39c-56 0 -131 -189 -131 -313c0 -67 20 -108 73 -108c79 0 151 99 179 156c5 11 11 15 16 15c4 0 7 -3 7 -10c0 -4 -1 -9 -3 -15c-35 -86 -116 -203 -231 -203c-100 0 -139 82 -139 184c0 149 86 334 193 334c22 0 42 -9 54 -19
c45 -8 62 -60 62 -114c0 -72 -20 -134 -74 -134c-23 0 -45 13 -45 31c0 40 63 74 63 157zM89 32l41 -4c-3 -33 -10 -61 -18 -85h15c72 0 105 -40 105 -82c0 -46 -41 -95 -111 -95c-14 0 -29 1 -29 10c0 5 5 10 15 10c31 0 53 35 53 68c0 29 -17 57 -59 57h-3
c-15 -26 -32 -41 -47 -41c-11 0 -20 9 -20 21c0 18 16 33 39 42c9 27 15 61 19 99z" />
    <glyph glyph-name="Ccedilla" unicode="&#xc7;" horiz-adv-x="356" 
d="M278 707c20 0 39 -7 47 -17c35 -17 46 -52 46 -94c0 -77 -39 -177 -40 -229c-1 -25 -26 -37 -51 -37s-49 11 -49 31c0 75 87 197 87 276c0 12 -2 24 -7 34c-105 -2 -226 -285 -226 -466c0 -85 27 -148 96 -148c81 0 135 78 175 146c6 10 12 17 19 17c3 0 5 -2 5 -8
c0 -4 -1 -9 -4 -17c-27 -71 -103 -205 -227 -205c-109 0 -154 98 -154 222c0 210 129 495 283 495zM95 12l41 -4c-3 -33 -10 -61 -18 -85h15c72 0 105 -40 105 -82c0 -46 -41 -95 -111 -95c-14 0 -29 1 -29 10c0 5 5 10 15 10c31 0 53 35 53 68c0 29 -17 57 -59 57h-3
c-15 -26 -32 -41 -47 -41c-11 0 -20 9 -20 21c0 18 16 33 39 42c9 27 15 61 19 99z" />
    <glyph glyph-name="eacute" unicode="&#xe9;" horiz-adv-x="329" 
d="M246 491c42 -5 61 -43 61 -92c0 -96 -72 -231 -178 -231c-12 0 -25 2 -38 6c0 -44 4 -120 66 -120c95 0 146 108 172 149c6 10 11 14 16 14c4 0 7 -4 7 -10c0 -4 -1 -9 -3 -14c-45 -112 -115 -200 -230 -200c-86 0 -121 78 -121 173c0 149 86 342 191 342
c22 0 45 -7 57 -17zM93 201c3 -1 5 -1 8 -1c59 0 144 158 144 236c0 16 -2 33 -17 33c-57 0 -123 -148 -135 -268zM325 669c0 -20 -27 -53 -60 -79c-38 -30 -83 -53 -101 -53c-6 0 -9 3 -9 7c0 16 23 23 68 82c43 56 37 86 64 86c19 0 38 -22 38 -43z" />
    <glyph glyph-name="ecircumflex" unicode="&#xea;" horiz-adv-x="329" 
d="M246 491c42 -5 61 -43 61 -92c0 -96 -72 -231 -178 -231c-12 0 -25 2 -38 6c0 -44 4 -120 66 -120c95 0 146 108 172 149c6 10 11 14 16 14c4 0 7 -4 7 -10c0 -4 -1 -9 -3 -14c-45 -112 -115 -200 -230 -200c-86 0 -121 78 -121 173c0 149 86 342 191 342
c22 0 45 -7 57 -17zM93 201c3 -1 5 -1 8 -1c59 0 144 158 144 236c0 16 -2 33 -17 33c-57 0 -123 -148 -135 -268zM115 565c0 10 14 8 107 145c8 12 30 22 49 22c11 0 20 -3 23 -12c45 -133 75 -138 75 -153c0 -14 -29 -29 -51 -29c-36 0 -70 84 -83 124
c-17 -28 -66 -111 -98 -111c-11 0 -22 6 -22 14z" />
    <glyph glyph-name="iacute" unicode="&#xed;" horiz-adv-x="194" 
d="M155 449c-27 -130 -82 -288 -82 -356c0 -21 5 -33 18 -33c37 0 92 121 103 143c6 11 12 17 17 17c4 0 7 -4 7 -10c0 -5 -1 -10 -4 -17c-14 -35 -72 -199 -156 -199c-39 0 -72 28 -72 103c0 60 38 245 78 392c5 17 21 26 40 26c25 0 52 -17 52 -51c0 -5 0 -10 -1 -15z
M239 669c0 -20 -27 -53 -60 -79c-38 -30 -83 -53 -101 -53c-6 0 -9 3 -9 7c0 16 23 23 68 82c43 56 37 86 64 86c19 0 38 -22 38 -43z" />
    <glyph glyph-name="icircumflex" unicode="&#xee;" horiz-adv-x="194" 
d="M155 449c-27 -130 -82 -288 -82 -356c0 -21 5 -33 18 -33c37 0 92 121 103 143c6 11 12 17 17 17c4 0 7 -4 7 -10c0 -5 -1 -10 -4 -17c-14 -35 -72 -199 -156 -199c-39 0 -72 28 -72 103c0 60 38 245 78 392c5 17 21 26 40 26c25 0 52 -17 52 -51c0 -5 0 -10 -1 -15z
M12 565c0 10 14 8 107 145c8 12 30 22 49 22c11 0 20 -3 23 -12c45 -133 75 -138 75 -153c0 -14 -29 -29 -51 -29c-36 0 -70 84 -83 124c-17 -28 -66 -111 -98 -111c-11 0 -22 6 -22 14z" />
    <glyph glyph-name="oacute" unicode="&#xf3;" horiz-adv-x="374" 
d="M210 472c-34 0 -70 -83 -70 -170c0 -59 18 -118 65 -146c22 71 38 161 38 226c0 52 -9 90 -33 90zM138 42c19 3 38 34 55 79c-53 18 -83 59 -99 107c-7 -32 -11 -65 -11 -94c0 -53 13 -93 46 -93c3 0 6 0 9 1zM394 195c-13 -37 -66 -84 -134 -84
c-39 -69 -92 -118 -149 -118c-80 0 -113 75 -113 167c0 74 19 146 45 201c8 18 25 42 50 38c19 63 60 111 123 111c80 0 113 -68 113 -154c0 -69 -20 -149 -53 -216c36 1 74 18 98 63c6 10 11 17 18 17c3 0 6 -2 6 -7c0 -4 -1 -10 -4 -18zM349 669c0 -20 -27 -53 -60 -79
c-38 -30 -83 -53 -101 -53c-6 0 -9 3 -9 7c0 16 23 23 68 82c43 56 37 86 64 86c19 0 38 -22 38 -43z" />
    <glyph glyph-name="ocircumflex" unicode="&#xf4;" horiz-adv-x="374" 
d="M210 472c-34 0 -70 -83 -70 -170c0 -59 18 -118 65 -146c22 71 38 161 38 226c0 52 -9 90 -33 90zM138 42c19 3 38 34 55 79c-53 18 -83 59 -99 107c-7 -32 -11 -65 -11 -94c0 -53 13 -93 46 -93c3 0 6 0 9 1zM394 195c-13 -37 -66 -84 -134 -84
c-39 -69 -92 -118 -149 -118c-80 0 -113 75 -113 167c0 74 19 146 45 201c8 18 25 42 50 38c19 63 60 111 123 111c80 0 113 -68 113 -154c0 -69 -20 -149 -53 -216c36 1 74 18 98 63c6 10 11 17 18 17c3 0 6 -2 6 -7c0 -4 -1 -10 -4 -18zM115 555c0 10 14 8 107 145
c8 12 30 22 49 22c11 0 20 -3 23 -12c45 -133 75 -138 75 -153c0 -14 -29 -29 -51 -29c-36 0 -70 84 -83 124c-17 -28 -66 -111 -98 -111c-11 0 -22 6 -22 14z" />
    <glyph glyph-name="oslash" unicode="&#xf8;" horiz-adv-x="374" 
d="M394 193c-15 -38 -57 -82 -134 -82c-39 -69 -92 -118 -149 -118c-80 0 -113 75 -113 167c0 96 38 236 87 239c20 62 70 111 131 111c80 0 113 -68 113 -154c0 -69 -20 -149 -53 -216c36 1 76 17 98 63c5 10 10 14 15 14c10 0 8 -17 5 -24zM210 472c-22 0 -55 -46 -70 -97
c3 -3 7 -7 3 -13c-34 -52 -60 -153 -60 -228c0 -17 2 -33 5 -46c42 94 92 214 149 353c-6 18 -14 31 -27 31zM173 159c0 25 19 45 46 45c14 59 24 123 24 174c-38 -88 -85 -190 -147 -314c7 -14 18 -23 33 -23c24 0 43 26 64 80c-12 8 -20 21 -20 38z" />
    <glyph glyph-name="uacute" unicode="&#xfa;" horiz-adv-x="376" 
d="M147 461c-32 -159 -69 -292 -69 -357c0 -27 7 -42 22 -42c58 0 96 193 141 400c7 33 31 48 55 48c22 0 43 -15 43 -41c0 -40 -84 -320 -84 -389c0 -18 4 -27 13 -27c36 0 97 128 108 150c6 12 12 17 17 17c4 0 7 -3 7 -10c0 -4 -1 -10 -4 -17c-14 -35 -79 -199 -163 -199
c-30 0 -66 16 -68 84c-27 -52 -60 -84 -101 -84c-56 0 -75 43 -75 107c0 97 42 242 62 362c5 31 31 45 54 45c22 0 43 -13 43 -37c0 -3 0 -7 -1 -10zM320 669c0 -20 -27 -53 -60 -79c-38 -30 -83 -53 -101 -53c-6 0 -9 3 -9 7c0 16 23 23 68 82c43 56 37 86 64 86
c19 0 38 -22 38 -43z" />
    <glyph glyph-name="ucircumflex" unicode="&#xfb;" horiz-adv-x="376" 
d="M147 461c-32 -159 -69 -292 -69 -357c0 -27 7 -42 22 -42c58 0 96 193 141 400c7 33 31 48 55 48c22 0 43 -15 43 -41c0 -40 -84 -320 -84 -389c0 -18 4 -27 13 -27c36 0 97 128 108 150c6 12 12 17 17 17c4 0 7 -3 7 -10c0 -4 -1 -10 -4 -17c-14 -35 -79 -199 -163 -199
c-30 0 -66 16 -68 84c-27 -52 -60 -84 -101 -84c-56 0 -75 43 -75 107c0 97 42 242 62 362c5 31 31 45 54 45c22 0 43 -13 43 -37c0 -3 0 -7 -1 -10zM100 575c0 10 14 8 107 145c8 12 30 22 49 22c11 0 20 -3 23 -12c45 -133 75 -138 75 -153c0 -14 -29 -29 -51 -29
c-36 0 -70 84 -83 124c-17 -28 -66 -111 -98 -111c-11 0 -22 6 -22 14z" />
    <glyph glyph-name="yacute" unicode="&#xfd;" horiz-adv-x="367" 
d="M50 -330c-49 0 -102 43 -102 98c0 110 106 151 207 213c4 30 9 63 15 98c-26 -54 -60 -85 -102 -85c-60 0 -80 42 -80 105c0 101 50 255 72 378c3 20 18 28 36 28c26 0 56 -19 56 -44c0 -35 -16 -86 -28 -140c-20 -88 -41 -182 -41 -221c0 -24 6 -38 21 -38
c54 0 74 116 118 287l28 128c4 17 20 25 37 25c25 0 53 -16 53 -39c0 -27 -16 -38 -80 -405c40 37 77 83 107 145c5 11 13 18 18 18c4 0 6 -3 6 -10c0 -4 -1 -10 -4 -18c-37 -93 -87 -154 -138 -199c-45 -237 -120 -324 -199 -324zM17 -298c3 -1 6 -1 10 -1
c94 0 112 152 120 218c-71 -45 -157 -93 -157 -173c0 -22 12 -35 27 -44zM315 669c0 -20 -27 -53 -60 -79c-38 -30 -83 -53 -101 -53c-6 0 -9 3 -9 7c0 16 23 23 68 82c43 56 37 86 64 86c19 0 38 -22 38 -43z" />
    <glyph glyph-name="thorn" unicode="&#xfe;" horiz-adv-x="376" 
d="M132 -10c-44 0 -71 10 -86 21c-55 -245 -43 -295 -89 -295c-21 0 -43 17 -43 49c0 43 138 710 209 959c7 25 27 36 46 36c22 0 43 -14 43 -38c0 -25 -37 -159 -73 -311c28 57 63 98 104 98c61 0 86 -58 86 -131c0 -118 -63 -282 -146 -351c91 20 145 77 193 176
c5 11 11 16 16 16c4 0 7 -4 7 -11c0 -5 -1 -9 -3 -15c-51 -126 -118 -203 -264 -203zM105 267c-16 -68 -32 -136 -46 -201c11 0 24 -7 36 -23c68 12 137 230 137 337c0 36 -8 57 -26 57c-33 0 -70 -71 -101 -170z" />
    <glyph glyph-name="fi" unicode="&#xfb01;" horiz-adv-x="503" 
d="M338 634c0 -239 -157 -448 -253 -452c-8 -41 -17 -83 -26 -132c110 14 198 45 250 153c5 10 11 15 16 15c4 0 7 -4 7 -11c0 -4 -1 -9 -3 -14c-49 -119 -144 -169 -266 -192c36 -17 65 -94 65 -166c0 -67 -26 -129 -98 -129c-60 0 -82 56 -82 145c0 96 25 229 55 371
c59 280 113 527 250 527c24 0 42 -13 46 -29c15 -8 39 -31 39 -86zM293 673c0 23 -1 38 -20 38c-45 0 -105 -175 -182 -496c92 82 202 364 202 458zM24 -263c25 0 48 48 48 114c0 37 -8 80 -27 123c-33 -155 -38 -182 -38 -203s7 -34 17 -34zM429 561c-31 0 -45 22 -45 48
c0 43 35 99 90 99c41 0 59 -24 59 -52c0 -42 -41 -95 -104 -95zM465 464c0 -53 -83 -294 -83 -371c0 -21 5 -33 18 -33c37 0 92 121 103 143c6 11 12 17 17 17c4 0 7 -4 7 -10c0 -5 -1 -10 -4 -17c-14 -35 -72 -199 -156 -199c-39 0 -72 28 -72 103c0 60 38 245 78 392
c5 17 21 26 40 26c25 0 52 -17 52 -51z" />
    <glyph glyph-name="fl" unicode="&#xfb02;" horiz-adv-x="582" 
d="M338 634c0 -239 -157 -448 -253 -452c-8 -41 -17 -83 -26 -132c110 14 198 45 250 153c5 10 11 15 16 15c4 0 7 -4 7 -11c0 -4 -1 -9 -3 -14c-49 -119 -144 -169 -266 -192c36 -17 65 -94 65 -166c0 -67 -26 -129 -98 -129c-60 0 -82 56 -82 145c0 96 25 229 55 371
c59 280 113 527 250 527c24 0 42 -13 46 -29c15 -8 39 -31 39 -86zM293 673c0 23 -1 38 -20 38c-45 0 -105 -175 -182 -496c92 82 202 364 202 458zM24 -263c25 0 48 48 48 114c0 37 -8 80 -27 123c-33 -155 -38 -182 -38 -203s7 -34 17 -34zM518 751c18 0 33 -10 40 -20
c26 -15 44 -34 44 -101c0 -138 -76 -397 -197 -385c-8 -51 -13 -96 -13 -127c0 -43 12 -63 40 -63c53 0 115 78 150 148c5 11 11 15 16 15c4 0 7 -4 7 -11c0 -4 -1 -8 -3 -14c-31 -77 -117 -202 -203 -202c-68 0 -91 61 -91 151c0 57 9 126 23 198c37 200 96 411 187 411z
M543 711c-36 -11 -103 -259 -134 -442c81 66 137 282 137 399c0 16 -1 31 -3 43z" />
    <glyph glyph-name="Lslash" unicode="&#x141;" horiz-adv-x="378" 
d="M228 248c-49 -29 -127 -63 -241 -82c-5 -1 -9 -1 -12 -1c-14 0 -20 5 -20 11c0 10 13 23 36 28c100 21 179 44 240 78c7 4 12 5 15 5c5 0 8 -3 8 -7c0 -8 -9 -22 -26 -32zM288 691c52 -24 63 -79 63 -141c0 -42 -5 -87 -5 -128c0 -19 3 -37 3 -53c0 -30 -23 -44 -48 -44
c-33 0 -53 21 -53 65c0 69 39 162 39 230c0 20 -3 38 -12 53c-4 0 -7 0 -15 -2c-60 -18 -89 -462 -205 -578c35 -6 75 -19 131 -19c90 0 180 108 193 129c5 8 12 13 16 13s7 -3 7 -9c0 -4 -1 -8 -3 -14c-12 -35 -127 -200 -256 -200c-73 0 -96 21 -134 21
c-60 0 -59 -17 -76 -17c-6 0 -10 4 -10 11c0 31 37 65 69 79c105 113 73 617 255 617c21 0 36 -13 41 -13z" />
    <glyph glyph-name="lslash" unicode="&#x142;" horiz-adv-x="273" 
d="M228 283c-49 -29 -127 -63 -241 -82c-5 -1 -9 -1 -12 -1c-14 0 -20 5 -20 11c0 10 13 23 36 28c100 21 179 44 240 78c7 4 12 5 15 5c5 0 8 -3 8 -7c0 -8 -9 -22 -26 -32zM209 751c18 0 33 -10 40 -20c26 -15 44 -34 44 -101c0 -138 -76 -397 -197 -385
c-8 -51 -13 -96 -13 -127c0 -43 12 -63 40 -63c53 0 115 78 150 148c5 11 11 15 16 15c4 0 7 -4 7 -11c0 -4 -1 -8 -3 -14c-31 -77 -117 -202 -203 -202c-68 0 -91 61 -91 151c0 57 9 126 23 198c37 200 96 411 187 411zM234 711c-36 -11 -103 -259 -134 -442
c81 66 137 282 137 399c0 16 -1 31 -3 43z" />
    <glyph glyph-name="Zcaron" unicode="&#x17d;" horiz-adv-x="378" 
d="M110 232c9 -3 15 -9 15 -14c0 -4 -4 -7 -15 -7c-88 0 -125 82 -125 163c0 146 106 337 242 337c107 0 154 -81 154 -208c0 -162 -85 -369 -223 -417c26 -12 43 -30 53 -52c63 34 125 82 167 169c5 11 12 16 17 16c4 0 7 -3 7 -10c0 -4 -2 -10 -4 -16
c-45 -110 -111 -162 -177 -195c1 -7 1 -14 1 -21c0 -97 -81 -215 -173 -215c-32 0 -85 17 -85 74c0 91 88 126 174 163c-2 32 -11 61 -32 77c-7 -2 -16 -4 -24 -4c-19 0 -29 7 -29 17c0 11 16 15 27 15c13 0 23 -2 34 -4c102 49 178 291 178 451c0 67 -13 119 -44 136
c-1 0 -1 0 -2 1c-85 0 -176 -226 -176 -362c0 -48 11 -85 40 -94zM-1 -177c0 -19 10 -33 28 -33c50 0 98 89 109 169c-58 -24 -137 -64 -137 -136zM405 917c0 -10 -14 -8 -107 -145c-8 -12 -30 -22 -49 -22c-11 0 -20 3 -23 12c-45 133 -75 138 -75 153c0 14 29 29 51 29
c36 0 70 -84 83 -124c17 28 66 111 98 111c11 0 22 -6 22 -14z" />
    <glyph glyph-name="zcaron" unicode="&#x17e;" horiz-adv-x="365" 
d="M20 193c-7 -14 -14 -20 -19 -20c-4 0 -6 3 -6 9c0 5 1 12 5 21c29 72 48 136 66 211c-11 11 -16 24 -16 38c0 28 22 56 43 56c14 0 26 -14 26 -43c70 1 181 47 201 47c22 0 35 -19 35 -41c0 -18 -11 -42 -37 -53l-23 -10c7 -19 10 -39 10 -60c0 -99 -75 -209 -158 -270
c25 -11 43 -29 56 -51c64 44 125 97 162 176c5 11 13 18 19 18c4 0 6 -3 6 -8s-1 -11 -5 -20c-41 -94 -104 -156 -168 -205c2 -12 4 -25 4 -39c0 -92 -65 -280 -183 -280c-16 0 -45 6 -51 18c-26 7 -52 41 -52 81c0 100 98 154 195 213c-4 27 -14 52 -33 67
c-22 -10 -43 -17 -63 -17c-24 0 -37 10 -37 25c0 18 21 39 64 39c11 0 22 -1 32 -2c60 65 124 222 169 305c-29 -7 -60 -11 -88 -11c-26 0 -51 3 -71 9c-25 -80 -42 -120 -83 -203zM125 -109c2 11 4 23 5 35c-70 -49 -153 -106 -153 -180c0 -22 9 -35 24 -44c3 -1 6 -1 9 -1
c32 0 81 40 115 190zM382 717c0 -10 -14 -8 -107 -145c-8 -12 -30 -22 -49 -22c-11 0 -20 3 -23 12c-45 133 -75 138 -75 153c0 14 29 29 51 29c36 0 70 -84 83 -124c17 28 66 111 98 111c11 0 22 -6 22 -14z" />
    <glyph glyph-name="Thorn" unicode="&#xde;" horiz-adv-x="447" 
d="M69 390c-5 -11 -12 -15 -21 -15c-24 0 -56 37 -56 71c0 48 96 130 192 140c11 43 22 122 59 122c28 0 64 -24 64 -49c0 -2 0 -5 -1 -7l-20 -74c20 -6 39 -14 65 -32c62 -38 95 -106 95 -174c0 -144 -133 -205 -262 -195c-19 -77 -33 -140 -38 -168
c-2 -11 -13 -16 -26 -16c-22 0 -48 13 -48 34c0 43 13 103 24 164c-27 7 -38 18 -38 26c0 17 34 6 44 3c16 87 37 184 61 282c-38 -24 -72 -63 -94 -112zM274 534c-26 -102 -57 -219 -81 -318c108 14 174 94 174 194c0 34 -7 70 -24 107c-22 10 -45 16 -69 17z" />
    <glyph glyph-name="Scaron" unicode="&#x160;" horiz-adv-x="397" 
d="M171 432c0 -115 154 -153 154 -274c0 -49 -25 -90 -50 -105c-14 -32 -74 -63 -146 -63c-52 0 -99 16 -181 92c-7 7 -11 14 -11 23c0 22 28 45 61 45c68 0 78 -99 193 -99c62 0 78 29 78 52c0 81 -195 144 -195 305c0 124 117 302 207 302c28 0 61 -17 63 -30
c40 -19 52 -59 52 -89c0 -22 -6 -59 -28 -185c-6 -34 -22 -50 -51 -50c-26 0 -49 12 -49 48c0 64 71 156 71 220c0 15 -4 29 -12 42c-71 3 -156 -149 -156 -234zM452 907c0 -10 -14 -8 -107 -145c-8 -12 -30 -22 -49 -22c-11 0 -20 3 -23 12c-45 133 -75 138 -75 153
c0 14 29 29 51 29c36 0 70 -84 83 -124c17 28 66 111 98 111c11 0 22 -6 22 -14z" />
    <glyph glyph-name="breve" unicode="&#x2d8;" horiz-adv-x="268" 
d="M142 665c1 -20 48 -36 84 -36c39 0 43 26 52 26c4 0 8 -3 8 -9c0 -48 -35 -69 -74 -69c-56 0 -89 29 -89 76c0 17 4 24 10 24c4 0 9 -5 9 -12z" />
    <glyph glyph-name="dotaccent" unicode="&#x2d9;" horiz-adv-x="161" 
d="M154 536c-20 0 -35 10 -35 32c0 24 20 53 52 53c24 0 33 -15 33 -33c0 -24 -19 -52 -50 -52z" />
    <glyph glyph-name="hungarumlaut" unicode="&#x2dd;" horiz-adv-x="347" 
d="M120 545c-10 -6 -17 -9 -22 -9s-8 2 -8 6c0 6 4 15 13 26c32 42 50 74 71 140c4 15 13 21 24 21c19 0 41 -21 41 -44c0 -4 -1 -9 -3 -14c-25 -54 -61 -90 -116 -126zM209 543c-9 -4 -16 -6 -21 -6c-6 0 -9 3 -9 7c0 5 5 14 17 25c38 36 61 65 92 126c6 12 15 17 23 17
c19 0 38 -22 38 -43c0 -7 -2 -14 -6 -20c-33 -49 -74 -79 -134 -106z" />
    <glyph glyph-name="ogonek" unicode="&#x2db;" horiz-adv-x="260" 
d="M185 18c8 6 15 8 20 8c6 0 9 -4 9 -9c0 -2 -1 -6 -3 -9c-28 -42 -43 -80 -43 -110c0 -44 30 -72 90 -72c8 0 17 1 26 1s13 -3 13 -6c0 -23 -67 -39 -104 -39c-59 0 -93 41 -93 93c0 47 27 102 85 143z" />
    <glyph glyph-name="s_s.end" horiz-adv-x="527" 
d="M-34 163l8 -1c48 72 99 175 128 238c-9 25 -14 51 -14 75c0 68 32 123 70 123c24 0 37 -16 37 -42c0 -35 -20 -88 -60 -153c22 -71 77 -167 77 -247c0 -36 -8 -73 -26 -102c22 13 38 26 52 46c3 24 17 45 36 50c53 80 112 212 142 283c-11 27 -15 55 -15 80
c0 68 31 123 69 123c24 0 35 -16 35 -42c0 -37 -21 -93 -62 -161c19 -79 75 -200 75 -282c0 -81 -41 -163 -143 -163c-81 0 -120 34 -133 71c-39 -44 -94 -66 -166 -66c-119 0 -158 57 -158 105c0 35 20 65 48 65zM418 366c-32 -82 -84 -169 -115 -220c22 -12 24 -27 24 -49
c0 -14 -7 -86 26 -86c32 0 70 39 70 160c0 36 -3 124 -5 195zM107 330c-31 -72 -78 -140 -107 -182c9 -12 9 -30 9 -81c0 -33 11 -51 35 -51c33 0 73 34 73 160c0 35 -6 97 -10 154z" />
    <glyph glyph-name="o_o.end" horiz-adv-x="701" 
d="M416 361c9 20 24 37 42 38c20 62 70 111 131 111c80 0 113 -68 113 -155c0 -152 -100 -362 -218 -362c-121 0 -119 159 -106 248c-21 -26 -48 -47 -82 -55c-39 -104 -109 -193 -185 -193c-80 0 -113 75 -113 167c0 99 38 244 95 239c14 61 57 111 123 111
c80 0 113 -68 113 -155c0 -43 -8 -90 -22 -136c54 23 85 89 109 142zM583 472c-22 0 -55 -46 -70 -97c6 -3 6 -10 3 -13c-34 -52 -60 -152 -60 -227c0 -54 14 -94 47 -94c52 0 113 202 113 341c0 51 -9 90 -33 90zM210 472c-35 0 -72 -67 -72 -136c0 -52 22 -104 84 -120
c13 57 21 118 21 166c0 52 -9 90 -33 90zM215 187c-55 12 -90 45 -110 86c-13 -46 -22 -97 -22 -140c0 -54 14 -95 47 -95c31 0 61 59 85 149z" />
    <glyph glyph-name="r_r.end" horiz-adv-x="602" 
d="M399 130l-16 -106c-3 -22 -21 -33 -37 -33c-19 0 -38 14 -38 44c0 31 11 114 29 208c-24 -25 -52 -43 -83 -43c-40 0 -78 17 -78 77c0 55 44 122 44 153c0 7 -3 12 -10 12c-34 0 -117 -143 -142 -312l-16 -106c-3 -22 -20 -33 -37 -33c-19 0 -38 14 -38 44
c0 70 34 267 79 421c5 17 21 25 38 25c23 0 49 -16 49 -44c0 -17 -12 -42 -17 -60c36 77 80 133 129 133c37 0 51 -22 51 -65c0 -56 -48 -149 -48 -184c0 -14 8 -22 23 -22c22 0 49 34 69 69c11 50 23 102 37 148c5 17 21 25 38 25c23 0 49 -16 49 -44
c0 -17 -12 -42 -17 -60c36 77 80 133 129 133c37 0 51 -22 51 -65c0 -56 -37 -119 -43 -177c-2 -22 -17 -32 -35 -32c-23 0 -49 19 -49 51c0 60 41 112 41 143c0 7 -3 12 -10 12c-34 0 -117 -143 -142 -312z" />
    <glyph glyph-name="p_p.end" horiz-adv-x="704" 
d="M134 -15c-46 0 -73 12 -88 25c-26 -118 -47 -223 -50 -258c-2 -24 -19 -36 -37 -36c-21 0 -43 17 -43 49c0 33 101 538 140 679c7 25 27 36 46 36c22 0 43 -14 43 -38c0 -4 0 -7 -8 -40c29 63 65 107 108 107c61 0 86 -59 86 -131c0 -118 -63 -282 -146 -351
c91 20 145 77 193 176c0 1 0 1 1 2c23 112 46 213 60 261c6 22 22 31 39 31c24 0 49 -18 49 -39c0 -10 -5 -28 -9 -45c30 63 65 107 107 107c60 0 84 -58 84 -132c0 -160 -112 -408 -230 -408c-23 0 -41 10 -54 22c-30 -137 -56 -261 -59 -297c-2 -17 -18 -25 -34 -25
c-22 0 -45 13 -45 41c0 26 35 212 73 393c-48 -80 -113 -129 -226 -129zM485 266l-51 -226c7 -6 19 -11 28 -11c72 0 151 249 151 363c0 35 -8 56 -24 56c-34 0 -72 -78 -104 -182zM92 211c-10 -41 -19 -84 -29 -127c21 10 43 -14 51 -34c62 40 120 231 120 329
c0 36 -8 58 -26 58c-39 0 -83 -98 -116 -226z" />
    </font>
</defs>
</svg>
